<svg xmlns="http://www.w3.org/2000/svg" viewBox="0 0 100 100">
  <path d="M50 9C42.892857 9 38.143957 11.294777 35.191406 13.605469C32.238856 15.91616 31.052734 18.277344 31.052734 18.277344 A 0.50005 0.50005 0 0 0 31 18.5L31 30.5L31 31.669922C31 32.228859 31.221267 32.715467 31.455078 33.183594C30.59837 33.916055 30 34.955729 30 36.169922C30 37.31802 30.54015 38.305348 31.314453 39.03125C31.159223 39.388505 31 39.750374 31 40.169922C31 40.495718 31.058977 40.806816 31.15625 41.099609C30.562544 41.513584 30 42.128594 30 43C30 44.286667 30.455044 46.293983 31.041016 48.283203C31.343181 49.309297 31.583196 50.35704 32.115234 51.285156C32.49409 51.946053 33.190497 52.422657 34 52.707031L34 56C34 57.592797 35.04756 59.212447 36.558594 61.068359C37.963958 62.794484 39.873738 64.567432 42 66.027344L42 68.576172C42 69.010566 41.744723 69.375036 41.339844 69.517578 A 1.0001 1.0001 0 0 0 41.337891 69.517578C41.115339 69.596068 40.859405 69.68596 40.570312 69.789062C38.844879 70.402361 35.976941 71.441139 31.648438 73.064453C23.101224 76.269676 23 85 23 85 A 1.0001 1.0001 0 0 0 24 86L76 86 A 1.0001 1.0001 0 0 0 77 85C77 85 76.898823 76.269676 68.351562 73.064453C64.021918 71.440711 61.153021 70.400344 59.427734 69.787109 A 1.0001 1.0001 0 0 0 59.425781 69.787109C59.140369 69.686317 58.887157 69.596948 58.662109 69.517578 A 1.0001 1.0001 0 0 0 58.660156 69.517578C58.255371 69.375036 58 69.010566 58 68.576172L58 66.027344C60.126262 64.567432 62.036042 62.794484 63.441406 61.068359C64.95244 59.212447 66 57.592797 66 56L66 52.707031C66.809503 52.422657 67.50591 51.946053 67.884766 51.285156C68.416804 50.35704 68.656819 49.309297 68.958984 48.283203C69.544956 46.293983 70 44.286667 70 43C70 42.128594 69.437456 41.513584 68.84375 41.099609C68.941023 40.806816 69 40.495718 69 40.169922C69 39.750374 68.840777 39.388505 68.685547 39.03125C69.45985 38.305348 70 37.31802 70 36.169922C70 34.955729 69.40163 33.916055 68.544922 33.183594C68.778733 32.715467 69 32.228859 69 31.669922L69 30.5L69 18.5 A 0.50005 0.50005 0 0 0 68.947266 18.277344C68.947266 18.277344 67.761144 15.91616 64.808594 13.605469C61.856039 11.294777 57.107143 9 50 9 z M 50 10C56.892857 10 61.393957 12.205223 64.191406 14.394531C66.905387 16.518516 67.93785 18.520458 68 18.642578L68 29.513672C66.350802 28.290624 61.158712 24.887716 53.123047 24.148438C53.004424 24.137138 52.881505 24.131176 52.761719 24.121094C52.392202 24.091092 52.023794 24.061159 51.642578 24.042969C51.105215 24.016271 50.558814 24 50 24C49.441186 24 48.894785 24.016271 48.357422 24.042969C47.976206 24.061159 47.607798 24.091092 47.238281 24.121094C47.118495 24.131176 46.995576 24.137138 46.876953 24.148438C38.841288 24.887716 33.649198 28.290624 32 29.513672L32 18.642578C32.06215 18.520458 33.094613 16.518516 35.808594 14.394531C38.606043 12.205223 43.107143 10 50 10 z M 48.5 13 A 0.50005 0.50005 0 0 0 48 13.5L48 15L46.5 15 A 0.50005 0.50005 0 0 0 46 15.5L46 18.5 A 0.50005 0.50005 0 0 0 46.5 19L48 19L48 20.5 A 0.50005 0.50005 0 0 0 48.5 21L51.5 21 A 0.50005 0.50005 0 0 0 52 20.5L52 19L53.5 19 A 0.50005 0.50005 0 0 0 54 18.5L54 15.5 A 0.50005 0.50005 0 0 0 53.5 15L52 15L52 13.5 A 0.50005 0.50005 0 0 0 51.5 13L48.5 13 z M 49 14L51 14L51 15.5 A 0.50005 0.50005 0 0 0 51.5 16L53 16L53 18L51.5 18 A 0.50005 0.50005 0 0 0 51 18.5L51 20L49 20L49 18.5 A 0.50005 0.50005 0 0 0 48.5 18L47 18L47 16L48.5 16 A 0.50005 0.50005 0 0 0 49 15.5L49 14 z M 50 25C50.62307 25 51.226696 25.024968 51.822266 25.058594C52.022227 25.070132 52.219316 25.084503 52.416016 25.099609C52.789712 25.127695 53.15543 25.16321 53.517578 25.203125C53.771389 25.231702 54.029393 25.256956 54.277344 25.291016C56.511415 25.597896 58.506131 26.119614 60.251953 26.720703C62.759757 31.883012 62.968337 38.042449 62.986328 39.427734C61.551573 39.206217 59.800448 39 58 39C56 39 52.740688 39.431656 51.554688 40.972656C51.554688 40.976656 51.392187 41.355 51.242188 42L48.755859 42C48.606859 41.355 48.443359 40.976656 48.443359 40.972656C47.258359 39.431656 44 39 42 39C40.154547 39 38.350158 39.2154 36.898438 39.443359C36.936821 38.072812 37.231321 31.896398 39.748047 26.720703C41.493869 26.119614 43.488585 25.597896 45.722656 25.291016C45.970607 25.256956 46.228611 25.231702 46.482422 25.203125C46.84457 25.16321 47.210288 25.127695 47.583984 25.099609C47.780684 25.084503 47.977773 25.070132 48.177734 25.058594C48.773304 25.024968 49.37693 25 50 25 z M 38.410156 27.193359C36.073806 32.620605 35.904665 38.55382 35.890625 39.578125C35.395197 39.647001 34.546892 39.779914 33.476562 40.083984C33.000743 40.219161 32.520613 40.384023 32.0625 40.589844C32.03192 40.453072 32 40.316309 32 40.169922C32 39.806299 32.103514 39.469886 32.28125 39.166016 A 0.50005 0.50005 0 0 0 32.158203 38.519531C31.454347 37.966625 31 37.128709 31 36.169922C31 35.152589 31.506303 34.262423 32.279297 33.71875 A 0.50005 0.50005 0 0 0 32.410156 33.037109C32.151226 32.641592 32 32.175262 32 31.669922L32 30.740234C32.480723 30.351263 34.684272 28.668233 38.410156 27.193359 z M 61.587891 27.193359C65.314772 28.668374 67.519205 30.351205 68 30.740234L68 31.669922C68 32.175262 67.848774 32.641592 67.589844 33.037109 A 0.50005 0.50005 0 0 0 67.720703 33.71875C68.493697 34.262423 69 35.152589 69 36.169922C69 37.128709 68.545653 37.966625 67.841797 38.519531 A 0.50005 0.50005 0 0 0 67.71875 39.166016C67.896486 39.469886 68 39.806299 68 40.169922C68 40.316309 67.96808 40.453072 67.9375 40.589844C67.479387 40.384023 66.999257 40.219161 66.523438 40.083984C65.357186 39.752663 64.41942 39.616759 63.992188 39.560547C63.993337 38.484977 63.901793 32.595259 61.587891 27.193359 z M 43 35C41.64 34.997 40.277 35.143406 39 35.441406L39.685547 36.751953C40.740547 36.491953 41.872 36.372 43 36.375C44.435 36.378 45.866766 36.583 47.134766 37L48 35.722656C46.456 35.246656 44.73 35.004 43 35 z M 57 35C55.27 35.003 53.544 35.246656 52 35.722656L52.865234 37C54.133234 36.583 55.565 36.378 57 36.375C58.128 36.372 59.259453 36.491953 60.314453 36.751953L61 35.441406C59.723 35.143406 58.36 34.998 57 35 z M 42 40C44.07 40 46.649359 40.464422 47.568359 41.482422C47.726359 41.920422 48.11375 43.206547 47.96875 44.935547C47.78275 47.126547 46.792719 49.780094 43.136719 49.996094C37.979719 49.988094 37 47.882 37 44L37 42.179688C37 41.156687 37.768156 40.302453 38.785156 40.189453C39.800156 40.078453 40.899 40 42 40 z M 58 40C59.101 40 60.199844 40.077453 61.214844 40.189453C62.231844 40.301453 63 41.156688 63 42.179688L63 44C63 47.882 62.021234 49.988094 56.865234 49.996094C53.209234 49.780094 52.219203 47.126547 52.033203 44.935547C51.887203 43.206547 52.273641 41.920422 52.431641 41.482422C53.350641 40.464422 55.93 40 58 40 z M 43 41C42.201 41 41.518266 41.589547 41.197266 42.435547C41.378266 42.178547 41.662 42 42 42C42.552 42 43 42.448 43 43C43 43.552 42.552 44 42 44C41.498 44 41.101297 43.623578 41.029297 43.142578C41.015297 43.259578 41 43.378 41 43.5C41 44.881 41.895 46 43 46C44.105 46 45 44.881 45 43.5C45 42.119 44.105 41 43 41 z M 57 41C56.201 41 55.518266 41.589547 55.197266 42.435547C55.378266 42.178547 55.662 42 56 42C56.552 42 57 42.448 57 43C57 43.552 56.552 44 56 44C55.498 44 55.101297 43.623578 55.029297 43.142578C55.015297 43.259578 55 43.378 55 43.5C55 44.881 55.895 46 57 46C58.105 46 59 44.881 59 43.5C59 42.119 58.105 41 57 41 z M 34.802734 41.869141C35.800918 41.922146 36 43.125 36 44C36 48 36.999109 50.996094 43.162109 50.996094C47.711109 50.744094 48.776844 47.231531 48.964844 45.019531C49.020844 44.354531 49.001172 43.756516 48.951172 43.228516C49.229172 43.096516 49.569 43 50 43C50.432 43 50.772781 43.087078 51.050781 43.205078C50.998781 43.739078 50.978156 44.344531 51.035156 45.019531C51.223156 47.231531 52.287891 50.743094 56.837891 50.996094C63.000891 50.996094 64 48 64 44C64 43.026041 64.255144 41.65888 65.576172 41.910156C65.710996 41.944007 65.841057 41.97127 65.976562 42.009766C66.61349 42.190711 67.234293 42.430369 67.611328 42.666016C67.988363 42.901662 68 43.020139 68 43C68 43.713333 67.595044 45.836017 67.041016 47.716797C66.724181 48.792703 66.463602 49.744632 66.150391 50.291016C65.837179 50.837399 65.683667 51 65 51 A 1.0001 1.0001 0 0 0 64 52L64 56C64 56.406203 63.269091 58.113553 61.890625 59.806641C60.512159 61.499728 58.572636 63.325902 56.455078 64.703125C54.119754 66.221281 51.873682 67 50 67C48.126318 67 45.880246 66.221281 43.544922 64.703125C41.427364 63.325902 39.487841 61.499728 38.109375 59.806641C36.730909 58.113553 36 56.406203 36 56L36 52 A 1.0001 1.0001 0 0 0 35 51C34.316333 51 34.162821 50.837399 33.849609 50.291016C33.536398 49.744632 33.275819 48.792703 32.958984 47.716797C32.404956 45.836017 32 43.713333 32 43C32 43.02014 32.01164 42.90166 32.388672 42.666016C32.765707 42.430369 33.38651 42.190711 34.023438 42.009766C34.158943 41.97127 34.289004 41.944007 34.423828 41.910156C34.55805 41.884625 34.689844 41.863146 34.802734 41.869141 z M 47.464844 53.994141 A 0.50005 0.50005 0 0 0 47.099609 54.800781C47.099609 54.800781 47.357551 55.133793 47.832031 55.425781C48.306511 55.717769 49.029762 56 50 56C50.970238 56 51.693489 55.717769 52.167969 55.425781C52.642449 55.133793 52.900391 54.800781 52.900391 54.800781 A 0.50078155 0.50078155 0 0 0 52.099609 54.199219C52.099609 54.199219 51.982551 54.366207 51.644531 54.574219C51.306511 54.782231 50.779762 55 50 55C49.220238 55 48.693489 54.782231 48.355469 54.574219C48.017449 54.366207 47.900391 54.199219 47.900391 54.199219 A 0.50005 0.50005 0 0 0 47.515625 53.994141 A 0.50005 0.50005 0 0 0 47.464844 53.994141 z M 42.322266 58.003906C42.227391 58.017781 42.136219 58.067891 42.074219 58.150391C41.950219 58.316391 41.984391 58.551781 42.150391 58.675781C42.276391 58.770781 45.304 61 50 61C54.696 61 57.723609 58.770781 57.849609 58.675781C58.014609 58.551781 58.049781 58.316391 57.925781 58.150391C57.801781 57.985391 57.567391 57.950219 57.400391 58.074219C57.371391 58.096219 54.435 60 50 60C45.565 60 42.628609 58.096219 42.599609 58.074219C42.516109 58.012219 42.417141 57.990031 42.322266 58.003906 z M 44 66.150391C46.100614 67.351353 48.146708 68 50 68C51.853292 68 53.899386 67.351353 56 66.150391L56 68.576172C56 69.786039 56.736517 70.876784 57.849609 71.337891L53.326172 84L46.673828 84L42.337891 71.861328C43.937819 72.41305 46.452299 73 50 73C50.535794 73 51.040029 72.983254 51.525391 72.958984 A 0.50064429 0.50064429 0 1 0 51.474609 71.958984C50.999969 71.98272 50.514206 72 50 72C46.676054 72 44.316589 71.471625 42.808594 70.96875C43.544928 70.411229 44 69.528706 44 68.576172L44 66.150391 z M 55.478516 71.443359 A 0.50005 0.50005 0 0 0 55.394531 71.457031C54.80709 71.58431 54.160721 71.700001 53.4375 71.791016 A 0.50005 0.50005 0 1 0 53.5625 72.783203C54.317279 72.688213 54.99291 72.566315 55.605469 72.433594 A 0.50005 0.50005 0 0 0 55.478516 71.443359 z M 41.212891 71.681641L45.611328 84L42.666016 84L39.087891 81.316406L39.974609 78.658203 A 0.50005 0.50005 0 0 0 39.777344 78.083984L37 76.232422L37 73.228516C38.363599 72.730226 40.397748 71.971433 41.212891 71.681641 z M 58.787109 71.683594C59.602327 71.973411 61.636454 72.732493 63 73.230469L63 76.232422L60.222656 78.083984 A 0.50005 0.50005 0 0 0 60.025391 78.658203L60.912109 81.316406L57.332031 84L54.388672 84L58.787109 71.683594 z M 36 73.595703L36 76.5 A 0.50005 0.50005 0 0 0 36.222656 76.916016L38.904297 78.705078L38.025391 81.341797 A 0.50005 0.50005 0 0 0 38.199219 81.900391L41 84L25.083984 84C25.320993 81.9877 26.478152 77.138076 32.351562 74.935547C34.124587 74.270612 34.697725 74.074423 36 73.595703 z M 64 73.597656C65.302009 74.076032 65.87572 74.270727 67.648438 74.935547C73.521848 77.138076 74.679007 81.9877 74.916016 84L59 84L61.800781 81.900391 A 0.50005 0.50005 0 0 0 61.974609 81.341797L61.095703 78.705078L63.777344 76.916016 A 0.50005 0.50005 0 0 0 64 76.5L64 73.597656 z" fill="#FFFFFF" />
</svg>