<svg xmlns="http://www.w3.org/2000/svg" viewBox="0 0 80 80" fill="currentColor">
  <path d="M40 8C33.777344 8 27.683594 10.050781 27.683594 10.050781L27.207031 10.207031L27.050781 10.683594C27.050781 10.683594 24 19.667969 24 26L24 34L24.015625 34C24.046875 34.5625 24.210938 35.058594 24.355469 35.546875C24.433594 35.820313 24.511719 36.074219 24.5625 36.265625C24.613281 36.457031 24.625 36.644531 24.625 36.5C24.625 37.859375 25.765625 38.921875 27.109375 38.96875C27.292969 42.84375 29.160156 46.265625 32 48.519531L32 52.25C30.558594 52.6875 27.097656 53.804688 23.574219 55.46875C21.273438 56.554688 18.960938 57.863281 17.160156 59.414063C15.359375 60.964844 14 62.820313 14 65L14 71L66 71L66 65C66 62.820313 64.640625 60.964844 62.839844 59.414063C61.039063 57.863281 58.726563 56.554688 56.425781 55.46875C52.902344 53.804688 49.441406 52.6875 48 52.25L48 48.523438C50.839844 46.269531 52.707031 42.847656 52.890625 38.96875C54.234375 38.921875 55.375 37.859375 55.375 36.5C55.375 36.644531 55.386719 36.457031 55.4375 36.265625C55.488281 36.074219 55.566406 35.820313 55.644531 35.546875C55.789063 35.058594 55.953125 34.5625 55.984375 34L56 34L56 26C56 19.667969 52.949219 10.683594 52.949219 10.683594L52.792969 10.207031L52.316406 10.050781C52.316406 10.050781 46.222656 8 40 8 Z M 40 10C45.390625 10 50.484375 11.59375 51.191406 11.816406C51.4375 12.574219 53.632813 19.617188 53.902344 25L26.097656 25C26.367188 19.617188 28.5625 12.574219 28.808594 11.816406C29.515625 11.59375 34.609375 10 40 10 Z M 39 14L39 17L36 17L36 19L39 19L39 22L41 22L41 19L44 19L44 17L41 17L41 14 Z M 26 27L28.058594 27C27.414063 28.140625 27.007813 29.492188 27.003906 31.03125C26.949219 31.023438 26.960938 31 26.875 31C26.570313 31 26.277344 31.058594 26 31.148438 Z M 30.511719 27L49.542969 27C50.011719 27.582031 51 29.039063 51 31L51 34.304688L52.503906 33.421875C52.761719 33.273438 53 33.140625 53.167969 33.054688C53.1875 33.042969 53.195313 33.042969 53.214844 33.03125C53.671875 33.078125 54 33.398438 54 33.800781C54 33.875 53.882813 34.460938 53.730469 34.984375C53.652344 35.242188 53.574219 35.503906 53.507813 35.742188C53.441406 35.980469 53.375 36.148438 53.375 36.5C53.375 36.765625 53.15625 37 52.8125 37L51 37L51 38.367188C51 43.789063 47.089844 48.269531 41.941406 49.1875L41.65625 49.234375L41.441406 49.433594C41.050781 49.789063 40.558594 50 40 50C39.441406 50 38.949219 49.789063 38.558594 49.433594L38.34375 49.234375L38.058594 49.1875C32.910156 48.269531 29 43.789063 29 38.367188L29 37L27.1875 37C26.84375 37 26.625 36.765625 26.625 36.5C26.625 36.148438 26.558594 35.980469 26.492188 35.742188C26.425781 35.503906 26.347656 35.242188 26.269531 34.984375C26.117188 34.460938 26 33.875 26 33.800781C26 33.398438 26.328125 33.078125 26.785156 33.03125C26.804688 33.042969 26.8125 33.042969 26.832031 33.054688C27 33.140625 27.238281 33.273438 27.496094 33.421875L29 34.304688L29 31.050781C29 29.339844 29.601563 28.046875 30.511719 27 Z M 51.925781 27L54 27L54 31.148438C53.722656 31.058594 53.429688 31 53.125 31C53.039063 31 53.054688 31.019531 53 31.027344L53 31C53 29.351563 52.476563 27.988281 51.925781 27 Z M 34.5 33C33.671875 33 33 33.671875 33 34.5C33 35.328125 33.671875 36 34.5 36C35.328125 36 36 35.328125 36 34.5C36 33.671875 35.328125 33 34.5 33 Z M 45.5 33C44.671875 33 44 33.671875 44 34.5C44 35.328125 44.671875 36 45.5 36C46.328125 36 47 35.328125 47 34.5C47 33.671875 46.328125 33 45.5 33 Z M 34 49.824219C35.066406 50.382813 36.21875 50.8125 37.441406 51.058594C38.148438 51.621094 39.023438 52 40 52C40.972656 52 41.84375 51.621094 42.546875 51.0625C43.773438 50.820313 44.929688 50.390625 46 49.828125L46 54C46 54.359375 45.644531 55.46875 45.015625 56.679688C44.390625 57.890625 43.53125 59.277344 42.667969 60.570313C41.320313 62.59375 40.492188 63.640625 39.96875 64.332031C39.429688 63.699219 38.640625 62.816406 37.316406 60.925781C35.605469 58.476563 34 55.417969 34 54 Z M 47.964844 54.34375C49.5625 54.84375 52.527344 55.839844 55.574219 57.28125C57.773438 58.320313 59.960938 59.574219 61.535156 60.929688C63.109375 62.285156 64 63.679688 64 65L64 69L16 69L16 65C16 63.679688 16.890625 62.285156 18.464844 60.929688C20.039063 59.574219 22.226563 58.320313 24.425781 57.28125C27.46875 55.84375 30.429688 54.847656 32.03125 54.34375C32.183594 56.84375 33.972656 59.632813 35.683594 62.074219C37.46875 64.625 39.25 66.65625 39.25 66.65625L40.046875 67.570313L40.789063 66.613281C40.789063 66.613281 42.558594 64.339844 44.332031 61.679688C45.21875 60.347656 46.109375 58.921875 46.796875 57.601563C47.410156 56.414063 47.871094 55.371094 47.964844 54.34375 Z M 19 65C18.449219 65 18 65.449219 18 66C18 66.550781 18.449219 67 19 67C19.550781 67 20 66.550781 20 66C20 65.449219 19.550781 65 19 65 Z M 23 65C22.449219 65 22 65.449219 22 66C22 66.550781 22.449219 67 23 67C23.550781 67 24 66.550781 24 66C24 65.449219 23.550781 65 23 65 Z M 27 65C26.449219 65 26 65.449219 26 66C26 66.550781 26.449219 67 27 67C27.550781 67 28 66.550781 28 66C28 65.449219 27.550781 65 27 65 Z M 31 65C30.449219 65 30 65.449219 30 66C30 66.550781 30.449219 67 31 67C31.550781 67 32 66.550781 32 66C32 65.449219 31.550781 65 31 65 Z M 35 65C34.449219 65 34 65.449219 34 66C34 66.550781 34.449219 67 35 67C35.550781 67 36 66.550781 36 66C36 65.449219 35.550781 65 35 65 Z M 45 65C44.449219 65 44 65.449219 44 66C44 66.550781 44.449219 67 45 67C45.550781 67 46 66.550781 46 66C46 65.449219 45.550781 65 45 65 Z M 49 65C48.449219 65 48 65.449219 48 66C48 66.550781 48.449219 67 49 67C49.550781 67 50 66.550781 50 66C50 65.449219 49.550781 65 49 65 Z M 53 65C52.449219 65 52 65.449219 52 66C52 66.550781 52.449219 67 53 67C53.550781 67 54 66.550781 54 66C54 65.449219 53.550781 65 53 65 Z M 57 65C56.449219 65 56 65.449219 56 66C56 66.550781 56.449219 67 57 67C57.550781 67 58 66.550781 58 66C58 65.449219 57.550781 65 57 65 Z M 61 65C60.449219 65 60 65.449219 60 66C60 66.550781 60.449219 67 61 67C61.550781 67 62 66.550781 62 66C62 65.449219 61.550781 65 61 65Z" />
</svg>
