<svg width="16" height="16" viewBox="0 0 492 512" fill="currentColor" xmlns="http://www.w3.org/2000/svg">
    <path
        d="M211.688 151.673H266.14L211.688 206.125V151.673ZM16.501 293.082V151.672H148.039V269.773L147.389 270.423C146.979 270.834 146.613 271.287 146.298 271.775L132.511 293.081H16.501V293.082ZM148.041 495.499H16.501V495.498V354.09H93.036L77.845 377.568C75.732 380.834 76.187 385.133 78.937 387.885L103.829 412.777C105.423 414.37 107.535 415.193 109.667 415.193C111.214 415.193 112.771 414.758 114.145 413.87L148.04 391.939V495.499H148.041ZM343.227 354.09V495.498H211.688V354.09H343.227ZM343.227 293.082H272.53L343.227 222.385V293.082ZM345.643 196.631L246.776 295.498L210.24 332.035L199.612 338.912C199.54 338.958 199.477 339.011 199.407 339.059C199.37 339.085 199.327 339.104 199.289 339.13C199.241 339.159 199.198 339.195 199.149 339.224C199.085 339.264 199.018 339.296 198.955 339.336L151.809 369.841L110.781 396.388L95.321 380.931L115.127 350.32L143.925 305.814L159.676 281.472L162.124 279.024L209.27 231.879L291.892 149.257L339.913 101.236L390.474 151.796L345.643 196.631ZM452.707 151.796L433.262 171.244L407.98 145.962L345.75 83.7333C345.747 83.7303 345.742 83.7263 345.739 83.7233L320.469 58.4522L339.916 39.0052L365.196 64.2863L427.427 126.517L452.707 151.796ZM464.766 77.5113L433.264 109.014L382.702 58.4522L414.205 26.9482C428.146 13.0083 450.828 13.0093 464.767 26.9473C478.705 40.8863 478.705 63.5703 464.766 77.5113Z" />
    <path
        d="M215.067 237.754C211.845 234.532 206.621 234.531 203.398 237.754L178.506 262.647C175.284 265.869 175.284 271.093 178.507 274.316C180.118 275.927 182.23 276.732 184.341 276.732C186.452 276.732 188.564 275.927 190.176 274.315L215.068 249.422C218.29 246.2 218.29 240.975 215.067 237.754Z" />
    <path
        d="M327.079 125.739C323.857 122.519 318.634 122.517 315.409 125.739L228.288 212.861C225.066 216.084 225.066 221.307 228.288 224.53C229.9 226.141 232.012 226.946 234.123 226.946C236.234 226.946 238.346 226.141 239.958 224.53L327.079 137.408C330.301 134.184 330.301 128.961 327.079 125.739Z" />
</svg>
