<svg width="30" height="30" viewBox="0 0 337 337" style="color:white;" fill="white" xmlns="http://www.w3.org/2000/svg">
    <path
        d="M225.302 95.6333H104.502C104.502 95.6333 104.502 95.6333 104.402 95.6333H86.1016C73.4016 95.6333 63.1016 105.933 63.1016 118.633V202.133C63.1016 214.833 73.4016 225.133 86.1016 225.133H104.402H225.302H243.602C256.302 225.133 266.602 214.833 266.602 202.133V118.633C266.602 105.933 256.302 95.6333 243.602 95.6333H225.302ZM251.602 141.533V179.133C234.302 179.933 220.202 193.133 218.002 210.033H111.702C109.502 193.133 95.4016 179.933 78.1016 179.133V141.533C95.4016 140.733 109.502 127.533 111.702 110.633H218.002C220.202 127.533 234.302 140.733 251.602 141.533ZM86.1016 110.633H96.5016C94.5016 119.233 87.1016 125.733 78.1016 126.533V118.633C78.1016 114.233 81.7016 110.633 86.1016 110.633ZM78.1016 202.033V194.133C87.1016 194.833 94.5016 201.433 96.5016 210.033H86.1016C81.7016 210.033 78.1016 206.433 78.1016 202.033ZM243.702 210.033H233.302C235.302 201.433 242.702 194.933 251.702 194.133V202.033C251.602 206.433 248.102 210.033 243.702 210.033ZM251.602 118.533V126.433C242.602 125.733 235.202 119.133 233.202 110.533H243.602C248.102 110.633 251.602 114.233 251.602 118.533Z"
        fill="white" />
    <path
        d="M164.899 193.033C182.899 193.033 197.599 178.333 197.599 160.333C197.599 142.333 182.899 127.633 164.899 127.633C146.899 127.633 132.199 142.333 132.199 160.333C132.199 178.333 146.799 193.033 164.899 193.033ZM164.899 142.633C174.699 142.633 182.599 150.533 182.599 160.333C182.599 170.133 174.699 178.033 164.899 178.033C155.099 178.033 147.199 170.133 147.199 160.333C147.199 150.533 155.099 142.633 164.899 142.633Z"
        fill="white" />
    <path
        d="M168.2 336.533C213.1 336.533 255.3 319.033 287.1 287.233C316.6 257.733 334 218.533 336.1 176.833C336.3 172.733 333.1 169.133 329 168.933C324.9 168.733 321.3 171.933 321.1 176.033C319.2 213.933 303.3 249.633 276.4 276.533C247.5 305.433 209 321.433 168.1 321.433C127.2 321.433 88.7 305.533 59.8 276.533C0.099987 216.833 0.099987 119.633 59.8 59.9331C110.7 9.03311 189.9 0.533108 250.1 38.8331L233.2 59.5331L281.7 54.6331L276.8 6.13311L259.7 27.1331C193.4 -16.0669 105.5 -6.96689 49.2 49.3331C-16.4 114.933 -16.4 221.533 49.2 287.133C81.1 319.033 123.3 336.533 168.2 336.533Z"
        fill="white" />
</svg>
