<svg xmlns="http://www.w3.org/2000/svg" xmlns:xlink="http://www.w3.org/1999/xlink" viewBox="0 0 159.63 125.06"><defs><style>.cls-1{fill:#983d31;opacity:0.43;}.cls-2{fill:url(#linear-gradient);}.cls-3{fill:#9408ff;}.cls-4{fill:#f8d5e3;}.cls-5{fill:#8243d6;}.cls-6{fill:#7b07dd;}.cls-7{fill:#fff;}.cls-26,.cls-8{fill:#3a0354;}.cls-9{fill:#270234;}.cls-10{fill:#1e0237;}.cls-11{fill:#FFB2A6;}.cls-12{fill:url(#linear-gradient-2);}.cls-13{fill:#30024a;}.cls-14{fill:url(#linear-gradient-3);}.cls-15{fill:url(#linear-gradient-4);}.cls-16{fill:#632944;opacity:0.26;}.cls-17{fill:url(#linear-gradient-5);}.cls-18{fill:url(#linear-gradient-6);}.cls-19{fill:url(#linear-gradient-7);}.cls-20{fill:#a06eff;}.cls-21{fill:#d31d33;}.cls-22{fill:#e7d9ff;}.cls-23{fill:#6826d5;}.cls-24{fill:url(#linear-gradient-8);}.cls-25{fill:url(#linear-gradient-9);}.cls-26{opacity:0.16;}.cls-27{fill:url(#linear-gradient-10);}.cls-28{fill:url(#linear-gradient-11);}.cls-29{fill:url(#linear-gradient-12);}</style><linearGradient id="linear-gradient" x1="775.58" y1="42.55" x2="862.35" y2="42.55" gradientTransform="matrix(-1, 0, 0, 1, 917.22, 0)" gradientUnits="userSpaceOnUse"><stop offset="0" stop-color="#e3ceff"/><stop offset="1" stop-color="#b77ff1"/></linearGradient><linearGradient id="linear-gradient-2" x1="129.74" y1="40.82" x2="140.6" y2="40.82" gradientUnits="userSpaceOnUse"><stop offset="0" stop-color="#5608ff"/><stop offset="1" stop-color="#8908ff"/></linearGradient><linearGradient id="linear-gradient-3" x1="132.49" y1="68.49" x2="159.63" y2="68.49" xlink:href="#linear-gradient-2"/><linearGradient id="linear-gradient-4" x1="147.5" y1="27.25" x2="149.16" y2="27.25" xlink:href="#linear-gradient-2"/><linearGradient id="linear-gradient-5" x1="139.23" y1="50.96" x2="149.17" y2="50.96" gradientUnits="userSpaceOnUse"><stop offset="0" stop-color="#c25fff"/><stop offset="1" stop-color="#bc2dca"/></linearGradient><linearGradient id="linear-gradient-6" x1="131.82" y1="50.96" x2="148.2" y2="50.96" gradientUnits="userSpaceOnUse"><stop offset="0" stop-color="#bc2dca"/><stop offset="1" stop-color="#c25fff"/></linearGradient><linearGradient id="linear-gradient-7" x1="145.35" y1="43.64" x2="157.21" y2="43.64" xlink:href="#linear-gradient-2"/><linearGradient id="linear-gradient-8" x1="0.37" y1="78" x2="84.82" y2="78" xlink:href="#linear-gradient-6"/><linearGradient id="linear-gradient-9" x1="77.78" y1="102.35" x2="85.93" y2="102.35" xlink:href="#linear-gradient-6"/><linearGradient id="linear-gradient-10" x1="68.38" y1="102.35" x2="76.52" y2="102.35" xlink:href="#linear-gradient-6"/><linearGradient id="linear-gradient-11" x1="0" y1="102.35" x2="8.14" y2="102.35" xlink:href="#linear-gradient-6"/><linearGradient id="linear-gradient-12" x1="8.73" y1="102.35" x2="16.88" y2="102.35" xlink:href="#linear-gradient-6"/></defs><title>hero-section</title><g id="Layer_2" data-name="Layer 2"><g id="Layer_1-2" data-name="Layer 1"><polygon class="cls-1" points="52.31 0 56.66 84 138.63 84.81 134.6 11.06 52.31 0"/><polygon class="cls-2" points="54.87 0.04 54.87 0.04 54.89 0.3 54.89 0.35 55.15 5.43 59.23 84.03 59.24 84.24 70.12 84.35 79.46 84.45 105.42 84.72 101.64 84.65 110.71 84.75 118.68 84.83 120.73 84.85 133.01 84.98 138.59 85.03 141.65 85.06 137.79 14.56 137.6 11.14 128.94 10.12 54.88 0.04 54.87 0.04"/><polygon class="cls-3" points="54.88 0.04 55.15 5.43 129.14 13.72 134.78 14.27 137.79 14.56 137.6 11.14 128.94 10.12 54.88 0.04"/><path class="cls-4" d="M59.12,2.36,57.67,3.93a.19.19,0,0,0,.27.26l1.45-1.57a.19.19,0,0,0-.27-.26Z"/><path class="cls-4" d="M57.66,2.24a.15.15,0,0,0-.23,0,.18.18,0,0,0,0,.24l1.93,1.86a.17.17,0,0,0,.24,0,.19.19,0,0,0,0-.25Z"/><path class="cls-4" d="M60.72,3.46A1.53,1.53,0,0,0,62,4.72a.88.88,0,0,0,1-1.06A1.52,1.52,0,0,0,61.7,2.41.87.87,0,0,0,60.72,3.46Zm1-.79a1.19,1.19,0,0,1,1,1,.68.68,0,0,1-.76.82,1.19,1.19,0,0,1-1-1A.69.69,0,0,1,61.73,2.67Z"/><path class="cls-4" d="M66.36,4.66l-2.08-.18a.1.1,0,0,0-.11.12.18.18,0,0,0,.15.14l2.08.18a.1.1,0,0,0,.11-.12A.17.17,0,0,0,66.36,4.66Z"/><polygon class="cls-5" points="59.24 84.24 56.66 84 52.31 0 54.88 0.04 59.24 84.24"/><polygon class="cls-6" points="55.15 5.43 52.59 5.37 52.31 0 54.88 0.04 55.15 5.43"/><polygon class="cls-6" points="65.28 15.12 90.35 17.27 90.3 16.33 65.21 14.13 65.28 15.12"/><polygon class="cls-7" points="67.4 20.35 88.99 22.04 88.94 21.14 67.33 19.42 67.4 20.35"/><polygon class="cls-6" points="72.78 25.43 84.46 26.26 84.42 25.59 72.73 24.75 72.78 25.43"/><polygon class="cls-7" points="71.54 34.23 86.75 35.1 86.71 34.35 71.48 33.47 71.54 34.23"/><polygon class="cls-6" points="68.16 38.84 90.52 39.94 90.47 39.05 68.09 37.91 68.16 38.84"/><polygon class="cls-7" points="67.14 43.46 92.03 44.51 91.98 43.65 67.08 42.56 67.14 43.46"/><polygon class="cls-6" points="69.44 48.19 90.45 48.93 90.41 48.07 69.37 47.31 69.44 48.19"/><polygon class="cls-7" points="73.26 52.9 87.4 53.3 87.35 52.44 73.2 52.03 73.26 52.9"/><polygon class="cls-6" points="75.23 61.09 86.51 61.26 86.47 60.41 75.17 60.23 75.23 61.09"/><polygon class="cls-7" points="70.7 65.52 91.37 65.69 91.32 64.86 70.64 64.66 70.7 65.52"/><polygon class="cls-6" points="69.34 69.99 93.18 70.02 93.14 69.19 69.27 69.13 69.34 69.99"/><path class="cls-6" d="M80.27,56.7c.12-.06,11.44-5.74,11.06-12.82S78.68,29.82,78.55,29.75h0c-.53-.3-13-7.32-14.37-15.6a.57.57,0,0,1,.63-.69h0a.83.83,0,0,1,.72.69c1.21,7.5,13.4,14.39,13.53,14.46h0c.55.3,13.09,7.39,13.5,15.32S81.37,57.6,80.87,57.85h0c-.71.36-11.05,5.74-11.17,12.36a.58.58,0,0,1-.6.57h0a.7.7,0,0,1-.7-.68C68.52,62.56,79.79,56.94,80.27,56.7Z"/><path class="cls-7" d="M78.48,28.57h0c.12-.05,11.13-5.18,11.35-12.3a.55.55,0,0,1,.6-.55h0a.78.78,0,0,1,.67.77c-.25,7.83-11.47,13.07-12,13.3h0c-.12.05-12,5.61-11.49,13.07s13.08,13.79,13.2,13.85c.52.26,12,6.16,13.07,13.42a.57.57,0,0,1-.57.65h0a.63.63,0,0,1-.62-.55c-.94-6.6-12.25-12.35-12.37-12.41-.54-.27-13.42-6.86-14-15S78,28.81,78.48,28.57Z"/><path class="cls-3" d="M116.19,21.47l16,1.25c.14,0,.27.18.3.38s-.06.36-.19.35l-16-1.24c-.14,0-.27-.18-.3-.39S116.05,21.46,116.19,21.47Z"/><path class="cls-3" d="M112,21.15l2.65.2c.15,0,.28.19.31.39s-.06.37-.2.36l-2.66-.21c-.14,0-.28-.19-.31-.39S111.85,21.13,112,21.15Z"/><path class="cls-3" d="M97.2,20l11.84.92a.45.45,0,0,1,.31.4c0,.21-.07.36-.21.35L97.3,20.75c-.15,0-.29-.19-.31-.4S97.06,20,97.2,20Z"/><path class="cls-3" d="M113.11,23.66l19.41,1.46c.13,0,.27.18.29.38s-.05.36-.19.35L113.21,24.4a.41.41,0,0,1-.3-.39C112.88,23.8,113,23.65,113.11,23.66Z"/><path class="cls-3" d="M103,22.44l8.14.62c.14,0,.28.19.31.39s-.07.37-.21.36L103,23.2a.43.43,0,0,1-.3-.4C102.71,22.59,102.8,22.43,103,22.44Z"/><path class="cls-3" d="M101.66,32l4.18.29c.15,0,.28.18.31.39s-.07.37-.21.36l-4.19-.28c-.14,0-.28-.19-.31-.4S101.51,32,101.66,32Z"/><path class="cls-3" d="M109,26.37,132.12,28c.13,0,.27.19.29.39s0,.36-.19.35l-23.09-1.66c-.14,0-.28-.18-.31-.39S108.89,26.36,109,26.37Z"/><path class="cls-3" d="M99.77,25.7l6.47.47a.41.41,0,0,1,.31.39c0,.21-.06.37-.21.36l-6.47-.46c-.14,0-.28-.19-.31-.4S99.63,25.69,99.77,25.7Z"/><path class="cls-3" d="M118.21,29.8l6.28.44c.14,0,.27.19.3.39s-.07.37-.2.36l-6.28-.44c-.14,0-.28-.18-.31-.39S118.07,29.79,118.21,29.8Z"/><path class="cls-3" d="M98,28.33l18.37,1.28c.14,0,.28.18.31.39s-.07.37-.21.36L98.11,29.09c-.14,0-.28-.19-.31-.4S97.87,28.32,98,28.33Z"/><path class="cls-3" d="M109.08,32.81l24.76,1.63c.14,0,.27.18.3.39s-.06.36-.19.35l-24.77-1.61c-.14,0-.28-.19-.31-.4S108.94,32.8,109.08,32.81Z"/><path class="cls-3" d="M126.88,30.34l6.44.45c.14,0,.27.18.3.38s-.06.36-.19.35L127,31.08c-.13,0-.27-.18-.3-.39S126.74,30.33,126.88,30.34Z"/><path class="cls-3" d="M117.25,41.39l16,1c.14,0,.27.18.3.38s-.06.36-.2.35l-16-1c-.15,0-.28-.18-.31-.38S117.11,41.38,117.25,41.39Z"/><path class="cls-3" d="M113.05,41.13l2.65.16c.15,0,.28.19.31.39s-.06.37-.2.36l-2.66-.16c-.15,0-.28-.18-.31-.39S112.9,41.12,113.05,41.13Z"/><path class="cls-3" d="M98.25,40.22,110.1,41a.41.41,0,0,1,.3.39c0,.21-.06.37-.2.36L98.34,41c-.14,0-.28-.18-.31-.39S98.1,40.22,98.25,40.22Z"/><path class="cls-3" d="M114.17,43.64l19.42,1.14c.14,0,.27.18.3.38s-.06.36-.19.35l-19.43-1.13c-.14,0-.28-.18-.31-.39S114,43.63,114.17,43.64Z"/><path class="cls-3" d="M104,42.59l8.15.48a.41.41,0,0,1,.3.39c0,.21-.06.37-.2.36l-8.16-.48c-.14,0-.28-.18-.31-.39S103.85,42.58,104,42.59Z"/><path class="cls-3" d="M102.71,52.19l4.19.22c.14,0,.28.18.3.39s-.06.37-.21.36L102.8,53c-.14,0-.28-.18-.31-.39S102.56,52.19,102.71,52.19Z"/><path class="cls-3" d="M110.09,46.43l23.1,1.29c.14,0,.27.18.3.38s-.06.36-.19.36l-23.11-1.27c-.15,0-.28-.19-.31-.4S109.94,46.42,110.09,46.43Z"/><path class="cls-3" d="M100.82,45.92l6.48.36c.14,0,.28.18.31.39s-.07.37-.21.36l-6.48-.35c-.15,0-.29-.19-.31-.4S100.68,45.91,100.82,45.92Z"/><path class="cls-3" d="M119.28,49.72l6.28.34c.14,0,.27.18.3.39s-.06.36-.2.35l-6.29-.33c-.14,0-.28-.18-.3-.39S119.13,49.72,119.28,49.72Z"/><path class="cls-3" d="M99.06,48.58l18.39,1c.14,0,.28.18.31.39s-.06.37-.2.36l-18.4-1c-.15,0-.29-.19-.31-.4S98.92,48.58,99.06,48.58Z"/><path class="cls-3" d="M110.14,52.9l24.78,1.22c.14,0,.27.18.3.38s-.06.37-.19.36l-24.79-1.2c-.14,0-.28-.18-.31-.39S110,52.89,110.14,52.9Z"/><path class="cls-3" d="M128,50.12l6.45.34c.14,0,.27.18.3.38s-.06.36-.19.35l-6.45-.33a.41.41,0,0,1-.3-.39C127.73,50.27,127.82,50.11,128,50.12Z"/><path class="cls-3" d="M118.28,60.67l16,.72c.14,0,.27.18.3.38s-.06.36-.19.36l-16-.71c-.14,0-.27-.18-.3-.39S118.14,60.66,118.28,60.67Z"/><path class="cls-3" d="M114.07,60.48l2.66.12c.14,0,.28.18.31.39s-.07.36-.21.36l-2.66-.12c-.14,0-.28-.18-.31-.39S113.93,60.47,114.07,60.48Z"/><path class="cls-3" d="M99.26,59.81l11.86.54c.14,0,.28.18.3.38s-.06.38-.2.37l-11.87-.53c-.14,0-.28-.18-.31-.39S99.11,59.81,99.26,59.81Z"/><path class="cls-3" d="M115.2,63l19.44.83c.13,0,.26.17.29.37s-.05.37-.19.36l-19.44-.81c-.15,0-.28-.18-.31-.39S115.05,63,115.2,63Z"/><path class="cls-3" d="M105,62.09l8.16.35c.14,0,.28.18.31.39s-.07.37-.21.36l-8.16-.34c-.14,0-.28-.18-.31-.39S104.87,62.09,105,62.09Z"/><path class="cls-3" d="M103.72,71.76l4.2.15c.14,0,.28.17.3.38s-.06.38-.21.37l-4.19-.14a.4.4,0,0,1-.31-.39C103.48,71.92,103.58,71.75,103.72,71.76Z"/><path class="cls-3" d="M111.11,65.85l23.12.92c.14,0,.28.17.3.38s-.05.36-.19.36l-23.13-.9c-.15,0-.28-.18-.31-.39S111,65.85,111.11,65.85Z"/><path class="cls-3" d="M101.83,65.49l6.49.25c.14,0,.28.18.31.39s-.07.37-.21.37l-6.49-.25c-.14,0-.28-.18-.31-.39S101.69,65.48,101.83,65.49Z"/><path class="cls-3" d="M120.31,69l6.28.23c.14,0,.28.18.31.39s-.07.37-.21.36l-6.29-.23c-.14,0-.27-.18-.3-.38S120.17,69,120.31,69Z"/><path class="cls-3" d="M100.07,68.2l18.41.67c.14,0,.28.18.31.39s-.06.37-.21.37L100.17,69c-.14,0-.29-.18-.31-.39S99.93,68.19,100.07,68.2Z"/><path class="cls-3" d="M111.16,72.35l24.81.82c.13,0,.27.17.3.38s-.06.36-.2.36l-24.81-.8c-.14,0-.28-.18-.31-.39S111,72.34,111.16,72.35Z"/><path class="cls-3" d="M129,69.26l6.45.24c.14,0,.27.17.3.38s-.05.36-.19.36L129.1,70c-.14,0-.28-.17-.31-.38S128.85,69.26,129,69.26Z"/><path class="cls-8" d="M156.77,38.55c-.66-1.27-1.36-1.77-.73-5.08,2.1-11-7.87-8.78-8.42-5.9-.14.71.13,1.22.9.64,1.29-1,5-1.17,1.27,4.87-1,1.59-3.84,3.22.23,7.66,3.68,4-.27,4.13-.38,5.5C149.38,49.77,160,44.81,156.77,38.55Z"/><path class="cls-9" d="M133.62,61.68c-.32,2.31,4.59,59.25,4.59,59.25a2.26,2.26,0,0,0,2.66.08s.92-13.13,2.69-25.51c1.52-10.69,1.3-20.83,2.14-21.5V62.67C141.36,63,135.06,62.31,133.62,61.68Z"/><path class="cls-10" d="M141.15,119.71a7.68,7.68,0,0,1-1.91,0,2,2,0,0,0-.09-.73,11.6,11.6,0,0,0-1.21-.52c.12.62.28,3.81-.34,4.27a4.78,4.78,0,0,1-2.42.58c-1.14,0-1.39.65-1.39.9a.54.54,0,0,0,.59.58h5.55a1.9,1.9,0,0,0,1.68-.5,1,1,0,0,0,.07-.89A28.2,28.2,0,0,1,141.15,119.71Z"/><path class="cls-11" d="M117.58,24.06c-.21-.06-.66.8-.64,1,.19.51.39.62.57,1.12a6.22,6.22,0,0,1,.17-1.6C117.76,24.36,117.91,24.12,117.58,24.06Z"/><path class="cls-11" d="M140.27,36.75c-2.56-.09-10.6,1.75-14.61,1.9-4.93.17-3,3.55-1.54,4,4,1.12,15.42,2.32,16.21.32C140.68,42.08,140.73,36.77,140.27,36.75Z"/><path class="cls-12" d="M140.27,36.75c-1.81-.06-6.43.69-10.35.87a29.87,29.87,0,0,0-.16,4.44c0,.54,0,2.15.11,2.68,4.63.54,9.93-.46,10.46-1.79C140.68,42.08,140.73,36.77,140.27,36.75Z"/><path class="cls-11" d="M125.93,39.77c-1.25-2.47-7.45-10.79-8.34-13.56a9.15,9.15,0,0,1-2.13,1c1.56,4.53,6.71,15.39,8.63,15.3a1.86,1.86,0,0,0,2-2.2A1.64,1.64,0,0,0,125.93,39.77Z"/><path class="cls-11" d="M114,24.26a0,0,0,0,1,0,0c.53,1.16,1.28,2.5,1.5,2.92a4.18,4.18,0,0,0,2.1-.95c-.3-.55-.59-1.42-.84-1.91s-1.08-1.8-1.13-1.89c-.17-.24-.57-.87-.72-1a.56.56,0,0,0-.7-.16c-.09.06-.28.27.13.87a11.33,11.33,0,0,1,.73,1.19s-.5-.11-.5.28c0,0-.43-.13-.46.29C114.11,23.89,113.84,23.93,114,24.26Z"/><path class="cls-13" d="M155.1,61.68c-1.44.63-11.67,2.55-16,2.26a53.38,53.38,0,0,0,1.12,9.2c1.43,5.46,3.33,14.52,4.26,19.24,2.39,12.09,6.83,28.1,6.83,28.1A2.6,2.6,0,0,0,154,120s-.11-21.93-1.09-27C152.12,88.78,155.28,62.94,155.1,61.68Z"/><path class="cls-11" d="M144.43,29.84c-.3.22-3.43,2-4.33,1.83,0,.24.61,3,0,4.39.55,2.21,3.88,1.2,4.88-1A13.85,13.85,0,0,1,144.43,29.84Z"/><path class="cls-11" d="M144.76,26.34c-1.36-.94-2.92-1.43-4-.28-.4.42-2.76,4.86-.85,6.88.81.86,3.68.31,4.43-.78l1-1.5A3,3,0,0,0,144.76,26.34Z"/><path class="cls-14" d="M133.6,99.94c2.47,1.46,6.5,1.39,6.5,1.39l2.46-13.91,2.79,13.91c5.16,1.38,14.28,0,14.28,0s-1.06-5.53-2-14.15-1.54-21.31-1.54-21.31c-.38-3.06-.24-6.19-.57-9.07-.72-6.23-1.29-11.55-1.62-13.9a10,10,0,0,0-.21-1.2c-1-3.13-2.16-4.79-5-5.55C147.77,35.9,145,35,145,35s-2,1.92-3.25,2c-.88.07-1.64-1-1.64-1a38,38,0,0,0-3.76,1.48,5.52,5.52,0,0,0-2.3,4.39c-.06.56-.09,1.11-.12,1.64-.21,3.28-.4,6.11-.58,8.56-.43,5.75-.3,8-.5,10.39-.1.51-.05,2.47-.08,3.06C131.8,81.59,133.6,99.94,133.6,99.94Z"/><path class="cls-8" d="M148.36,27.52c-1-3.1-5.33-3-5.33-3-2.71-1-4.31,2.9-3.5,4.08,1-2.94,3.32-2.73,3.32-2.73,3.33,1.92,2.14,6.54,1.31,7.43C144.16,33.28,149.79,32.19,148.36,27.52Z"/><path class="cls-11" d="M145.64,30a1.37,1.37,0,0,0-.76-.16,21.25,21.25,0,0,0-.37,2.13,1.59,1.59,0,0,0,1.41-.61A1.12,1.12,0,0,0,145.64,30Z"/><path class="cls-15" d="M148.91,26.66a1,1,0,0,0-.48-.48,1.36,1.36,0,0,0-.93-.08,5.83,5.83,0,0,1,1.09,2.35A1.21,1.21,0,0,0,148.91,26.66Z"/><path class="cls-10" d="M154,119.55a8.3,8.3,0,0,1-1.9.15,1.9,1.9,0,0,0-.14-.72,11.36,11.36,0,0,0-1.23-.45c.15.6.51,3.78-.09,4.28a4.78,4.78,0,0,1-2.38.72c-1.14.07-1.35.73-1.33,1a.54.54,0,0,0,.62.55l5.53-.34c.59,0,1.19,0,1.65-.6a1,1,0,0,0,0-.89A29.3,29.3,0,0,1,154,119.55Z"/><path class="cls-16" d="M133.37,52.13l2.06,8.45A1.89,1.89,0,0,0,137.24,62h10.29c.79,0,.84-.61.79-.83L143.79,42.8a1.16,1.16,0,0,0-1.17-.86h-8.55c-.06.56-.09,1.11-.12,1.64C133.74,46.85,133.55,49.68,133.37,52.13Z"/><path class="cls-17" d="M144.64,41.82l4.52,18.33c.05.21,0,.82-.79.82l-7.8-.16-1.34-19.87h4.24A1.18,1.18,0,0,1,144.64,41.82Z"/><path class="cls-18" d="M132.2,40.94h10.87a.4.4,0,0,1,.37.28l4.75,19.27a.39.39,0,0,1-.37.48h-9.74a1.88,1.88,0,0,1-1.81-1.38l-4.44-18.17A.38.38,0,0,1,132.2,40.94Z"/><path class="cls-16" d="M135.36,54.06c-.06.31.74.3.7.38-.12.29-.5.67.58.3.05,0,1.58-.24,2.74-.43,4.07,1.23,13,3,16.1,2.49-.72-6.23-1.29-11.55-1.62-13.9a13,13,0,0,0-2.53-3.36c-2.94-2.24-6.17-.68-6,1.64.15,1.8,2.71,6.87,4.66,10.28a8.85,8.85,0,0,0,1-.21q.62.9,1.14,1.74c-4.18-.22-10.46-.36-12.55-1.05h0l-.39,0a4.47,4.47,0,0,1-1.35-.34c-.23-.12-.45-.3-.56,0,0,.13.22.38.49.57-.69.16-1.82.53-1.91.56-.28.1-.26.16-.45.31a1.29,1.29,0,0,0-.33.66A.39.39,0,0,0,135.36,54.06Z"/><path class="cls-11" d="M138.67,50.15c-.23-.11-.44-.3-.55,0s.7.76.92.78c.53-.12.46-.43,1-.47A4.62,4.62,0,0,1,138.67,50.15Z"/><path class="cls-11" d="M140.42,50.46a11.56,11.56,0,0,0-1.61.23c-.63.13-2,.58-2.12.61-.27.11-.26.17-.44.31a1.16,1.16,0,0,0-.33.66.37.37,0,0,0,.26.32c-.06.31.74.3.71.38-.13.3-.5.68.58.3.06,0,2.89-.42,3.78-.63A11.56,11.56,0,0,0,140.42,50.46Z"/><path class="cls-11" d="M146.07,41c1.08,2.31,5.92,8.62,7.88,12.12,2.4,4.31,4.55,1.09,4.24-.45-.81-4-5-14.08-6.64-14.56C150.66,37.86,145.87,40.59,146.07,41Z"/><path class="cls-19" d="M145.36,41.18c.15,1.8,3.54,5.4,5.48,8.81a13.22,13.22,0,0,0,6.37-3.2c-1.63-4.36-3.91-7.85-5.06-8.72C149.21,35.83,145.15,38.86,145.36,41.18Z"/><path class="cls-11" d="M156.77,52a2,2,0,0,0-.5-.18c-2.72-.46-13.1-.39-15.86-1.32a9.12,9.12,0,0,1-.49,2.28c4.57,1.43,16.37,3.72,17.44,2.13A1.87,1.87,0,0,0,156.77,52Z"/><polygon class="cls-20" points="7.46 76.26 12.61 67.28 12.61 62.88 15.1 62.88 15.12 67.28 20.23 76.26 7.46 76.26"/><polygon class="cls-21" points="15.29 69.52 18.52 75.19 9.17 75.19 12.42 69.52 15.29 69.52"/><rect class="cls-6" x="11.93" y="62.51" width="3.82" height="0.74" transform="translate(27.69 125.76) rotate(180)"/><polygon class="cls-22" points="64 76.38 70.28 65.43 70.28 55.78 73.32 55.78 73.33 65.43 79.57 76.38 64 76.38"/><polygon class="cls-23" points="73.55 68.16 77.48 75.07 66.08 75.07 70.05 68.16 73.55 68.16"/><rect class="cls-6" x="69.45" y="55.33" width="4.66" height="0.9" transform="translate(143.57 111.57) rotate(180)"/><path class="cls-20" d="M21.6,49.54v-5h3.14v5a4.64,4.64,0,1,1-3.14,0Z"/><path class="cls-6" d="M22.36,50.83V47.36H24v3.47a3.19,3.19,0,1,1-1.6,0Z"/><rect class="cls-6" x="21" y="43.95" width="4.31" height="0.83" transform="translate(46.32 88.74) rotate(180)"/><rect class="cls-6" x="41.57" y="54.35" width="2.6" height="1.5" transform="translate(112.14 63.76) rotate(135.01)"/><path class="cls-20" d="M44.42,69.05a8.77,8.77,0,1,0,0-12.4A8.78,8.78,0,0,0,44.42,69.05Z"/><path class="cls-21" d="M57.13,62.33a6.53,6.53,0,1,1-13,0Z"/><rect class="cls-20" x="42.35" y="54.58" width="3.39" height="3.39" transform="translate(114.98 64.93) rotate(135.01)"/><path class="cls-8" d="M41.15,64.32h19.3a.34.34,0,0,0,0-.67H41.15a.34.34,0,0,0,0,.67Z"/><path class="cls-8" d="M50.8,76.36a.34.34,0,0,0,.34-.33V64a.34.34,0,0,0-.67,0V76A.33.33,0,0,0,50.8,76.36Z"/><path class="cls-8" d="M63.05,76.36l.1,0a.32.32,0,0,0,.21-.41L59.53,63.88a.32.32,0,0,0-.41-.21.33.33,0,0,0-.22.41l3.83,12A.34.34,0,0,0,63.05,76.36Z"/><path class="cls-8" d="M38.56,76.36a.34.34,0,0,0,.32-.23l3.83-12a.34.34,0,0,0-.64-.2L38.24,75.93a.33.33,0,0,0,.22.41Z"/><path class="cls-8" d="M30.75,76.36a.33.33,0,0,0,.33-.33v-35a.33.33,0,0,0-.33-.33.33.33,0,0,0-.33.33V76A.33.33,0,0,0,30.75,76.36Z"/><path class="cls-8" d="M20.8,46.91h10a.33.33,0,0,0,0-.66H20.8a.33.33,0,1,0,0,.66Z"/><polygon class="cls-24" points="2.41 79.76 82.78 79.76 84.82 76.25 0.37 76.25 2.41 79.76"/><polygon class="cls-25" points="84.1 124.95 85.93 124.95 81.64 79.76 77.78 79.76 84.1 124.95"/><polygon class="cls-26" points="78.61 85.07 82.63 89.09 81.64 79.76 77.78 79.76 78.61 85.07"/><polygon class="cls-27" points="74.7 124.95 76.52 124.95 72.24 79.76 68.38 79.76 74.7 124.95"/><polygon class="cls-28" points="1.82 124.95 0 124.95 4.28 79.76 8.14 79.76 1.82 124.95"/><polygon class="cls-26" points="7.48 84 3.64 85.86 4.28 79.76 8.14 79.76 7.48 84"/><polygon class="cls-29" points="10.56 124.95 8.73 124.95 13.02 79.76 16.88 79.76 10.56 124.95"/><polygon class="cls-26" points="69.1 84.42 73.05 87.39 72.24 79.76 68.38 79.76 69.1 84.42"/><polygon class="cls-26" points="16.38 82.98 12.37 85.86 13.02 79.76 16.88 79.76 16.38 82.98"/></g></g></svg>
