<svg xmlns="http://www.w3.org/2000/svg" viewBox="0 0 130.83 180.85">
    <defs>
        <style>
            .cls-1 {
                fill: #500091;
            }

            .cls-2 {
                fill: #380066;
            }
        </style>
    </defs>
    <title>Asset 1</title>
    <g id="Layer_2" data-name="Layer 2">
        <g id="Layer_2-2" data-name="Layer 2">
            <path class="cls-1"
                d="M0,89.87a62.42,62.42,0,0,0,39.49,58q2.31.91,4.7,1.64a62.3,62.3,0,0,0,36.25,0q2.39-.74,4.7-1.65a62.31,62.31,0,0,0,35.35-35.64H97.91A42,42,0,1,1,31,61.88a16.11,16.11,0,0,1-4.83-1.57,46.71,46.71,0,1,0,77.18,51.92h12.1A57.63,57.63,0,0,1,4.69,89.87a57.12,57.12,0,0,1,14-37.61,15.34,15.34,0,0,1-1.22-5.63A61.84,61.84,0,0,0,0,89.87Z" />
            <path class="cls-2"
                d="M9.89,11.79,16,17.91l-5,5a2.37,2.37,0,0,0-.69,1.66A2.34,2.34,0,0,0,11,26.21l9.92,9.92a15.9,15.9,0,0,0-3.5,10,4.78,4.78,0,0,0,0,.54,15.34,15.34,0,0,0,1.22,5.63A16,16,0,0,0,31,61.88h0a16.13,16.13,0,0,0,2.42.18,15.86,15.86,0,0,0,10-3.5L62.68,77.87a2.35,2.35,0,0,0,3.31,0l2.18-2.18L79.91,87.43a2.33,2.33,0,0,0,3.31,0L96.63,74a2.36,2.36,0,0,0,0-3.32L84.88,59l2.18-2.17a2.34,2.34,0,0,0,0-3.32L35.41,1.82a2.34,2.34,0,0,0-3.32,0l-5,5L21,.69a2.33,2.33,0,0,0-3.31,0L9.89,8.47A2.34,2.34,0,0,0,9.89,11.79ZM71.48,72.38h0L81.56,62.3,91.64,72.37,81.56,82.45ZM22.13,46.09a11.28,11.28,0,1,1,19.65,7.56l-.17.17A11.27,11.27,0,0,1,22.2,47.3v0A11.27,11.27,0,0,1,22.13,46.09ZM20.92,19.62l.06-.05L33.75,6.8,82.09,55.14,80,57.24a.27.27,0,0,0-.08.07l-13.4,13.4h0l-2.17,2.17L46.57,55.13a16,16,0,0,0-22.2-22.2L16,24.55Zm-6.06-9.49,4.46-4.46,4.47,4.46-4.47,4.46Z" />
            <polygon class="cls-1" points="71.48 72.37 71.48 72.38 81.56 62.3 71.48 72.37" />
            <path class="cls-1"
                d="M41.84,164.83h41a2.35,2.35,0,0,0,2.35-2.35V146.26a2.35,2.35,0,1,0-4.7,0v13.88H44.19V146.26a2.35,2.35,0,1,0-4.7,0v16.22A2.35,2.35,0,0,0,41.84,164.83Z" />
            <path class="cls-1"
                d="M6,178.5v-3.88a14.49,14.49,0,0,1,14.48-14.48h83.69a14.49,14.49,0,0,1,14.48,14.48v3.88a2.35,2.35,0,0,1-2.35,2.35H8.34A2.35,2.35,0,0,1,6,178.5Zm108-3.88a9.8,9.8,0,0,0-9.79-9.79H20.47a9.8,9.8,0,0,0-9.79,9.79v1.54H114Z" />
            <path class="cls-2"
                d="M87.84,109.86a2.35,2.35,0,0,0,2.35,2.34h38.29a2.35,2.35,0,1,0,0-4.69H90.19A2.35,2.35,0,0,0,87.84,109.86Z" />
        </g>
    </g>
</svg>
