<svg xmlns="http://www.w3.org/2000/svg" xmlns:xlink="http://www.w3.org/1999/xlink" viewBox="0 0 35.9 51.25"><defs><style>.cls-1{fill:url(#linear-gradient);}.cls-2{fill:#6bbbdb;}.cls-3{fill:url(#linear-gradient-2);}.cls-4{fill:url(#linear-gradient-3);}.cls-5{fill:#6816d3;}.cls-6,.cls-7{fill:#fff;}.cls-6{opacity:0.27;}</style><linearGradient id="linear-gradient" x1="12.04" y1="9.78" x2="24.49" y2="9.78" gradientTransform="translate(36.65 19.32) rotate(179.24)" gradientUnits="userSpaceOnUse"><stop offset="0" stop-color="#cbeeff"/><stop offset="1" stop-color="#78bbf1"/></linearGradient><linearGradient id="linear-gradient-2" x1="9.94" y1="1.94" x2="26.79" y2="1.94" gradientTransform="matrix(1, 0, 0, 1, 0, 0)" xlink:href="#linear-gradient"/><linearGradient id="linear-gradient-3" x1="0" y1="33.3" x2="35.9" y2="33.3" gradientTransform="matrix(1, 0, 0, 1, 0, 0)" xlink:href="#linear-gradient"/></defs><title>why-us-2</title><g id="Layer_2" data-name="Layer 2"><g id="Layer_1-2" data-name="Layer 1"><rect class="cls-1" x="12.16" y="0.68" width="12.21" height="18.2" transform="translate(36.39 19.81) rotate(-179.24)"/><rect class="cls-2" x="12.24" y="0.68" width="12.21" height="5.54" transform="matrix(-1, -0.01, 0.01, -1, 36.65, 7.15)"/><path class="cls-3" d="M11.77,3.71l13.15.17a1.85,1.85,0,0,0,1.87-1.83h0A1.85,1.85,0,0,0,25,.17L11.82,0A1.86,1.86,0,0,0,9.94,1.83h0A1.87,1.87,0,0,0,11.77,3.71Z"/><path class="cls-4" d="M35.9,33.54A18,18,0,1,0,17.71,51.25,17.95,17.95,0,0,0,35.9,33.54Z"/><path class="cls-5" d="M7.74,24.86a13.25,13.25,0,1,0,20.64.28Z"/><rect class="cls-2" x="14.86" y="7.8" width="9.52" height="0.73" transform="translate(0.11 -0.26) rotate(0.76)"/><rect class="cls-2" x="18.26" y="9.92" width="6.1" height="0.73" transform="translate(0.14 -0.28) rotate(0.76)"/><rect class="cls-2" x="14.81" y="12" width="9.53" height="0.73" transform="translate(0.17 -0.26) rotate(0.76)"/><rect class="cls-2" x="18.2" y="14.13" width="6.1" height="0.73" transform="translate(0.2 -0.28) rotate(0.77)"/><path class="cls-6" d="M24.28,16.5l.17-12.62-7.56-.11L16.74,15.4A17.95,17.95,0,0,1,8.32,48.45a18,18,0,1,0,16-31.95Z"/><path class="cls-7" d="M31,36.12l-.15,0a.78.78,0,0,1-.62-.92c1-5.11-2.45-9.51-2.49-9.55a.79.79,0,0,1,1.24-1c.16.21,3.92,5,2.8,10.84A.79.79,0,0,1,31,36.12Z"/><path class="cls-7" d="M22.76,46.5a.8.8,0,0,1-.74-.56.78.78,0,0,1,.52-1,11,11,0,0,0,4.23-3A.79.79,0,0,1,28,43a12.62,12.62,0,0,1-5,3.44A.67.67,0,0,1,22.76,46.5Z"/></g></g></svg>