<svg xmlns="http://www.w3.org/2000/svg" xmlns:xlink="http://www.w3.org/1999/xlink" viewBox="0 0 112.4 99.69"><defs><style>.cls-1{fill:#fff;}.cls-2{fill:url(#linear-gradient);}.cls-3{fill:#2047e7;}.cls-4{fill:url(#linear-gradient-2);}.cls-5{fill:url(#linear-gradient-3);}.cls-6{fill:url(#linear-gradient-4);}.cls-7{fill:#58005f;}.cls-8{fill:url(#linear-gradient-5);}.cls-9{fill:url(#linear-gradient-6);}.cls-10{fill:url(#linear-gradient-7);}.cls-11{fill:url(#linear-gradient-8);}.cls-12{fill:url(#linear-gradient-9);}.cls-13{fill:url(#linear-gradient-10);}.cls-14{fill:url(#linear-gradient-11);}.cls-15{fill:url(#linear-gradient-12);}.cls-16{fill:url(#linear-gradient-13);}.cls-17{fill:url(#linear-gradient-14);}.cls-18{fill:url(#linear-gradient-15);}.cls-19{fill:url(#linear-gradient-16);}.cls-20{fill:url(#linear-gradient-17);}.cls-21{fill:url(#linear-gradient-18);}.cls-22{fill:url(#linear-gradient-19);}.cls-23{fill:url(#linear-gradient-20);}.cls-24{fill:url(#linear-gradient-21);}.cls-25{fill:url(#linear-gradient-22);}.cls-26{fill:url(#linear-gradient-23);}.cls-27{fill:url(#linear-gradient-24);}.cls-28{fill:url(#linear-gradient-25);}.cls-29{fill:url(#linear-gradient-26);}.cls-30{fill:url(#linear-gradient-27);}.cls-31{fill:url(#linear-gradient-28);}.cls-32{fill:url(#linear-gradient-29);}.cls-33{fill:url(#linear-gradient-30);}.cls-34{fill:url(#linear-gradient-31);}.cls-35{fill:url(#linear-gradient-32);}.cls-36{fill:url(#linear-gradient-33);}.cls-37{fill:url(#linear-gradient-34);}.cls-38{fill:url(#linear-gradient-35);}.cls-39{fill:url(#linear-gradient-36);}.cls-40{fill:url(#linear-gradient-37);}.cls-41{fill:url(#linear-gradient-38);}.cls-42{fill:url(#linear-gradient-39);}.cls-43{fill:url(#linear-gradient-40);}.cls-44{fill:url(#linear-gradient-41);}.cls-45{fill:url(#linear-gradient-42);}.cls-46{fill:url(#linear-gradient-43);}.cls-47{fill:url(#linear-gradient-44);}.cls-48{fill:url(#linear-gradient-45);}.cls-49{fill:#006bff;}.cls-50{fill:#005fc6;}.cls-51{fill:url(#linear-gradient-46);}.cls-52{fill:url(#linear-gradient-47);}.cls-53{fill:#ffb2a6;}.cls-54{fill:#1a1c91;}.cls-55{fill:#101127;}.cls-56{fill:url(#linear-gradient-48);}.cls-57{fill:#9cb9fb;}.cls-58{fill:url(#linear-gradient-49);}.cls-59{fill:url(#linear-gradient-50);}.cls-60{fill:url(#linear-gradient-51);}.cls-61{fill:#6bbbdb;}.cls-62{fill:url(#linear-gradient-52);}.cls-63{fill:#6816d3;}.cls-64{fill:#4f00b5;}.cls-65{fill:#d7e4ff;}</style><linearGradient id="linear-gradient" x1="65.3" y1="41.78" x2="77.23" y2="41.78" gradientUnits="userSpaceOnUse"><stop offset="0" stop-color="#00deff"/><stop offset="1" stop-color="#007fff"/></linearGradient><linearGradient id="linear-gradient-2" x1="68.98" y1="42.56" x2="78.73" y2="42.56" gradientUnits="userSpaceOnUse"><stop offset="0" stop-color="#5792ff"/><stop offset="1" stop-color="#273dca"/></linearGradient><linearGradient id="linear-gradient-3" x1="47.63" y1="22.84" x2="95.33" y2="22.84" xlink:href="#linear-gradient-2"/><linearGradient id="linear-gradient-4" x1="46.36" y1="22.84" x2="94.07" y2="22.84" xlink:href="#linear-gradient"/><linearGradient id="linear-gradient-5" x1="47.92" y1="22.84" x2="92.5" y2="22.84" gradientUnits="userSpaceOnUse"><stop offset="0" stop-color="#cbeeff"/><stop offset="1" stop-color="#78bbf1"/></linearGradient><linearGradient id="linear-gradient-6" x1="59.53" y1="10.19" x2="83.42" y2="10.19" gradientUnits="userSpaceOnUse"><stop offset="0" stop-color="#273dca"/><stop offset="1" stop-color="#5792ff"/></linearGradient><linearGradient id="linear-gradient-7" x1="51.11" y1="10.3" x2="52.1" y2="10.3" xlink:href="#linear-gradient-6"/><linearGradient id="linear-gradient-8" x1="51.03" y1="10.3" x2="52.17" y2="10.3" xlink:href="#linear-gradient-6"/><linearGradient id="linear-gradient-9" x1="52.76" y1="10.3" x2="53.97" y2="10.3" xlink:href="#linear-gradient-6"/><linearGradient id="linear-gradient-10" x1="54.48" y1="10.74" x2="55.7" y2="10.74" xlink:href="#linear-gradient-6"/><linearGradient id="linear-gradient-11" x1="54.9" y1="16.76" x2="87.48" y2="18.64" xlink:href="#linear-gradient-6"/><linearGradient id="linear-gradient-12" x1="54.93" y1="16.28" x2="87.51" y2="18.16" xlink:href="#linear-gradient-6"/><linearGradient id="linear-gradient-13" x1="54.96" y1="15.76" x2="87.54" y2="17.63" xlink:href="#linear-gradient-6"/><linearGradient id="linear-gradient-14" x1="54.77" y1="19.09" x2="87.35" y2="20.97" xlink:href="#linear-gradient-6"/><linearGradient id="linear-gradient-15" x1="55.1" y1="13.37" x2="87.68" y2="15.25" xlink:href="#linear-gradient-6"/><linearGradient id="linear-gradient-16" x1="54.9" y1="16.71" x2="87.5" y2="18.58" xlink:href="#linear-gradient-6"/><linearGradient id="linear-gradient-17" x1="54.91" y1="16.65" x2="87.48" y2="18.53" xlink:href="#linear-gradient-6"/><linearGradient id="linear-gradient-18" x1="54.91" y1="16.6" x2="87.48" y2="18.48" xlink:href="#linear-gradient-6"/><linearGradient id="linear-gradient-19" x1="54.92" y1="16.4" x2="87.5" y2="18.27" xlink:href="#linear-gradient-6"/><linearGradient id="linear-gradient-20" x1="54.92" y1="16.45" x2="87.5" y2="18.32" xlink:href="#linear-gradient-6"/><linearGradient id="linear-gradient-21" x1="54.91" y1="16.5" x2="87.5" y2="18.37" xlink:href="#linear-gradient-6"/><linearGradient id="linear-gradient-22" x1="54.92" y1="16.55" x2="87.49" y2="18.42" xlink:href="#linear-gradient-6"/><linearGradient id="linear-gradient-23" x1="54.93" y1="16.17" x2="87.52" y2="18.05" xlink:href="#linear-gradient-6"/><linearGradient id="linear-gradient-24" x1="54.94" y1="16.12" x2="87.52" y2="18" xlink:href="#linear-gradient-6"/><linearGradient id="linear-gradient-25" x1="54.95" y1="16.07" x2="87.52" y2="17.95" xlink:href="#linear-gradient-6"/><linearGradient id="linear-gradient-26" x1="54.96" y1="15.87" x2="87.53" y2="17.74" xlink:href="#linear-gradient-6"/><linearGradient id="linear-gradient-27" x1="54.95" y1="15.92" x2="87.53" y2="17.79" xlink:href="#linear-gradient-6"/><linearGradient id="linear-gradient-28" x1="54.94" y1="15.97" x2="87.53" y2="17.84" xlink:href="#linear-gradient-6"/><linearGradient id="linear-gradient-29" x1="54.95" y1="16.02" x2="87.52" y2="17.89" xlink:href="#linear-gradient-6"/><linearGradient id="linear-gradient-30" x1="54.97" y1="15.65" x2="87.54" y2="17.53" xlink:href="#linear-gradient-6"/><linearGradient id="linear-gradient-31" x1="54.95" y1="15.6" x2="87.55" y2="17.48" xlink:href="#linear-gradient-6"/><linearGradient id="linear-gradient-32" x1="54.98" y1="15.55" x2="87.55" y2="17.43" xlink:href="#linear-gradient-6"/><linearGradient id="linear-gradient-33" x1="54.99" y1="15.35" x2="87.56" y2="17.22" xlink:href="#linear-gradient-6"/><linearGradient id="linear-gradient-34" x1="54.99" y1="15.4" x2="87.56" y2="17.27" xlink:href="#linear-gradient-6"/><linearGradient id="linear-gradient-35" x1="54.98" y1="15.45" x2="87.56" y2="17.32" xlink:href="#linear-gradient-6"/><linearGradient id="linear-gradient-36" x1="54.98" y1="15.5" x2="87.55" y2="17.37" xlink:href="#linear-gradient-6"/><linearGradient id="linear-gradient-37" x1="54.89" y1="16.92" x2="87.49" y2="18.8" xlink:href="#linear-gradient-6"/><linearGradient id="linear-gradient-38" x1="54.89" y1="16.97" x2="87.47" y2="18.85" xlink:href="#linear-gradient-6"/><linearGradient id="linear-gradient-39" x1="54.89" y1="17.03" x2="87.46" y2="18.9" xlink:href="#linear-gradient-6"/><linearGradient id="linear-gradient-40" x1="54.88" y1="17.08" x2="87.48" y2="18.95" xlink:href="#linear-gradient-6"/><linearGradient id="linear-gradient-41" x1="57.5" y1="33.94" x2="58.98" y2="33.94" xlink:href="#linear-gradient-6"/><linearGradient id="linear-gradient-42" x1="61.71" y1="22.64" x2="62.59" y2="22.64" xlink:href="#linear-gradient-6"/><linearGradient id="linear-gradient-43" x1="57.88" y1="28.2" x2="59.79" y2="28.2" xlink:href="#linear-gradient-6"/><linearGradient id="linear-gradient-44" x1="63.6" y1="26.31" x2="65.08" y2="26.31" xlink:href="#linear-gradient-6"/><linearGradient id="linear-gradient-45" x1="51.75" y1="25.31" x2="52.62" y2="25.31" xlink:href="#linear-gradient-6"/><linearGradient id="linear-gradient-46" x1="43.56" y1="46.03" x2="84.92" y2="46.03" xlink:href="#linear-gradient"/><linearGradient id="linear-gradient-47" x1="84.75" y1="45.69" x2="98.57" y2="45.69" xlink:href="#linear-gradient-2"/><linearGradient id="linear-gradient-48" x1="33.4" y1="76.22" x2="52.64" y2="76.22" xlink:href="#linear-gradient"/><linearGradient id="linear-gradient-49" x1="26.82" y1="29.85" x2="57.24" y2="29.85" xlink:href="#linear-gradient-5"/><linearGradient id="linear-gradient-50" x1="52.87" y1="75.76" x2="72.11" y2="75.76" xlink:href="#linear-gradient"/><linearGradient id="linear-gradient-51" x1="20.51" y1="47.88" x2="72.51" y2="47.88" xlink:href="#linear-gradient-5"/><linearGradient id="linear-gradient-52" x1="39.17" y1="31.46" x2="69.6" y2="31.46" xlink:href="#linear-gradient-5"/></defs><title>section-2</title><g id="Layer_2" data-name="Layer 2"><g id="Layer_1-2" data-name="Layer 1"><path class="cls-1" d="M60.47,46.08a.78.78,0,0,0,.78.78h8.84V45.29H61.25A.78.78,0,0,0,60.47,46.08Z"/><path class="cls-2" d="M74.52,38.26H65.6l-.29,3a1.53,1.53,0,0,0,.43,1.22l2.84,2.83h8.65l-2.83-3.4Z"/><polygon class="cls-3" points="65.47 39.57 74.48 39.57 74.52 38.26 65.6 38.26 65.47 39.57"/><path class="cls-4" d="M75.37,41.35l.31-3.09H74.11l-.29,3a1.54,1.54,0,0,0,.44,1.22l2.84,2.83H69.77a.79.79,0,1,0,0,1.57h7.45a1.52,1.52,0,0,0,1.48-1.21,1.6,1.6,0,0,0-.46-1.43Z"/><path class="cls-5" d="M92.72,7.39H52.48a2.61,2.61,0,0,0-2.6,2.38L47.64,35.45a2.61,2.61,0,0,0,2.6,2.84H90.48a2.62,2.62,0,0,0,2.6-2.39l2.24-25.67A2.61,2.61,0,0,0,92.72,7.39Z"/><path class="cls-6" d="M91.45,7.39H51.21a2.61,2.61,0,0,0-2.56,2.12c0,.09,0,.17,0,.27L46.37,35.45A2.61,2.61,0,0,0,49,38.29H89.21a2.61,2.61,0,0,0,2.61-2.39l2.24-25.67A2.62,2.62,0,0,0,91.45,7.39Z"/><path class="cls-7" d="M91.45,9H51.21a1,1,0,0,0-1,1L50,11.43,47.93,35.59a1,1,0,0,0,.27.8,1,1,0,0,0,.77.34H89.21a1,1,0,0,0,1.05-1l2.12-24.34.12-1.33a1.12,1.12,0,0,0-.27-.81A1.1,1.1,0,0,0,91.45,9Z"/><path class="cls-8" d="M91.45,9H51.21a1,1,0,0,0-1,1L47.93,35.59a1,1,0,0,0,.27.8,1.07,1.07,0,0,0,.77.34H89.21a1,1,0,0,0,1.05-1L92.5,10.1a1.06,1.06,0,0,0-.28-.81A1,1,0,0,0,91.45,9Z"/><polygon class="cls-9" points="59.53 10.84 83.29 10.84 83.42 9.55 59.67 9.55 59.53 10.84"/><path class="cls-10" d="M51.26,9.79a.09.09,0,0,0-.12,0,.09.09,0,0,0,0,.13l.81.89a.09.09,0,0,0,.12,0,.09.09,0,0,0,0-.13Z"/><path class="cls-11" d="M52,9.79l-1,.89a.09.09,0,0,0,0,.13.1.1,0,0,0,.13,0l1-.89a.09.09,0,0,0,0-.13A.09.09,0,0,0,52,9.79Z"/><path class="cls-12" d="M53.42,9.7a.67.67,0,0,0-.65.6.54.54,0,0,0,.54.6.67.67,0,0,0,.65-.6A.54.54,0,0,0,53.42,9.7Zm-.1,1.06a.42.42,0,0,1-.42-.46.51.51,0,0,1,.51-.46.42.42,0,0,1,.42.46A.51.51,0,0,1,53.32,10.76Z"/><path class="cls-13" d="M55.64,10.67H54.56a.08.08,0,0,0-.08.07.07.07,0,0,0,.07.06h1.07a.09.09,0,0,0,.08-.06A.07.07,0,0,0,55.64,10.67Z"/><path class="cls-1" d="M90.57,10.63H89.49a.08.08,0,0,0-.07.07.06.06,0,0,0,.06.06h1.08a.07.07,0,0,0,.07-.06A.06.06,0,0,0,90.57,10.63Z"/><path class="cls-1" d="M90.61,10.23H89.53a.08.08,0,0,0-.08.07.07.07,0,0,0,.07.07h1.07a.08.08,0,0,0,.08-.07A.07.07,0,0,0,90.61,10.23Z"/><path class="cls-1" d="M90.64,9.84H89.56s-.07,0-.07.06,0,.07.06.07h1.08a.07.07,0,0,0,.07-.07S90.68,9.84,90.64,9.84Z"/><path class="cls-1" d="M82.18,23.07H71.42c-.15,0-.28.19-.29.42s.1.42.25.42H82.14c.15,0,.28-.19.29-.42S82.33,23.07,82.18,23.07Z"/><path class="cls-1" d="M77.3,26.2H66.82a.24.24,0,0,0-.22.21.19.19,0,0,0,.19.2H77.27a.23.23,0,0,0,.22-.2A.19.19,0,0,0,77.3,26.2Z"/><path class="cls-1" d="M77.18,27.87H66.7a.23.23,0,0,0-.22.2.2.2,0,0,0,.19.21H77.15a.21.21,0,0,0,.22-.21A.19.19,0,0,0,77.18,27.87Z"/><path class="cls-1" d="M77.07,29.54H66.59a.22.22,0,0,0-.22.2.19.19,0,0,0,.19.2H77a.23.23,0,0,0,.22-.2A.19.19,0,0,0,77.07,29.54Z"/><path class="cls-1" d="M77,31.2H66.47a.23.23,0,0,0-.22.21.19.19,0,0,0,.19.2H76.92a.23.23,0,0,0,.22-.2A.19.19,0,0,0,77,31.2Z"/><path class="cls-1" d="M76.41,32.87H74.32a.22.22,0,0,0-.22.2.19.19,0,0,0,.19.21h2.09a.24.24,0,0,0,.22-.21A.19.19,0,0,0,76.41,32.87Z"/><path class="cls-1" d="M72.76,32.87H70.67a.23.23,0,0,0-.22.2.19.19,0,0,0,.19.21h2.09a.24.24,0,0,0,.22-.21A.19.19,0,0,0,72.76,32.87Z"/><path class="cls-1" d="M69.11,32.87H67a.23.23,0,0,0-.22.2.19.19,0,0,0,.19.21h2.09a.24.24,0,0,0,.22-.21A.19.19,0,0,0,69.11,32.87Z"/><path class="cls-1" d="M76.72,34.53H66.24a.24.24,0,0,0-.22.21.19.19,0,0,0,.19.2H76.69a.23.23,0,0,0,.22-.2A.19.19,0,0,0,76.72,34.53Z"/><path class="cls-1" d="M89,30.06H84.69a.33.33,0,0,0-.32.3.28.28,0,0,0,.28.31h4.26a.33.33,0,0,0,.32-.31A.27.27,0,0,0,89,30.06Z"/><path class="cls-1" d="M89.05,28.62H84.79a.33.33,0,0,0-.32.3.28.28,0,0,0,.28.31H89a.34.34,0,0,0,.33-.31A.29.29,0,0,0,89.05,28.62Z"/><path class="cls-1" d="M89.16,27.18H84.89a.33.33,0,0,0-.32.3.27.27,0,0,0,.28.3h4.26a.33.33,0,0,0,.33-.3A.28.28,0,0,0,89.16,27.18Z"/><path class="cls-1" d="M89.26,25.74H85a.33.33,0,0,0-.32.3.27.27,0,0,0,.28.3h4.26a.33.33,0,0,0,.33-.3A.28.28,0,0,0,89.26,25.74Z"/><path class="cls-1" d="M82.26,25.74H81a.34.34,0,0,0-.33.3.28.28,0,0,0,.28.3h1.3a.33.33,0,0,0,.32-.3A.28.28,0,0,0,82.26,25.74Z"/><path class="cls-1" d="M82,28.93h-1.3a.33.33,0,0,0-.32.3.28.28,0,0,0,.28.3H82a.33.33,0,0,0,.32-.3A.28.28,0,0,0,82,28.93Z"/><path class="cls-14" d="M67.61,18c-1.12,1.37-2.28,2-3.44,1.95-1.81-.12-3.21-2-3.89-3a7.88,7.88,0,0,0-5-3.57.39.39,0,0,0-.44.32.38.38,0,0,0,.32.43,7.3,7.3,0,0,1,4.52,3.22c1.29,2.09,2.88,3.3,4.48,3.4h.24A5.1,5.1,0,0,0,68.2,18.5a.38.38,0,0,0-.59-.48Z"/><path class="cls-15" d="M77.08,18C76,19.39,74.8,20,73.64,20c-1.81-.12-3.21-2-3.88-3-1.31-2.1-3.05-3.35-4.78-3.43s-3.09.8-4.44,2.59a.38.38,0,1,0,.6.46c1.2-1.58,2.48-2.35,3.8-2.29s3,1.22,4.17,3.07c1.29,2.09,2.89,3.3,4.48,3.4h.24a5.09,5.09,0,0,0,3.84-2.23.37.37,0,0,0,0-.53A.38.38,0,0,0,77.08,18Z"/><path class="cls-16" d="M86.27,18C85.15,19.39,84,20,82.83,20c-1.82-.12-3.22-2-3.89-3-1.29-2.07-3-3.32-4.72-3.43-1.52-.09-3,.69-4.28,2.31a.38.38,0,0,0,0,.54.39.39,0,0,0,.54-.06c1.15-1.42,2.38-2.11,3.65-2,1.44.09,3,1.24,4.11,3.07,1.3,2.09,2.89,3.3,4.49,3.4H83a5.09,5.09,0,0,0,3.84-2.23.38.38,0,0,0-.58-.48Z"/><path class="cls-17" d="M59,17.81S57,20,55.29,20a.38.38,0,0,0-.36.39.37.37,0,0,0,.38.37h0c2-.07,4.12-2.37,4.21-2.47a.38.38,0,1,0-.56-.51Z"/><path class="cls-18" d="M83.4,13.34c-2,.07-4.13,2.37-4.21,2.47a.38.38,0,0,0,.56.51s2-2.16,3.68-2.22a.38.38,0,0,0,.36-.4A.37.37,0,0,0,83.4,13.34Z"/><path class="cls-19" d="M61.93,16.32a.24.24,0,0,0-.24.24v1.1a.24.24,0,0,0,.24.24.24.24,0,0,0,.24-.24v-1.1A.24.24,0,0,0,61.93,16.32Z"/><path class="cls-20" d="M62.82,15.43a.24.24,0,0,0-.24.24v2.88a.24.24,0,0,0,.48,0V15.67A.24.24,0,0,0,62.82,15.43Z"/><path class="cls-21" d="M63.71,14.86a.24.24,0,0,0-.24.24v4a.24.24,0,0,0,.24.24.23.23,0,0,0,.24-.24v-4A.24.24,0,0,0,63.71,14.86Z"/><path class="cls-22" d="M67.29,16.32a.24.24,0,0,0-.24.24v1.1a.24.24,0,1,0,.48,0v-1.1A.24.24,0,0,0,67.29,16.32Z"/><path class="cls-23" d="M66.39,15.43a.24.24,0,0,0-.24.24v2.88a.24.24,0,0,0,.24.24.24.24,0,0,0,.24-.24V15.67A.24.24,0,0,0,66.39,15.43Z"/><path class="cls-24" d="M65.5,14.86a.24.24,0,0,0-.24.24v4a.24.24,0,1,0,.48,0v-4A.24.24,0,0,0,65.5,14.86Z"/><path class="cls-25" d="M64.61,14.52a.24.24,0,0,0-.24.24v4.7a.24.24,0,0,0,.24.24.24.24,0,0,0,.24-.24v-4.7A.24.24,0,0,0,64.61,14.52Z"/><path class="cls-26" d="M71.18,16.32a.24.24,0,0,0-.24.24v1.1a.24.24,0,0,0,.24.24.24.24,0,0,0,.24-.24v-1.1A.24.24,0,0,0,71.18,16.32Z"/><path class="cls-27" d="M72.07,15.43a.24.24,0,0,0-.24.24v2.88a.24.24,0,0,0,.48,0V15.67A.24.24,0,0,0,72.07,15.43Z"/><path class="cls-28" d="M73,14.86a.24.24,0,0,0-.24.24v4a.24.24,0,0,0,.24.24.23.23,0,0,0,.24-.24v-4A.24.24,0,0,0,73,14.86Z"/><path class="cls-29" d="M76.54,16.32a.24.24,0,0,0-.24.24v1.1a.24.24,0,1,0,.48,0v-1.1A.24.24,0,0,0,76.54,16.32Z"/><path class="cls-30" d="M75.65,15.43a.25.25,0,0,0-.25.24v2.88a.25.25,0,0,0,.25.24.23.23,0,0,0,.23-.24V15.67A.23.23,0,0,0,75.65,15.43Z"/><path class="cls-31" d="M74.75,14.86a.24.24,0,0,0-.24.24v4a.24.24,0,0,0,.48,0v-4A.24.24,0,0,0,74.75,14.86Z"/><path class="cls-32" d="M73.86,14.52a.24.24,0,0,0-.24.24v4.7a.24.24,0,0,0,.24.24.24.24,0,0,0,.24-.24v-4.7A.24.24,0,0,0,73.86,14.52Z"/><path class="cls-33" d="M80.27,16.32a.24.24,0,0,0-.24.24v1.1a.24.24,0,0,0,.48,0v-1.1A.24.24,0,0,0,80.27,16.32Z"/><path class="cls-34" d="M81.16,15.43a.24.24,0,0,0-.24.24v2.88a.24.24,0,0,0,.24.24.24.24,0,0,0,.24-.24V15.67A.24.24,0,0,0,81.16,15.43Z"/><path class="cls-35" d="M82.06,14.86a.24.24,0,0,0-.24.24v4a.24.24,0,1,0,.48,0v-4A.24.24,0,0,0,82.06,14.86Z"/><path class="cls-36" d="M85.63,16.32a.24.24,0,0,0-.24.24v1.1a.24.24,0,0,0,.24.24.24.24,0,0,0,.24-.24v-1.1A.24.24,0,0,0,85.63,16.32Z"/><path class="cls-37" d="M84.74,15.43a.24.24,0,0,0-.24.24v2.88a.24.24,0,0,0,.48,0V15.67A.24.24,0,0,0,84.74,15.43Z"/><path class="cls-38" d="M83.84,14.86a.23.23,0,0,0-.23.24v4a.23.23,0,0,0,.23.24.24.24,0,0,0,.25-.24v-4A.25.25,0,0,0,83.84,14.86Z"/><path class="cls-39" d="M83,14.52a.24.24,0,0,0-.24.24v4.7a.24.24,0,1,0,.48,0v-4.7A.24.24,0,0,0,83,14.52Z"/><path class="cls-40" d="M58.12,16.32a.25.25,0,0,0-.25.24v1.1a.25.25,0,0,0,.49,0v-1.1A.24.24,0,0,0,58.12,16.32Z"/><path class="cls-41" d="M57.22,15.43a.24.24,0,0,0-.24.24v2.88a.24.24,0,0,0,.48,0V15.67A.24.24,0,0,0,57.22,15.43Z"/><path class="cls-42" d="M56.33,14.86a.24.24,0,0,0-.24.24v4a.23.23,0,0,0,.24.24.24.24,0,0,0,.24-.24v-4A.24.24,0,0,0,56.33,14.86Z"/><path class="cls-43" d="M55.43,14.52a.24.24,0,0,0-.24.24v4.7a.24.24,0,0,0,.24.24.24.24,0,0,0,.24-.24v-4.7A.24.24,0,0,0,55.43,14.52Z"/><rect class="cls-1" x="57.6" y="25.22" width="5.77" height="0.17" transform="translate(7.66 64.15) rotate(-59.04)"/><polygon class="cls-1" points="52.15 25.39 58.21 27.88 58.27 27.73 52.22 25.23 52.15 25.39"/><rect class="cls-1" x="56.29" y="31.08" width="4.35" height="0.17" transform="translate(21.42 86.09) rotate(-84.05)"/><path class="cls-1" d="M58.26,33.7a.11.11,0,0,0-.12,0,.09.09,0,0,0,0,.12l.05.07a.1.1,0,0,0,.07,0l0,0a.08.08,0,0,0,0-.12Z"/><path class="cls-1" d="M57.05,32a.09.09,0,0,0-.14.1l.1.14a.1.1,0,0,0,.07,0l.05,0a.08.08,0,0,0,0-.12Z"/><path class="cls-1" d="M52.5,25.61a.07.07,0,0,0-.11,0,.08.08,0,0,0,0,.12l.1.14a.07.07,0,0,0,.07,0l.05,0a.1.1,0,0,0,0-.12Z"/><path class="cls-1" d="M52.81,26a.09.09,0,0,0-.14.1l.1.14a.09.09,0,0,0,.07,0h0a.08.08,0,0,0,0-.12Z"/><path class="cls-1" d="M53.41,26.89a.08.08,0,0,0-.12,0,.11.11,0,0,0,0,.12l.11.14a.08.08,0,0,0,.07,0l0,0a.11.11,0,0,0,0-.12Z"/><path class="cls-1" d="M53.11,26.46a.11.11,0,0,0-.12,0,.09.09,0,0,0,0,.12l.1.14a.09.09,0,0,0,.07,0s0,0,0,0a.07.07,0,0,0,0-.11Z"/><path class="cls-1" d="M57.35,32.43a.08.08,0,0,0-.12,0,.08.08,0,0,0,0,.11l.1.15a.11.11,0,0,0,.07,0h0a.08.08,0,0,0,0-.12Z"/><path class="cls-1" d="M58,33.28a.08.08,0,0,0-.12,0,.08.08,0,0,0,0,.12l.1.14a.09.09,0,0,0,.07,0h0a.08.08,0,0,0,0-.12Z"/><path class="cls-1" d="M56.75,31.57a.11.11,0,0,0-.12,0,.08.08,0,0,0,0,.12l.1.15a.08.08,0,0,0,.07,0h0a.09.09,0,0,0,0-.12Z"/><path class="cls-1" d="M57.65,32.85a.08.08,0,0,0-.11,0,.08.08,0,0,0,0,.12l.1.14a.07.07,0,0,0,.07,0l.05,0a.1.1,0,0,0,0-.12Z"/><path class="cls-1" d="M55.84,30.3a.08.08,0,0,0-.12,0,.08.08,0,0,0,0,.12l.1.14a.09.09,0,0,0,.07,0h.05a.08.08,0,0,0,0-.12Z"/><path class="cls-1" d="M55.53,29.87a.07.07,0,0,0-.11,0,.08.08,0,0,0,0,.12l.1.14a.07.07,0,0,0,.07,0l0,0a.11.11,0,0,0,0-.12Z"/><path class="cls-1" d="M56.14,30.72a.09.09,0,0,0-.12,0,.08.08,0,0,0,0,.12l.1.14a.09.09,0,0,0,.07,0l0,0a.08.08,0,0,0,0-.12Z"/><path class="cls-1" d="M53.72,27.32a.08.08,0,0,0-.12,0,.07.07,0,0,0,0,.11l.1.15a.09.09,0,0,0,.07,0h0a.08.08,0,0,0,0-.12Z"/><path class="cls-1" d="M56.44,31.15a.08.08,0,0,0-.12,0,.11.11,0,0,0,0,.12l.11.14a.08.08,0,0,0,.07,0l0,0a.08.08,0,0,0,0-.12Z"/><path class="cls-1" d="M55.23,29.44a.09.09,0,0,0-.12,0,.08.08,0,0,0,0,.11l.1.15a.11.11,0,0,0,.07,0h.05a.08.08,0,0,0,0-.12Z"/><path class="cls-1" d="M54.93,29a.09.09,0,0,0-.14.1l.1.14a.1.1,0,0,0,.07,0l0,0a.08.08,0,0,0,0-.12Z"/><path class="cls-1" d="M54,27.74a.09.09,0,0,0-.14.1L54,28a.08.08,0,0,0,.07,0l.05,0a.08.08,0,0,0,0-.12Z"/><path class="cls-1" d="M54.32,28.17a.08.08,0,0,0-.12,0,.11.11,0,0,0,0,.12l.11.14a.07.07,0,0,0,.06,0h0a.08.08,0,0,0,0-.12Z"/><path class="cls-1" d="M54.63,28.59a.11.11,0,0,0-.12,0,.08.08,0,0,0,0,.12l.1.14a.07.07,0,0,0,.07,0l.05,0a.08.08,0,0,0,0-.11Z"/><path class="cls-1" d="M52.24,25.2l-.2.06.12.17a.11.11,0,0,0,.07,0h.05a.09.09,0,0,0,0-.09.11.11,0,0,0,0-.1A.09.09,0,0,0,52.24,25.2Z"/><path class="cls-1" d="M60,23.13l-.16,0a.08.08,0,0,0-.06.11.09.09,0,0,0,.08.06h0l.16-.05a.08.08,0,0,0,0-.16Z"/><path class="cls-1" d="M52.73,25.07l-.16.05a.07.07,0,0,0-.06.1.08.08,0,0,0,.08.06h0l.16,0a.09.09,0,0,0,.06-.11A.09.09,0,0,0,52.73,25.07Z"/><path class="cls-1" d="M53.21,24.94l-.16,0a.08.08,0,0,0-.06.1.08.08,0,0,0,.08.06h0l.17,0a.09.09,0,0,0,.06-.11A.1.1,0,0,0,53.21,24.94Z"/><path class="cls-1" d="M54.18,24.68l-.16.05a.07.07,0,0,0-.06.1.08.08,0,0,0,.08.07h0l.16,0a.08.08,0,0,0,.06-.1A.09.09,0,0,0,54.18,24.68Z"/><path class="cls-1" d="M60.46,23l-.16,0a.09.09,0,0,0-.06.11.09.09,0,0,0,.08.06h0l.16-.05a.07.07,0,0,0,.06-.1A.08.08,0,0,0,60.46,23Z"/><path class="cls-1" d="M61.91,22.61l-.16,0a.09.09,0,0,0-.06.11.08.08,0,0,0,.08.06h0l.16-.05a.07.07,0,0,0,.06-.1A.08.08,0,0,0,61.91,22.61Z"/><path class="cls-1" d="M61.43,22.74l-.17,0a.1.1,0,0,0-.06.11.09.09,0,0,0,.09.06h0l.16-.05a.08.08,0,0,0,.06-.1A.08.08,0,0,0,61.43,22.74Z"/><path class="cls-1" d="M60.94,22.87l-.16,0a.1.1,0,0,0-.06.11.08.08,0,0,0,.08.06h0L61,23a.09.09,0,0,0,.06-.1A.09.09,0,0,0,60.94,22.87Z"/><path class="cls-1" d="M54.66,24.56l-.16,0a.08.08,0,0,0-.06.1.08.08,0,0,0,.08.07h0l.17,0a.09.09,0,0,0,.06-.1C54.75,24.57,54.71,24.54,54.66,24.56Z"/><path class="cls-1" d="M53.69,24.81l-.16.05a.09.09,0,0,0-.06.1.09.09,0,0,0,.09.06h0l.16,0a.09.09,0,0,0-.05-.17Z"/><path class="cls-1" d="M58,23.65l-.16,0a.09.09,0,0,0-.06.11.1.1,0,0,0,.08.06h0l.16,0a.09.09,0,0,0,.06-.1A.09.09,0,0,0,58,23.65Z"/><path class="cls-1" d="M57.56,23.78l-.16,0a.09.09,0,0,0,0,.17h0l.16,0a.09.09,0,0,0,.07-.1A.09.09,0,0,0,57.56,23.78Z"/><path class="cls-1" d="M58.53,23.52l-.16,0a.09.09,0,0,0-.07.11.11.11,0,0,0,.09.06h0l.16-.05a.08.08,0,0,0,0-.16Z"/><path class="cls-1" d="M59.49,23.26l-.16,0a.09.09,0,0,0-.06.11.1.1,0,0,0,.08.06h0l.16,0a.09.09,0,0,0,.06-.1A.09.09,0,0,0,59.49,23.26Z"/><path class="cls-1" d="M59,23.39l-.16,0a.09.09,0,0,0,0,.17h0l.16-.05a.07.07,0,0,0,.06-.1A.08.08,0,0,0,59,23.39Z"/><path class="cls-1" d="M56.59,24l-.16,0a.09.09,0,0,0-.06.1.09.09,0,0,0,.08.07h0l.16,0a.09.09,0,0,0,.06-.1A.08.08,0,0,0,56.59,24Z"/><path class="cls-1" d="M56.11,24.17l-.16,0a.08.08,0,0,0-.06.1.08.08,0,0,0,.08.07h0l.16,0a.09.09,0,0,0,.07-.1C56.2,24.18,56.16,24.15,56.11,24.17Z"/><path class="cls-1" d="M55.63,24.3l-.16,0a.07.07,0,0,0-.06.1.08.08,0,0,0,.08.07h0l.16,0a.08.08,0,0,0,.06-.1A.07.07,0,0,0,55.63,24.3Z"/><path class="cls-1" d="M57.08,23.91l-.16,0a.07.07,0,0,0-.06.1.08.08,0,0,0,.08.07h0l.16,0a.08.08,0,0,0,.06-.1A.07.07,0,0,0,57.08,23.91Z"/><path class="cls-1" d="M55.14,24.43l-.16,0a.09.09,0,0,0-.06.1.09.09,0,0,0,.08.07h0l.16,0a.09.09,0,0,0,.06-.1A.08.08,0,0,0,55.14,24.43Z"/><path class="cls-1" d="M62.31,22.5l-.08,0a.1.1,0,0,0-.06.11.08.08,0,0,0,.08.06h0l.08,0a.1.1,0,0,0,.06-.11A.09.09,0,0,0,62.31,22.5Z"/><path class="cls-44" d="M58.24,33.2a.74.74,0,1,0,.74.74A.74.74,0,0,0,58.24,33.2Z"/><path class="cls-45" d="M62.15,22.2a.44.44,0,1,0,.44.44A.44.44,0,0,0,62.15,22.2Z"/><path class="cls-46" d="M58.84,27.25a1,1,0,1,0,.95.95A1,1,0,0,0,58.84,27.25Z"/><path class="cls-1" d="M55.38,25.49h-.17a.08.08,0,0,0-.09.08s0,.08.07.09h.18a.09.09,0,0,0,.09-.08A.09.09,0,0,0,55.38,25.49Z"/><path class="cls-1" d="M54.87,25.45l-.17,0a.09.09,0,0,0-.09.08.07.07,0,0,0,.07.09l.17,0h0a.09.09,0,0,0,.09-.08A.08.08,0,0,0,54.87,25.45Z"/><path class="cls-1" d="M54.36,25.41l-.17,0a.08.08,0,0,0-.09.08.07.07,0,0,0,.07.09l.17,0h0a.1.1,0,0,0,.09-.08A.08.08,0,0,0,54.36,25.41Z"/><path class="cls-1" d="M55.89,25.53h-.17a.08.08,0,0,0-.09.08.08.08,0,0,0,.07.09h.18a.1.1,0,0,0,.09-.08A.1.1,0,0,0,55.89,25.53Z"/><path class="cls-1" d="M56.4,25.58l-.17,0a.08.08,0,0,0-.09.08.07.07,0,0,0,.07.09l.17,0h0a.1.1,0,0,0,.09-.08A.08.08,0,0,0,56.4,25.58Z"/><path class="cls-1" d="M53.85,25.36h-.17a.08.08,0,0,0-.09.08s0,.08.07.09h.18a.09.09,0,0,0,.09-.08A.09.09,0,0,0,53.85,25.36Z"/><path class="cls-1" d="M52.32,25.23h-.13a.09.09,0,0,0-.09.08.08.08,0,0,0,.08.09h.13a.09.09,0,0,0,.09-.07A.1.1,0,0,0,52.32,25.23Z"/><path class="cls-1" d="M52.83,25.28l-.17,0a.08.08,0,0,0-.09.08.07.07,0,0,0,.07.09l.17,0h0a.1.1,0,0,0,.09-.08A.08.08,0,0,0,52.83,25.28Z"/><path class="cls-1" d="M53.34,25.32h-.17a.08.08,0,1,0,0,.16l.17,0h0a.09.09,0,0,0,.09-.08A.08.08,0,0,0,53.34,25.32Z"/><path class="cls-1" d="M62.52,26.09h-.17a.09.09,0,1,0,0,.17h.17a.09.09,0,0,0,.09-.07A.1.1,0,0,0,62.52,26.09Z"/><path class="cls-1" d="M56.91,25.62h-.17a.07.07,0,0,0-.09.07.09.09,0,0,0,.07.1h.18a.09.09,0,0,0,0-.17Z"/><path class="cls-1" d="M62,26.05h-.17a.07.07,0,0,0-.09.07.09.09,0,0,0,.07.1H62a.09.09,0,0,0,0-.17Z"/><path class="cls-1" d="M61,26h-.17a.08.08,0,0,0-.09.08.07.07,0,0,0,.07.09H61a.1.1,0,0,0,.09-.08A.1.1,0,0,0,61,26Z"/><path class="cls-1" d="M61.5,26l-.17,0a.08.08,0,0,0-.09.08.07.07,0,0,0,.07.09l.17,0h0a.1.1,0,0,0,.09-.08A.08.08,0,0,0,61.5,26Z"/><path class="cls-1" d="M64.05,26.22h-.17a.08.08,0,0,0-.09.08s0,.08.08.09H64a.09.09,0,0,0,.09-.08A.09.09,0,0,0,64.05,26.22Z"/><path class="cls-1" d="M63.54,26.18h-.17a.07.07,0,0,0-.09.07.09.09,0,0,0,.08.1h.17a.09.09,0,0,0,.09-.08A.08.08,0,0,0,63.54,26.18Z"/><path class="cls-1" d="M63,26.14l-.17,0a.08.08,0,0,0-.09.08.07.07,0,0,0,.07.09l.17,0h0a.1.1,0,0,0,.09-.08A.08.08,0,0,0,63,26.14Z"/><path class="cls-1" d="M60.48,25.92h-.17a.08.08,0,0,0-.09.08s0,.08.07.09h.18a.09.09,0,0,0,.09-.08A.09.09,0,0,0,60.48,25.92Z"/><path class="cls-1" d="M57.93,25.71l-.17,0a.08.08,0,0,0-.09.08.07.07,0,0,0,.07.09l.17,0h0A.1.1,0,0,0,58,25.8.08.08,0,0,0,57.93,25.71Z"/><path class="cls-1" d="M60,25.88l-.17,0a.08.08,0,0,0-.09.08.07.07,0,0,0,.07.09l.18,0h0a.1.1,0,0,0,.09-.08A.08.08,0,0,0,60,25.88Z"/><path class="cls-1" d="M58.44,25.75h-.17a.07.07,0,0,0-.09.07.09.09,0,0,0,.07.1h.18a.09.09,0,0,0,0-.17Z"/><path class="cls-1" d="M57.42,25.66h-.17a.08.08,0,0,0-.09.08.08.08,0,0,0,.07.09h.18a.09.09,0,0,0,.09-.07A.1.1,0,0,0,57.42,25.66Z"/><path class="cls-1" d="M59,25.79h-.17a.08.08,0,0,0-.09.08s0,.08.07.09h.18a.09.09,0,0,0,.09-.07A.1.1,0,0,0,59,25.79Z"/><path class="cls-1" d="M59.46,25.84l-.17,0a.08.08,0,0,0-.09.08.07.07,0,0,0,.07.09l.17,0h0a.1.1,0,0,0,.09-.08A.08.08,0,0,0,59.46,25.84Z"/><path class="cls-47" d="M64.34,25.57a.74.74,0,1,0,.74.74A.74.74,0,0,0,64.34,25.57Z"/><path class="cls-48" d="M52.18,24.87a.44.44,0,1,0,.44.44A.44.44,0,0,0,52.18,24.87Z"/><rect class="cls-49" x="84.2" y="51.6" width="2.04" height="48.09"/><rect class="cls-50" x="86.24" y="51.6" width="0.68" height="48.09"/><rect class="cls-49" x="9.32" y="51.6" width="2.04" height="48.09"/><rect class="cls-50" x="11.36" y="51.6" width="0.68" height="48.09"/><rect class="cls-50" x="27.04" y="51.6" width="0.68" height="48.09"/><rect class="cls-49" x="99.1" y="51.6" width="2.04" height="48.09"/><rect class="cls-49" x="25.03" y="51.6" width="2.04" height="48.09"/><rect class="cls-50" x="101.14" y="51.6" width="0.68" height="48.09"/><rect class="cls-49" y="46.86" width="98" height="2.54"/><rect class="cls-50" x="98" y="46.86" width="14.4" height="2.54"/><rect class="cls-50" x="5.84" y="49.37" width="88.87" height="2.54"/><rect class="cls-49" x="93.63" y="49.37" width="12.51" height="2.54"/><rect class="cls-51" x="43.56" y="45.21" width="41.37" height="1.64"/><polygon class="cls-52" points="84.75 46.85 98.57 46.85 98.57 44.53 84.75 45.21 84.75 46.85"/><path class="cls-53" d="M34.08,92.82c-.48,1-1.15,2-1.15,2A8.32,8.32,0,0,0,36,96.38a11.15,11.15,0,0,0,1-2.84C36.84,93.55,35.2,91.79,34.08,92.82Z"/><path class="cls-54" d="M35.25,94.19h0a2,2,0,0,0-2.12.49l0,0c-.78.75-4.31,2.32-4.43,3.49-.06.59,1.13,1.25,2.13,1.39a4.85,4.85,0,0,0,2.48-.08,11.59,11.59,0,0,0,2.43-2.21,3.73,3.73,0,0,0,.42-1.66A1.43,1.43,0,0,0,35.25,94.19Z"/><path class="cls-55" d="M33.56,95.58c-1,.71-4.29,1.85-4.4,2.84-.05.5.95,1,1.8,1.17A3.89,3.89,0,0,0,33,99.52a9,9,0,0,0,2.05-1.85C36.24,96.08,34.54,94.89,33.56,95.58Z"/><path class="cls-56" d="M42.19,62.88c-5,14.4-8.79,30.48-8.79,30.48,1.11-.62,3,.7,3.87,1.07,0,0,6.58-13.68,14.69-28.67C55.27,59.64,45.48,53.38,42.19,62.88Z"/><path class="cls-57" d="M58.94,40.06a5.64,5.64,0,0,1-1.55.41c.6,0,.52.39,1.14.52.25,0,1.15-.68,1-.91S59.2,39.93,58.94,40.06Z"/><path class="cls-53" d="M62.6,41.84a10.07,10.07,0,0,0-1.38-.48c-.11,0-1.71-.54-2.44-.68a12.11,12.11,0,0,0-1.84-.25A13,13,0,0,0,56,43c1,.22,4.28.65,4.36.68,1.24.42,1.66.11,1.51-.23,0-.08.88-.08.81-.44a.42.42,0,0,0,.3-.37A1.45,1.45,0,0,0,62.6,41.84Z"/><path class="cls-57" d="M39.68,33.24a2.15,2.15,0,0,0-2.15,2.65C37.77,38.08,51,42,56.41,43a10.8,10.8,0,0,1,.72-2.58c-3.3-.53-13.83-6.13-16.85-7.11A1.76,1.76,0,0,0,39.68,33.24Z"/><path class="cls-57" d="M33,17.74c-.32-.43-5.28,3.14-5.86,4-1.35,2.08,7.36,12,11.06,15,1.4,1.13,5.81.66,2.71-4.08C38.37,28.83,34.76,20.07,33,17.74Z"/><path class="cls-58" d="M42,33.29c-.16-.31-.35-.63-.56-1-1.24-1.9-6.76-13.51-7.94-16.27-.09-.22-5.21.7-6.64,6.1-.85,3.26,7.85,12.66,10.86,15.1,2.84,2.38,13.79,5.55,18.56,6.42l1-3.89c-1.92-.31-6.7-2.55-10.54-4.36C44.93,34.61,43.27,33.83,42,33.29Z"/><path class="cls-3" d="M69.85,58.82C59.58,53,32,50.31,27.54,50.61c-2.38.15-10.26,7.73-1.3,12.49,5.65,3,32.86,2.23,40.75,3.41C71.42,67.18,74,61.14,69.85,58.82Z"/><path class="cls-53" d="M53.21,92.83a8.45,8.45,0,0,0,.13,2.8,5,5,0,0,0,3-.94,1.44,1.44,0,0,1,.22-1.61C55.49,92,53.37,92.84,53.21,92.83Z"/><path class="cls-59" d="M61.66,62.88c-5,14.4-8.79,30.48-8.79,30.48a4.06,4.06,0,0,1,3.77.17s6.68-12.78,14.79-27.77C74.74,59.64,65,53.38,61.66,62.88Z"/><path class="cls-54" d="M56.73,94.88c-.41-.39-.68-.62-.82-.74a1.74,1.74,0,0,0-2.57.91,3.08,3.08,0,0,0,.45,2.23,12.44,12.44,0,0,0,2.43,2.21,4.8,4.8,0,0,0,2.47.08c1-.14,2.19-.8,2.13-1.39C60.7,97,57.51,95.63,56.73,94.88Z"/><path class="cls-55" d="M55.91,95.58c-1-.69-2.68.5-1.53,2.09a9.13,9.13,0,0,0,2,1.85,3.93,3.93,0,0,0,2.09.07c.84-.12,1.84-.67,1.79-1.17C60.2,97.43,56.92,96.29,55.91,95.58Z"/><path class="cls-53" d="M34.63,8.38c.2,1.39-.33,5.51-.81,6.24.79,1.33,5,1.59,5.72.79-.66-1.62,0-4.63.05-4.92C38.56,10.64,35,8.64,34.63,8.38Z"/><path class="cls-53" d="M39.19,3.53a3.46,3.46,0,0,0-3.13,3.91s.14,2.09.14,2.09c.1,1.52,2.54,3.38,3.9,3.38,3.13,0,3.22-6.62,3.22-7.27C43.32,3.51,41.08,3.41,39.19,3.53Z"/><path class="cls-60" d="M50.27,48.62c-4.07-4.36-2.42-23.47-2.5-25-.16-3.18-.08-4.71-2.57-6.06-.65-.35-4.27-1.9-5.74-2.42a13,13,0,0,0-5.5-.73,10.33,10.33,0,0,0-8.28,6.39c-.23.6-11.28,34.33-.34,42.34,3.16,2.31,10.41.19,12.36,3.15,1.73,2.63-2.63,11.92-1.1,12.31a100.78,100.78,0,0,0,34.88,2s1-10.23,1-19C72.51,55.23,52.29,50.78,50.27,48.62Z"/><path class="cls-61" d="M67.53,73c-14.1-7.17-7.06-13.9-14.45-12.66-18.48,3.11-29-.25-30.41-.31a9.31,9.31,0,0,0,2.67,3.15c3.16,2.31,10.41.19,12.36,3.15a4.22,4.22,0,0,1,.38,2.54c1.42.39,10.92,4.68,11.45,12a107.07,107.07,0,0,0,17.27.26,3.86,3.86,0,0,0,3.13-5.73A6.06,6.06,0,0,0,67.53,73Z"/><path class="cls-53" d="M71.4,39.67A5.23,5.23,0,0,1,70,40.4c.59-.09.59.28,1.22.27.24-.08,1-.9.84-1.11S71.63,39.49,71.4,39.67Z"/><path class="cls-53" d="M75.35,40.64a8.71,8.71,0,0,0-1.44-.18c-.12,0-1.79-.16-2.53-.15a14,14,0,0,0-1.86.15,13.79,13.79,0,0,0-.38,2.66c1,0,4.32-.27,4.4-.26,1.3.15,1.65-.24,1.44-.54-.06-.07.84-.27.69-.6a.44.44,0,0,0,.22-.43A1.46,1.46,0,0,0,75.35,40.64Z"/><path class="cls-57" d="M52.48,36.63a2.14,2.14,0,0,0-2.26,2.55c.14,2.2,12,3.94,19,3.91a10.54,10.54,0,0,1,.83-2.54c-3.28-.67-14-2.7-17-3.81A2,2,0,0,0,52.48,36.63Z"/><path class="cls-57" d="M46.43,20.86c-.3-.44-5.4,2.92-6,3.79C39,26.67,47.26,37,50.83,40.1c1.35,1.18,5.78.9,2.88-4C51.35,32.17,48.11,23.26,46.43,20.86Z"/><path class="cls-62" d="M47,19.2c-.09-.22-6.6,2.09-7.76,5.23S47.45,38,50.36,40.56c2.74,2.5,14,2.77,18.75,3.18l.49-3.88c-1.9-.39-13.56-2.49-14.8-3.08C54.65,36.46,48.09,22,47,19.2Z"/><path class="cls-55" d="M34.84,1c-2.77,2.11-2.93,4.52-1.93,8,.43,1.52,1.19,4.09,2.08,4.37,2.85.87,4.86-7.93,5.49-8s-.07,1.42-.59,2c1.31-.67,4.89-1.68,4-4.09C42.62.07,37.52-1,34.84,1Z"/><path class="cls-63" d="M33.69,65H19.15a2.81,2.81,0,0,0-2.69,2.32L8.76,99.48l1.37.15.77,0L19,67.3c.11-.75-.25-1.23.51-1.23H33.38A1.71,1.71,0,0,1,35,67.46l4.66,32.2h1.71L36.85,67.3C36.66,66,35,65,33.69,65Z"/><path class="cls-64" d="M34.94,65H20.71A2.92,2.92,0,0,0,18,67.26L10.4,99.6l1.19.09L19,67.47a1.82,1.82,0,0,1,1.69-1.4H34.94a1.69,1.69,0,0,1,1.6,1.39l4.78,32.2,1.16-.16L37.62,67.3A2.8,2.8,0,0,0,34.94,65Z"/><path class="cls-63" d="M17.78,64.88c-1.44,0-2.47.06-3,.06,0,0-.67-.29-1.47-4.27-.48-2.37-.83-6.87-1.06-8.68-.1-.72-.17-1.3-.22-1.61L12,49.84,10.88,50l.09.54c0,.29.12.86.21,1.57,1.15,9,2.09,13.9,3.6,13.9.54,0,1.58,0,3-.06,3.75-.09,8.27-.24,16.64-.24H35V64.64h-.55C26.06,64.64,21.53,64.79,17.78,64.88Z"/><path class="cls-64" d="M14.31,60.42c-.48-2.36-.83-6.83-1.06-8.62-.09-.71-.16-1.27-.22-1.58L12,50.4c0,.29.12.84.21,1.54,1.15,8.88,2.09,13.79,3.6,13.79H35.43V64.64H15.79S15.11,64.36,14.31,60.42Z"/><path class="cls-63" d="M40.31,62.57H16.68a1.88,1.88,0,0,0,0,3.75H40.31a1.88,1.88,0,0,0,0-3.75Z"/><path class="cls-64" d="M58.42,64.43a7.16,7.16,0,0,0-5.36-1.86H37.88a1.64,1.64,0,0,0,0,3.28H53.06c2.32,0,3.15.81,3.29,1.31l.06.76h3.23l0-1A4.09,4.09,0,0,0,58.42,64.43Z"/><path class="cls-65" d="M56.34,67.08v.06a.9.9,0,0,1,0-.18S56.34,67,56.34,67.08Z"/><rect class="cls-55" x="39.69" y="64.66" width="14.8" height="1.66"/><path class="cls-63" d="M36.13,60.7c-.52-2.5-.91-7.17-1.15-8.9l-.2-1.42-.09-.54L33.61,50l.09.54.2,1.38c1.27,9.32,2.27,14.39,3.8,14.39h.54l0-1.09h-.55C37.65,65.22,37,64.86,36.13,60.7Z"/><path class="cls-64" d="M37,60.52c-.47-2.37-.83-6.87-1.06-8.68-.09-.73-.16-1.3-.22-1.62l-1.07.18c.05.3.12.86.21,1.58,1.15,9,2.09,13.9,3.6,13.9l0-1.09S37.85,64.5,37,60.52Z"/><path class="cls-63" d="M52.65,64l-12.17-.05a2.81,2.81,0,0,0-2.69,2.32L33.21,99.48l1.37.15,1.43,0,4.27-33.4c.11-.75-.25-1.5.51-1.5l11.6.27A1.69,1.69,0,0,1,54,66.42l6,33.24h1.71l-5.88-33.4C55.66,65,53.94,64,52.65,64Z"/><path class="cls-64" d="M54,63.94H42a2.78,2.78,0,0,0-2.67,2.32L34.89,99.51l1.16.15,4.4-33.24A1.68,1.68,0,0,1,42,65H54a1.69,1.69,0,0,1,1.59,1.39l6.15,33.24,1.15-.15L56.62,66.26A2.78,2.78,0,0,0,54,63.94Z"/><path class="cls-64" d="M30.41,27.88H12.67c-3.25,0-4.49,2.06-4.78,3.36-.08.36,1.94.53,2,.94l2.62,17.66.14.94,23-.22c.86,0,1.2-.59,1.47-1.5.15-.5-2.77-17.79-2.77-17.79A4.1,4.1,0,0,0,30.41,27.88Z"/><path class="cls-63" d="M28.52,29.72H10a2.88,2.88,0,0,0-2.93,3.4L9.69,50.78s2.7,1.3,10.81,1.3a82.18,82.18,0,0,0,14.57-1.3L32.45,33.12A4.11,4.11,0,0,0,28.52,29.72Z"/></g></g></svg>