<svg xmlns="http://www.w3.org/2000/svg" xmlns:xlink="http://www.w3.org/1999/xlink" viewBox="0 0 32.36 54.97"><defs><style>.cls-1{fill:url(#linear-gradient);}.cls-2{fill:url(#linear-gradient-2);}.cls-3{fill:url(#linear-gradient-3);}.cls-4{fill:url(#linear-gradient-4);}.cls-5{fill:#8912b8;}.cls-6{fill:url(#linear-gradient-5);}.cls-7{fill:url(#linear-gradient-6);}.cls-8{fill:url(#linear-gradient-7);}.cls-9{fill:url(#linear-gradient-8);}.cls-10{fill:url(#linear-gradient-9);}.cls-11{fill:url(#linear-gradient-10);}.cls-12{fill:url(#linear-gradient-11);}.cls-13{fill:url(#linear-gradient-12);}.cls-14{fill:url(#linear-gradient-13);}.cls-15{fill:url(#linear-gradient-14);}.cls-16{fill:url(#linear-gradient-15);}.cls-17{fill:url(#linear-gradient-16);}.cls-18{fill:url(#linear-gradient-17);}.cls-19{fill:url(#linear-gradient-18);}.cls-20{fill:url(#linear-gradient-19);}.cls-21{fill:url(#linear-gradient-20);}.cls-22{fill:url(#linear-gradient-21);}.cls-23{fill:url(#linear-gradient-22);}</style><linearGradient id="linear-gradient" x1="12.67" y1="50.71" x2="28.24" y2="50.71" gradientUnits="userSpaceOnUse"><stop offset="0" stop-color="#00deff"/><stop offset="1" stop-color="#007fff"/></linearGradient><linearGradient id="linear-gradient-2" x1="4.13" y1="50.71" x2="12.69" y2="50.71" xlink:href="#linear-gradient"/><linearGradient id="linear-gradient-3" x1="11.46" y1="52.73" x2="32.36" y2="52.73" xlink:href="#linear-gradient"/><linearGradient id="linear-gradient-4" x1="0" y1="52.73" x2="11.49" y2="52.73" xlink:href="#linear-gradient"/><linearGradient id="linear-gradient-5" x1="7.23" y1="25.94" x2="24.43" y2="25.94" xlink:href="#linear-gradient"/><linearGradient id="linear-gradient-6" x1="22.43" y1="6.5" x2="25.5" y2="6.5" xlink:href="#linear-gradient"/><linearGradient id="linear-gradient-7" x1="21.26" y1="10.73" x2="24.32" y2="10.73" xlink:href="#linear-gradient"/><linearGradient id="linear-gradient-8" x1="17.68" y1="14.35" x2="20.74" y2="14.35" xlink:href="#linear-gradient"/><linearGradient id="linear-gradient-9" x1="10.27" y1="19.59" x2="13.34" y2="19.59" xlink:href="#linear-gradient"/><linearGradient id="linear-gradient-10" x1="6.94" y1="23.38" x2="10" y2="23.38" xlink:href="#linear-gradient"/><linearGradient id="linear-gradient-11" x1="6.63" y1="28.92" x2="9.7" y2="28.92" xlink:href="#linear-gradient"/><linearGradient id="linear-gradient-12" x1="9.7" y1="33.47" x2="12.77" y2="33.47" xlink:href="#linear-gradient"/><linearGradient id="linear-gradient-13" x1="17.12" y1="39.1" x2="20.18" y2="39.1" xlink:href="#linear-gradient"/><linearGradient id="linear-gradient-14" x1="20.74" y1="42.16" x2="23.8" y2="42.16" xlink:href="#linear-gradient"/><linearGradient id="linear-gradient-15" x1="22.04" y1="46.35" x2="25.11" y2="46.35" xlink:href="#linear-gradient"/><linearGradient id="linear-gradient-16" x1="10.6" y1="6.5" x2="21.76" y2="6.5" xlink:href="#linear-gradient"/><linearGradient id="linear-gradient-17" x1="15" y1="14.09" x2="17.36" y2="14.09" xlink:href="#linear-gradient"/><linearGradient id="linear-gradient-18" x1="10.96" y1="23.64" x2="21.4" y2="23.64" xlink:href="#linear-gradient"/><linearGradient id="linear-gradient-19" x1="13.54" y1="33.31" x2="18.82" y2="33.31" xlink:href="#linear-gradient"/><linearGradient id="linear-gradient-20" x1="12.01" y1="42.63" x2="20.35" y2="42.63" xlink:href="#linear-gradient"/><linearGradient id="linear-gradient-21" x1="12.67" y1="1.39" x2="28.24" y2="1.39" xlink:href="#linear-gradient"/><linearGradient id="linear-gradient-22" x1="4.13" y1="1.4" x2="12.69" y2="1.4" xlink:href="#linear-gradient"/></defs><title>why-us-3</title><g id="Layer_2" data-name="Layer 2"><g id="Layer_1-2" data-name="Layer 1"><path class="cls-1" d="M27,53H12.69l0-4.49H27c.68,0,1.23.19,1.23.41l0,3.67C28.24,52.77,27.69,53,27,53Z"/><path class="cls-2" d="M12.69,53H5.37c-.68,0-1.23-.19-1.23-.41V48.88c0-.22.54-.41,1.22-.41h7.32Z"/><path class="cls-3" d="M31.39,55H11.49l0-4.48H31.37c.53,0,1,.21,1,.48l0,3.53C32.36,54.75,31.93,55,31.39,55Z"/><path class="cls-4" d="M11.49,55H1c-.53,0-1-.21-1-.48L0,51c0-.26.43-.48,1-.48H11.46Z"/><path class="cls-5" d="M15.83,37l.93-.65.76-.55.94.44c-.37.28-.76.57-1.17.86l-.93.65c-5,3.46-7.68,5.37-7.45,9.61a.47.47,0,0,1-.43.49h0A.47.47,0,0,1,8,47.39a7.48,7.48,0,0,1,2-5.72A33,33,0,0,1,15.83,37Z"/><path class="cls-5" d="M15,39.1a1.54,1.54,0,1,1-1.54-1.54A1.54,1.54,0,0,1,15,39.1Z"/><circle class="cls-5" cx="9.86" cy="42.16" r="1.53"/><circle class="cls-5" cx="8.55" cy="46.35" r="1.53"/><path class="cls-6" d="M23.68,47.83a.46.46,0,0,0,.46-.44,7.48,7.48,0,0,0-2-5.72A33,33,0,0,0,16.3,37l-.93-.65C10.42,32.85,8,29.46,8.15,26.26s3-6.44,8.34-9.49c5.15-2.92,7-6.1,7.6-8.27a7.33,7.33,0,0,0,.09-4.15.46.46,0,0,0-.87.31,6.49,6.49,0,0,1-.12,3.65C22.35,11.15,19.88,13.8,16,16c-5.67,3.21-8.63,6.66-8.81,10.24s2.39,7.2,7.61,10.87l.94.65c5,3.46,7.68,5.37,7.44,9.61a.47.47,0,0,0,.44.49Z"/><path class="cls-7" d="M22.43,6.5A1.54,1.54,0,1,0,24,5,1.53,1.53,0,0,0,22.43,6.5Z"/><path class="cls-8" d="M21.26,10.73A1.53,1.53,0,1,0,22.79,9.2,1.52,1.52,0,0,0,21.26,10.73Z"/><path class="cls-9" d="M17.68,14.35a1.53,1.53,0,1,0,1.53-1.53A1.53,1.53,0,0,0,17.68,14.35Z"/><circle class="cls-10" cx="11.81" cy="19.59" r="1.53"/><circle class="cls-11" cx="8.47" cy="23.38" r="1.53"/><path class="cls-12" d="M6.63,28.92a1.54,1.54,0,1,0,1.54-1.53A1.54,1.54,0,0,0,6.63,28.92Z"/><circle class="cls-13" cx="11.23" cy="33.47" r="1.53"/><path class="cls-14" d="M17.12,39.1a1.53,1.53,0,1,0,1.53-1.54A1.53,1.53,0,0,0,17.12,39.1Z"/><circle class="cls-15" cx="22.27" cy="42.16" r="1.53"/><path class="cls-16" d="M22,46.35a1.54,1.54,0,1,0,1.54-1.53A1.53,1.53,0,0,0,22,46.35Z"/><path class="cls-5" d="M24,26.26c-.16-3.25-3-6.44-8.34-9.49-5.15-2.92-7-6.1-7.59-8.27A7.39,7.39,0,0,1,8,4.35a.48.48,0,0,1,.59-.28.47.47,0,0,1,.28.59,6.38,6.38,0,0,0,.11,3.59c.57,2,2.28,5,7.16,7.72,5.67,3.21,8.63,6.66,8.81,10.24.16,3.27-2,6.63-6.44,10l-.94-.44C22,32.5,24.13,29.29,24,26.26Z"/><path class="cls-5" d="M9.7,6.5A1.54,1.54,0,1,1,8.17,5,1.53,1.53,0,0,1,9.7,6.5Z"/><path class="cls-5" d="M10.88,10.73A1.54,1.54,0,1,1,9.34,9.2,1.53,1.53,0,0,1,10.88,10.73Z"/><path class="cls-5" d="M14.45,14.35a1.53,1.53,0,1,1-1.53-1.53A1.53,1.53,0,0,1,14.45,14.35Z"/><path class="cls-5" d="M21.86,19.59a1.54,1.54,0,1,1-1.53-1.54A1.54,1.54,0,0,1,21.86,19.59Z"/><path class="cls-5" d="M25.19,23.38a1.53,1.53,0,1,1-1.53-1.53A1.53,1.53,0,0,1,25.19,23.38Z"/><path class="cls-5" d="M25.5,28.92A1.54,1.54,0,1,1,24,27.39,1.54,1.54,0,0,1,25.5,28.92Z"/><circle class="cls-5" cx="20.9" cy="33.47" r="1.53"/><path class="cls-17" d="M10.88,6.77H21.49a.27.27,0,0,0,0-.54H10.88a.27.27,0,1,0,0,.54Z"/><path class="cls-18" d="M15.27,14.36h1.82a.27.27,0,0,0,0-.54H15.27a.27.27,0,0,0,0,.54Z"/><path class="cls-5" d="M12.28,10.66h7.8a.27.27,0,0,0,.27-.27.28.28,0,0,0-.27-.28h-7.8a.28.28,0,0,0-.27.28A.27.27,0,0,0,12.28,10.66Z"/><path class="cls-5" d="M14.31,20.12h3.74a.27.27,0,1,0,0-.54H14.31a.27.27,0,1,0,0,.54Z"/><path class="cls-19" d="M11.23,23.92h9.9a.28.28,0,0,0,.27-.28.27.27,0,0,0-.27-.27h-9.9a.27.27,0,0,0-.27.27A.28.28,0,0,0,11.23,23.92Z"/><path class="cls-5" d="M11.23,29.2h9.9a.28.28,0,0,0,0-.55h-9.9a.28.28,0,0,0,0,.55Z"/><path class="cls-20" d="M13.81,33.59h4.74a.28.28,0,0,0,.27-.28.27.27,0,0,0-.27-.27H13.81a.27.27,0,0,0-.27.27A.28.28,0,0,0,13.81,33.59Z"/><path class="cls-5" d="M15.75,39.63h.86a.28.28,0,0,0,.27-.28.27.27,0,0,0-.27-.27h-.86a.27.27,0,0,0-.27.27A.28.28,0,0,0,15.75,39.63Z"/><path class="cls-21" d="M12.28,42.9h7.8a.27.27,0,1,0,0-.54h-7.8a.27.27,0,1,0,0,.54Z"/><path class="cls-5" d="M11.17,47h10a.27.27,0,1,0,0-.54h-10a.27.27,0,1,0,0,.54Z"/><path class="cls-22" d="M27,2.79H12.69l0-2.79H27c.68,0,1.23.11,1.23.25l0,2.28C28.24,2.67,27.69,2.79,27,2.79Z"/><path class="cls-23" d="M12.69,2.79H5.37c-.68,0-1.23-.11-1.23-.25V.26C4.12.12,4.67,0,5.35,0h7.32Z"/></g></g></svg>