<svg xmlns="http://www.w3.org/2000/svg" xmlns:xlink="http://www.w3.org/1999/xlink" viewBox="0 0 54.46 53.16"><defs><style>.cls-1{fill:#fff1c3;}.cls-2{fill:#c2efff;}.cls-3{fill:#101010;}.cls-4{fill:#006bff;}.cls-5{fill:url(#linear-gradient);}.cls-6{fill:url(#linear-gradient-2);}.cls-7{fill:url(#linear-gradient-3);}.cls-8{fill:url(#linear-gradient-4);}.cls-9{fill:url(#linear-gradient-5);}.cls-10{fill:url(#linear-gradient-6);}.cls-11{fill:url(#linear-gradient-7);}.cls-12{fill:url(#linear-gradient-8);}.cls-13{fill:url(#linear-gradient-9);}.cls-14{fill:url(#linear-gradient-10);}.cls-15{fill:url(#linear-gradient-11);}.cls-16{fill:url(#linear-gradient-12);}.cls-17{fill:url(#linear-gradient-13);}.cls-18{fill:url(#linear-gradient-14);}.cls-19{fill:url(#linear-gradient-15);}.cls-20{fill:url(#linear-gradient-16);}.cls-21{fill:url(#linear-gradient-17);}.cls-22{fill:url(#linear-gradient-18);}.cls-23{fill:url(#linear-gradient-19);}.cls-24{fill:url(#linear-gradient-20);}.cls-25{fill:url(#linear-gradient-21);}.cls-26{fill:url(#linear-gradient-22);}.cls-27{fill:url(#linear-gradient-23);}.cls-28{fill:url(#linear-gradient-24);}.cls-29{fill:url(#linear-gradient-25);}.cls-30{fill:url(#linear-gradient-26);}.cls-31{fill:url(#linear-gradient-27);}.cls-32{fill:url(#linear-gradient-28);}.cls-33{fill:url(#linear-gradient-29);}.cls-34{fill:url(#linear-gradient-30);}.cls-35{fill:url(#linear-gradient-31);}.cls-36{fill:url(#linear-gradient-32);}.cls-37{fill:url(#linear-gradient-33);}.cls-38{fill:url(#linear-gradient-34);}.cls-39{fill:url(#linear-gradient-35);}.cls-40{fill:url(#linear-gradient-36);}.cls-41{fill:url(#linear-gradient-37);}.cls-42{fill:url(#linear-gradient-38);}.cls-43{fill:url(#linear-gradient-39);}.cls-44{fill:url(#linear-gradient-40);}.cls-45{fill:url(#linear-gradient-41);}.cls-46{fill:url(#linear-gradient-42);}.cls-47{fill:url(#linear-gradient-43);}.cls-48{fill:url(#linear-gradient-44);}.cls-49{fill:url(#linear-gradient-45);}.cls-50{fill:url(#linear-gradient-46);}.cls-51{fill:url(#linear-gradient-47);}.cls-52{fill:url(#linear-gradient-48);}.cls-53{fill:url(#linear-gradient-49);}.cls-54{fill:url(#linear-gradient-50);}.cls-55{fill:url(#linear-gradient-51);}.cls-56{fill:url(#linear-gradient-52);}.cls-57{fill:url(#linear-gradient-53);}.cls-58{fill:url(#linear-gradient-54);}.cls-59{fill:url(#linear-gradient-55);}.cls-60{fill:url(#linear-gradient-56);}.cls-61{fill:url(#linear-gradient-57);}.cls-62{fill:url(#linear-gradient-58);}.cls-63{fill:url(#linear-gradient-59);}.cls-64{fill:url(#linear-gradient-60);}.cls-65{fill:url(#linear-gradient-61);}.cls-66{fill:url(#linear-gradient-62);}.cls-67{fill:url(#linear-gradient-63);}.cls-68{fill:url(#linear-gradient-64);}.cls-69{fill:url(#linear-gradient-65);}.cls-70{fill:url(#linear-gradient-66);}.cls-71{fill:url(#linear-gradient-67);}.cls-72{fill:url(#linear-gradient-68);}.cls-73{fill:url(#linear-gradient-69);}.cls-74{fill:url(#linear-gradient-70);}.cls-75{fill:url(#linear-gradient-71);}.cls-76{fill:url(#linear-gradient-72);}.cls-77{fill:url(#linear-gradient-73);}.cls-78{fill:url(#linear-gradient-74);}.cls-79{fill:url(#linear-gradient-75);}.cls-80{fill:url(#linear-gradient-76);}.cls-81{fill:url(#linear-gradient-77);}.cls-82{fill:url(#linear-gradient-78);}.cls-83{fill:url(#linear-gradient-79);}.cls-84{fill:url(#linear-gradient-80);}.cls-85{fill:url(#linear-gradient-81);}.cls-86{fill:url(#linear-gradient-82);}.cls-87{fill:url(#linear-gradient-83);}.cls-88{fill:url(#linear-gradient-84);}.cls-89{fill:url(#linear-gradient-85);}.cls-90{fill:url(#linear-gradient-86);}.cls-91{fill:url(#linear-gradient-87);}.cls-92{fill:url(#linear-gradient-88);}.cls-93{fill:url(#linear-gradient-89);}.cls-94{fill:url(#linear-gradient-90);}.cls-95{fill:url(#linear-gradient-91);}.cls-96{fill:url(#linear-gradient-92);}.cls-97{fill:url(#linear-gradient-93);}.cls-98{fill:url(#linear-gradient-94);}.cls-99{fill:url(#linear-gradient-95);}.cls-100{fill:url(#linear-gradient-96);}.cls-101{fill:url(#linear-gradient-97);}.cls-102{fill:url(#linear-gradient-98);}.cls-103{fill:url(#linear-gradient-99);}.cls-104{fill:url(#linear-gradient-100);}.cls-105{fill:url(#linear-gradient-101);}.cls-106{fill:url(#linear-gradient-102);}.cls-107{fill:url(#linear-gradient-103);}.cls-108{fill:url(#linear-gradient-104);}.cls-109{fill:url(#linear-gradient-105);}.cls-110{fill:url(#linear-gradient-106);}.cls-111{fill:url(#linear-gradient-107);}.cls-112{fill:url(#linear-gradient-108);}.cls-113{fill:url(#linear-gradient-109);}.cls-114{fill:url(#linear-gradient-110);}.cls-115{fill:url(#linear-gradient-111);}.cls-116{fill:url(#linear-gradient-112);}.cls-117{fill:url(#linear-gradient-113);}.cls-118{fill:url(#linear-gradient-114);}.cls-119{fill:url(#linear-gradient-115);}.cls-120{fill:url(#linear-gradient-116);}.cls-121{fill:url(#linear-gradient-117);}.cls-122{fill:url(#linear-gradient-118);}.cls-123{fill:url(#linear-gradient-119);}.cls-124{fill:url(#linear-gradient-120);}.cls-125{fill:url(#linear-gradient-121);}.cls-126{fill:url(#linear-gradient-122);}.cls-127{fill:url(#linear-gradient-123);}.cls-128{fill:url(#linear-gradient-124);}.cls-129{fill:url(#linear-gradient-125);}.cls-130{fill:url(#linear-gradient-126);}.cls-131{fill:url(#linear-gradient-127);}.cls-132{fill:url(#linear-gradient-128);}.cls-133{fill:url(#linear-gradient-129);}.cls-134{fill:url(#linear-gradient-130);}.cls-135{fill:url(#linear-gradient-131);}.cls-136{fill:url(#linear-gradient-132);}.cls-137{fill:url(#linear-gradient-133);}.cls-138{fill:url(#linear-gradient-134);}.cls-139{fill:url(#linear-gradient-135);}.cls-140{fill:url(#linear-gradient-136);}.cls-141{fill:url(#linear-gradient-137);}.cls-142{fill:url(#linear-gradient-138);}.cls-143{fill:url(#linear-gradient-139);}.cls-144{fill:url(#linear-gradient-140);}.cls-145{fill:url(#linear-gradient-141);}.cls-146{fill:url(#linear-gradient-142);}.cls-147{fill:url(#linear-gradient-143);}.cls-148{fill:url(#linear-gradient-144);}.cls-149{fill:url(#linear-gradient-145);}.cls-150{fill:url(#linear-gradient-146);}.cls-151{fill:url(#linear-gradient-147);}.cls-152{fill:url(#linear-gradient-148);}.cls-153{fill:url(#linear-gradient-149);}.cls-154{fill:url(#linear-gradient-150);}.cls-155{fill:#fff;opacity:0.64;}.cls-156{fill:#98d5ed;}</style><linearGradient id="linear-gradient" x1="19.42" y1="4.44" x2="38.54" y2="47.67" gradientUnits="userSpaceOnUse"><stop offset="0" stop-color="#00deff"/><stop offset="1" stop-color="#007fff"/></linearGradient><linearGradient id="linear-gradient-2" x1="19.63" y1="4.35" x2="38.75" y2="47.58" xlink:href="#linear-gradient"/><linearGradient id="linear-gradient-3" x1="19.36" y1="4.48" x2="38.46" y2="47.68" xlink:href="#linear-gradient"/><linearGradient id="linear-gradient-4" x1="14.08" y1="6.81" x2="33.19" y2="50.02" xlink:href="#linear-gradient"/><linearGradient id="linear-gradient-5" x1="12.63" y1="7.44" x2="31.75" y2="50.68" xlink:href="#linear-gradient"/><linearGradient id="linear-gradient-6" x1="12.39" y1="7.55" x2="31.51" y2="50.79" xlink:href="#linear-gradient"/><linearGradient id="linear-gradient-7" x1="12.88" y1="7.34" x2="32" y2="50.56" xlink:href="#linear-gradient"/><linearGradient id="linear-gradient-8" x1="12.91" y1="7.32" x2="32.03" y2="50.55" xlink:href="#linear-gradient"/><linearGradient id="linear-gradient-9" x1="11.4" y1="7.99" x2="30.52" y2="51.21" xlink:href="#linear-gradient"/><linearGradient id="linear-gradient-10" x1="11.43" y1="7.99" x2="30.53" y2="51.19" xlink:href="#linear-gradient"/><linearGradient id="linear-gradient-11" x1="11.49" y1="8.04" x2="30.5" y2="51.03" xlink:href="#linear-gradient"/><linearGradient id="linear-gradient-12" x1="16.71" y1="5.65" x2="35.82" y2="48.87" xlink:href="#linear-gradient"/><linearGradient id="linear-gradient-13" x1="16.78" y1="5.62" x2="35.89" y2="48.84" xlink:href="#linear-gradient"/><linearGradient id="linear-gradient-14" x1="16.54" y1="5.73" x2="35.65" y2="48.93" xlink:href="#linear-gradient"/><linearGradient id="linear-gradient-15" x1="16.58" y1="5.69" x2="35.7" y2="48.93" xlink:href="#linear-gradient"/><linearGradient id="linear-gradient-16" x1="16.86" y1="5.57" x2="35.98" y2="48.8" xlink:href="#linear-gradient"/><linearGradient id="linear-gradient-17" x1="23.02" y1="2.86" x2="42.12" y2="46.07" xlink:href="#linear-gradient"/><linearGradient id="linear-gradient-18" x1="22.97" y1="2.89" x2="42.07" y2="46.07" xlink:href="#linear-gradient"/><linearGradient id="linear-gradient-19" x1="24.62" y1="2.15" x2="43.73" y2="45.36" xlink:href="#linear-gradient"/><linearGradient id="linear-gradient-20" x1="24.62" y1="2.14" x2="43.74" y2="45.37" xlink:href="#linear-gradient"/><linearGradient id="linear-gradient-21" x1="24.75" y1="2.07" x2="43.88" y2="45.35" xlink:href="#linear-gradient"/><linearGradient id="linear-gradient-22" x1="17.8" y1="5.16" x2="36.91" y2="48.38" xlink:href="#linear-gradient"/><linearGradient id="linear-gradient-23" x1="21.25" y1="3.64" x2="40.36" y2="46.86" xlink:href="#linear-gradient"/><linearGradient id="linear-gradient-24" x1="22.39" y1="3.13" x2="41.51" y2="46.36" xlink:href="#linear-gradient"/><linearGradient id="linear-gradient-25" x1="22.01" y1="3.3" x2="41.12" y2="46.51" xlink:href="#linear-gradient"/><linearGradient id="linear-gradient-26" x1="17.83" y1="5.15" x2="36.94" y2="48.37" xlink:href="#linear-gradient"/><linearGradient id="linear-gradient-27" x1="17.36" y1="5.36" x2="36.48" y2="48.59" xlink:href="#linear-gradient"/><linearGradient id="linear-gradient-28" x1="16.8" y1="5.6" x2="35.92" y2="48.83" xlink:href="#linear-gradient"/><linearGradient id="linear-gradient-29" x1="14.82" y1="6.48" x2="33.93" y2="49.7" xlink:href="#linear-gradient"/><linearGradient id="linear-gradient-30" x1="13.54" y1="7.05" x2="32.65" y2="50.26" xlink:href="#linear-gradient"/><linearGradient id="linear-gradient-31" x1="12.98" y1="7.29" x2="32.09" y2="50.52" xlink:href="#linear-gradient"/><linearGradient id="linear-gradient-32" x1="12.14" y1="7.66" x2="31.25" y2="50.88" xlink:href="#linear-gradient"/><linearGradient id="linear-gradient-33" x1="9.55" y1="8.81" x2="28.67" y2="52.04" xlink:href="#linear-gradient"/><linearGradient id="linear-gradient-34" x1="9.2" y1="8.97" x2="28.29" y2="52.15" xlink:href="#linear-gradient"/><linearGradient id="linear-gradient-35" x1="12.33" y1="7.58" x2="31.44" y2="50.8" xlink:href="#linear-gradient"/><linearGradient id="linear-gradient-36" x1="12.4" y1="7.55" x2="31.51" y2="50.77" xlink:href="#linear-gradient"/><linearGradient id="linear-gradient-37" x1="10.52" y1="8.38" x2="29.63" y2="51.61" xlink:href="#linear-gradient"/><linearGradient id="linear-gradient-38" x1="10.51" y1="8.38" x2="29.63" y2="51.61" xlink:href="#linear-gradient"/><linearGradient id="linear-gradient-39" x1="10.33" y1="8.45" x2="29.46" y2="51.72" xlink:href="#linear-gradient"/><linearGradient id="linear-gradient-40" x1="13.86" y1="6.9" x2="32.98" y2="50.13" xlink:href="#linear-gradient"/><linearGradient id="linear-gradient-41" x1="13.93" y1="6.87" x2="33.05" y2="50.1" xlink:href="#linear-gradient"/><linearGradient id="linear-gradient-42" x1="11.67" y1="7.87" x2="30.78" y2="51.1" xlink:href="#linear-gradient"/><linearGradient id="linear-gradient-43" x1="11.71" y1="7.85" x2="30.83" y2="51.08" xlink:href="#linear-gradient"/><linearGradient id="linear-gradient-44" x1="11.86" y1="7.76" x2="31" y2="51.03" xlink:href="#linear-gradient"/><linearGradient id="linear-gradient-45" x1="15.17" y1="6.33" x2="34.28" y2="49.55" xlink:href="#linear-gradient"/><linearGradient id="linear-gradient-46" x1="15.26" y1="6.28" x2="34.38" y2="49.51" xlink:href="#linear-gradient"/><linearGradient id="linear-gradient-47" x1="13.59" y1="7.02" x2="32.71" y2="50.25" xlink:href="#linear-gradient"/><linearGradient id="linear-gradient-48" x1="13.66" y1="6.99" x2="32.78" y2="50.22" xlink:href="#linear-gradient"/><linearGradient id="linear-gradient-49" x1="13.98" y1="6.88" x2="33.06" y2="50.04" xlink:href="#linear-gradient"/><linearGradient id="linear-gradient-50" x1="18.71" y1="4.76" x2="37.82" y2="47.98" xlink:href="#linear-gradient"/><linearGradient id="linear-gradient-51" x1="18.66" y1="4.78" x2="37.78" y2="48" xlink:href="#linear-gradient"/><linearGradient id="linear-gradient-52" x1="19" y1="4.63" x2="38.11" y2="47.86" xlink:href="#linear-gradient"/><linearGradient id="linear-gradient-53" x1="19.08" y1="4.59" x2="38.2" y2="47.82" xlink:href="#linear-gradient"/><linearGradient id="linear-gradient-54" x1="19.63" y1="4.36" x2="38.74" y2="47.57" xlink:href="#linear-gradient"/><linearGradient id="linear-gradient-55" x1="20.83" y1="3.83" x2="39.94" y2="47.04" xlink:href="#linear-gradient"/><linearGradient id="linear-gradient-56" x1="20.73" y1="3.87" x2="39.85" y2="47.08" xlink:href="#linear-gradient"/><linearGradient id="linear-gradient-57" x1="21.89" y1="3.35" x2="41" y2="46.58" xlink:href="#linear-gradient"/><linearGradient id="linear-gradient-58" x1="21.96" y1="3.32" x2="41.07" y2="46.55" xlink:href="#linear-gradient"/><linearGradient id="linear-gradient-59" x1="22.53" y1="3.07" x2="41.64" y2="46.29" xlink:href="#linear-gradient"/><linearGradient id="linear-gradient-60" x1="22.04" y1="3.29" x2="41.15" y2="46.51" xlink:href="#linear-gradient"/><linearGradient id="linear-gradient-61" x1="21.97" y1="3.32" x2="41.08" y2="46.54" xlink:href="#linear-gradient"/><linearGradient id="linear-gradient-62" x1="24.49" y1="2.21" x2="43.6" y2="45.42" xlink:href="#linear-gradient"/><linearGradient id="linear-gradient-63" x1="24.53" y1="2.19" x2="43.64" y2="45.4" xlink:href="#linear-gradient"/><linearGradient id="linear-gradient-64" x1="24.88" y1="2.02" x2="44.01" y2="45.27" xlink:href="#linear-gradient"/><linearGradient id="linear-gradient-65" x1="24.66" y1="2.13" x2="43.77" y2="45.36" xlink:href="#linear-gradient"/><linearGradient id="linear-gradient-66" x1="24.58" y1="2.17" x2="43.69" y2="45.39" xlink:href="#linear-gradient"/><linearGradient id="linear-gradient-67" x1="27.3" y1="0.96" x2="46.41" y2="44.18" xlink:href="#linear-gradient"/><linearGradient id="linear-gradient-68" x1="27.29" y1="0.97" x2="46.4" y2="44.19" xlink:href="#linear-gradient"/><linearGradient id="linear-gradient-69" x1="27.4" y1="0.92" x2="46.5" y2="44.12" xlink:href="#linear-gradient"/><linearGradient id="linear-gradient-70" x1="23.22" y1="2.77" x2="42.33" y2="45.99" xlink:href="#linear-gradient"/><linearGradient id="linear-gradient-71" x1="23.15" y1="2.8" x2="42.26" y2="46.03" xlink:href="#linear-gradient"/><linearGradient id="linear-gradient-72" x1="25.06" y1="1.95" x2="44.17" y2="45.17" xlink:href="#linear-gradient"/><linearGradient id="linear-gradient-73" x1="25.01" y1="1.97" x2="44.12" y2="45.19" xlink:href="#linear-gradient"/><linearGradient id="linear-gradient-74" x1="24.86" y1="2.05" x2="43.93" y2="45.19" xlink:href="#linear-gradient"/><linearGradient id="linear-gradient-75" x1="18.49" y1="4.85" x2="37.62" y2="48.09" xlink:href="#linear-gradient"/><linearGradient id="linear-gradient-76" x1="21.13" y1="3.69" x2="40.24" y2="46.91" xlink:href="#linear-gradient"/><linearGradient id="linear-gradient-77" x1="21.96" y1="3.32" x2="41.07" y2="46.54" xlink:href="#linear-gradient"/><linearGradient id="linear-gradient-78" x1="21.71" y1="3.46" x2="40.8" y2="46.64" xlink:href="#linear-gradient"/><linearGradient id="linear-gradient-79" x1="14.31" y1="6.7" x2="33.43" y2="49.93" xlink:href="#linear-gradient"/><linearGradient id="linear-gradient-80" x1="12.98" y1="7.3" x2="32.09" y2="50.51" xlink:href="#linear-gradient"/><linearGradient id="linear-gradient-81" x1="12.62" y1="7.46" x2="31.72" y2="50.67" xlink:href="#linear-gradient"/><linearGradient id="linear-gradient-82" x1="11.06" y1="8.13" x2="30.18" y2="51.37" xlink:href="#linear-gradient"/><linearGradient id="linear-gradient-83" x1="11.11" y1="8.11" x2="30.23" y2="51.34" xlink:href="#linear-gradient"/><linearGradient id="linear-gradient-84" x1="9.16" y1="8.98" x2="28.27" y2="52.21" xlink:href="#linear-gradient"/><linearGradient id="linear-gradient-85" x1="9.16" y1="8.98" x2="28.28" y2="52.2" xlink:href="#linear-gradient"/><linearGradient id="linear-gradient-86" x1="9.13" y1="9.08" x2="28.2" y2="52.2" xlink:href="#linear-gradient"/><linearGradient id="linear-gradient-87" x1="14.03" y1="6.84" x2="33.14" y2="50.05" xlink:href="#linear-gradient"/><linearGradient id="linear-gradient-88" x1="14.1" y1="6.8" x2="33.21" y2="50.02" xlink:href="#linear-gradient"/><linearGradient id="linear-gradient-89" x1="13.24" y1="7.18" x2="32.35" y2="50.4" xlink:href="#linear-gradient"/><linearGradient id="linear-gradient-90" x1="13.28" y1="7.15" x2="32.4" y2="50.38" xlink:href="#linear-gradient"/><linearGradient id="linear-gradient-91" x1="13.55" y1="7.04" x2="32.66" y2="50.26" xlink:href="#linear-gradient"/><linearGradient id="linear-gradient-92" x1="22.72" y1="2.97" x2="41.84" y2="46.21" xlink:href="#linear-gradient"/><linearGradient id="linear-gradient-93" x1="22.66" y1="3.01" x2="41.78" y2="46.23" xlink:href="#linear-gradient"/><linearGradient id="linear-gradient-94" x1="24.47" y1="2.21" x2="43.58" y2="45.43" xlink:href="#linear-gradient"/><linearGradient id="linear-gradient-95" x1="24.49" y1="2.2" x2="43.61" y2="45.42" xlink:href="#linear-gradient"/><linearGradient id="linear-gradient-96" x1="24.74" y1="2.09" x2="43.86" y2="45.31" xlink:href="#linear-gradient"/><linearGradient id="linear-gradient-97" x1="17.24" y1="5.41" x2="36.36" y2="48.63" xlink:href="#linear-gradient"/><linearGradient id="linear-gradient-98" x1="23.29" y1="2.74" x2="42.4" y2="45.96" xlink:href="#linear-gradient"/><linearGradient id="linear-gradient-99" x1="25.47" y1="1.77" x2="44.59" y2="44.99" xlink:href="#linear-gradient"/><linearGradient id="linear-gradient-100" x1="25.17" y1="1.91" x2="44.28" y2="45.13" xlink:href="#linear-gradient"/><linearGradient id="linear-gradient-101" x1="18.97" y1="4.64" x2="38.08" y2="47.87" xlink:href="#linear-gradient"/><linearGradient id="linear-gradient-102" x1="19.41" y1="4.45" x2="38.52" y2="47.67" xlink:href="#linear-gradient"/><linearGradient id="linear-gradient-103" x1="18.84" y1="4.7" x2="37.96" y2="47.93" xlink:href="#linear-gradient"/><linearGradient id="linear-gradient-104" x1="15.73" y1="6.07" x2="34.85" y2="49.3" xlink:href="#linear-gradient"/><linearGradient id="linear-gradient-105" x1="14.87" y1="6.46" x2="33.99" y2="49.68" xlink:href="#linear-gradient"/><linearGradient id="linear-gradient-106" x1="14.18" y1="6.77" x2="33.29" y2="49.98" xlink:href="#linear-gradient"/><linearGradient id="linear-gradient-107" x1="11.93" y1="7.75" x2="31.05" y2="50.98" xlink:href="#linear-gradient"/><linearGradient id="linear-gradient-108" x1="9.35" y1="8.9" x2="28.46" y2="52.12" xlink:href="#linear-gradient"/><linearGradient id="linear-gradient-109" x1="8.77" y1="9.16" x2="27.88" y2="52.37" xlink:href="#linear-gradient"/><linearGradient id="linear-gradient-110" x1="11.19" y1="8.09" x2="30.3" y2="51.3" xlink:href="#linear-gradient"/><linearGradient id="linear-gradient-111" x1="11.28" y1="8.06" x2="30.38" y2="51.27" xlink:href="#linear-gradient"/><linearGradient id="linear-gradient-112" x1="9.14" y1="8.99" x2="28.25" y2="52.22" xlink:href="#linear-gradient"/><linearGradient id="linear-gradient-113" x1="9.1" y1="9" x2="28.22" y2="52.23" xlink:href="#linear-gradient"/><linearGradient id="linear-gradient-114" x1="8.71" y1="9.16" x2="27.84" y2="52.41" xlink:href="#linear-gradient"/><linearGradient id="linear-gradient-115" x1="11.52" y1="7.93" x2="30.64" y2="51.16" xlink:href="#linear-gradient"/><linearGradient id="linear-gradient-116" x1="11.57" y1="7.91" x2="30.68" y2="51.14" xlink:href="#linear-gradient"/><linearGradient id="linear-gradient-117" x1="8.51" y1="9.27" x2="27.62" y2="52.49" xlink:href="#linear-gradient"/><linearGradient id="linear-gradient-118" x1="8.54" y1="9.26" x2="27.65" y2="52.48" xlink:href="#linear-gradient"/><linearGradient id="linear-gradient-119" x1="8.54" y1="9.24" x2="27.66" y2="52.48" xlink:href="#linear-gradient"/><linearGradient id="linear-gradient-120" x1="12.41" y1="7.54" x2="31.53" y2="50.77" xlink:href="#linear-gradient"/><linearGradient id="linear-gradient-121" x1="12.5" y1="7.51" x2="31.61" y2="50.73" xlink:href="#linear-gradient"/><linearGradient id="linear-gradient-122" x1="9.84" y1="8.68" x2="28.95" y2="51.9" xlink:href="#linear-gradient"/><linearGradient id="linear-gradient-123" x1="9.9" y1="8.66" x2="29.01" y2="51.88" xlink:href="#linear-gradient"/><linearGradient id="linear-gradient-124" x1="10.13" y1="8.64" x2="29.21" y2="51.78" xlink:href="#linear-gradient"/><linearGradient id="linear-gradient-125" x1="16.31" y1="5.83" x2="35.42" y2="49.04" xlink:href="#linear-gradient"/><linearGradient id="linear-gradient-126" x1="16.45" y1="5.76" x2="35.56" y2="48.98" xlink:href="#linear-gradient"/><linearGradient id="linear-gradient-127" x1="15.65" y1="6.11" x2="34.77" y2="49.33" xlink:href="#linear-gradient"/><linearGradient id="linear-gradient-128" x1="15.75" y1="6.06" x2="34.87" y2="49.29" xlink:href="#linear-gradient"/><linearGradient id="linear-gradient-129" x1="16.3" y1="5.85" x2="35.41" y2="49.05" xlink:href="#linear-gradient"/><linearGradient id="linear-gradient-130" x1="18.92" y1="4.67" x2="38.03" y2="47.89" xlink:href="#linear-gradient"/><linearGradient id="linear-gradient-131" x1="18.85" y1="4.7" x2="37.96" y2="47.92" xlink:href="#linear-gradient"/><linearGradient id="linear-gradient-132" x1="19.54" y1="4.38" x2="38.66" y2="47.61" xlink:href="#linear-gradient"/><linearGradient id="linear-gradient-133" x1="19.64" y1="4.35" x2="38.75" y2="47.57" xlink:href="#linear-gradient"/><linearGradient id="linear-gradient-134" x1="20.33" y1="4.06" x2="39.43" y2="47.27" xlink:href="#linear-gradient"/><linearGradient id="linear-gradient-135" x1="21.25" y1="3.64" x2="40.36" y2="46.86" xlink:href="#linear-gradient"/><linearGradient id="linear-gradient-136" x1="21.16" y1="3.68" x2="40.27" y2="46.9" xlink:href="#linear-gradient"/><linearGradient id="linear-gradient-137" x1="23.66" y1="2.57" x2="42.77" y2="45.79" xlink:href="#linear-gradient"/><linearGradient id="linear-gradient-138" x1="23.72" y1="2.54" x2="42.84" y2="45.76" xlink:href="#linear-gradient"/><linearGradient id="linear-gradient-139" x1="24.3" y1="2.29" x2="43.41" y2="45.51" xlink:href="#linear-gradient"/><linearGradient id="linear-gradient-140" x1="25.2" y1="1.9" x2="44.31" y2="45.11" xlink:href="#linear-gradient"/><linearGradient id="linear-gradient-141" x1="25.1" y1="1.94" x2="44.21" y2="45.15" xlink:href="#linear-gradient"/><linearGradient id="linear-gradient-142" x1="28.3" y1="0.53" x2="47.41" y2="43.74" xlink:href="#linear-gradient"/><linearGradient id="linear-gradient-143" x1="28.32" y1="0.51" x2="47.43" y2="43.73" xlink:href="#linear-gradient"/><linearGradient id="linear-gradient-144" x1="28.63" y1="0.38" x2="47.74" y2="43.59" xlink:href="#linear-gradient"/><linearGradient id="linear-gradient-145" x1="24.71" y1="2.11" x2="43.82" y2="45.33" xlink:href="#linear-gradient"/><linearGradient id="linear-gradient-146" x1="24.66" y1="2.13" x2="43.77" y2="45.35" xlink:href="#linear-gradient"/><linearGradient id="linear-gradient-147" x1="27.22" y1="1" x2="46.33" y2="44.22" xlink:href="#linear-gradient"/><linearGradient id="linear-gradient-148" x1="27.19" y1="1.01" x2="46.3" y2="44.23" xlink:href="#linear-gradient"/><linearGradient id="linear-gradient-149" x1="27.19" y1="1.03" x2="46.29" y2="44.22" xlink:href="#linear-gradient"/><linearGradient id="linear-gradient-150" x1="18.25" y1="4.97" x2="37.36" y2="48.18" xlink:href="#linear-gradient"/></defs><title>why-us-1</title><g id="Layer_2" data-name="Layer 2"><g id="Layer_1-2" data-name="Layer 1"><path class="cls-1" d="M43.53,46.27a25.14,25.14,0,1,1,4-35.32A25.14,25.14,0,0,1,43.53,46.27Z"/><path class="cls-2" d="M43.1,47.39a26.57,26.57,0,1,1,4.27-37.33A26.57,26.57,0,0,1,43.1,47.39Z"/><path class="cls-3" d="M25,52.38A26,26,0,1,1,48.21,10.44h0A26,26,0,0,1,27.94,52.55,27.38,27.38,0,0,1,25,52.38Zm22-40.92a24.32,24.32,0,1,0-21.8,39.29,24.32,24.32,0,0,0,21.8-39.29Z"/><path class="cls-4" d="M22.79,11.27a.73.73,0,0,1-.41.22,1,1,0,0,1-.41,0,6.28,6.28,0,0,0-1-3.09.39.39,0,0,1,.25-.28.6.6,0,0,1,.57,0A6.19,6.19,0,0,0,22.79,11.27Z"/><path class="cls-5" d="M22.85,11.36a.54.54,0,0,1-.27.18,2,2,0,0,1-.61,0,6.28,6.28,0,0,0-1-3.09.39.39,0,0,1,.25-.28.57.57,0,0,1,.43.07A6.52,6.52,0,0,0,22.85,11.36Z"/><path class="cls-4" d="M21.9,7.94a.52.52,0,0,1-.42.58l0,0h0a.5.5,0,0,1-.62-.25c-.07-.21.09-.45.37-.56h0A.52.52,0,0,1,21.9,7.94Z"/><path class="cls-6" d="M21.81,8a.52.52,0,0,1-.37.57h0a.5.5,0,0,1-.62-.25c-.07-.21.09-.45.37-.56h0A.52.52,0,0,1,21.81,8Z"/><path class="cls-7" d="M21,7.91a.69.69,0,0,0-.08.21.54.54,0,0,0,0,.22.21.21,0,0,1-.07-.11.28.28,0,0,1,0-.13A.24.24,0,0,1,21,7.91Z"/><path class="cls-4" d="M19.07,14.25a.64.64,0,0,1,0,.46,1.1,1.1,0,0,1-.15.39,6.2,6.2,0,0,0-3.2-.53.36.36,0,0,1-.14-.35.59.59,0,0,1,.28-.5A6.15,6.15,0,0,0,19.07,14.25Z"/><path class="cls-8" d="M19.18,14.24a.47.47,0,0,1,0,.32,2.28,2.28,0,0,1-.28.54,6.2,6.2,0,0,0-3.2-.53.36.36,0,0,1-.14-.35.55.55,0,0,1,.25-.35A6.72,6.72,0,0,0,19.18,14.24Z"/><path class="cls-4" d="M15.71,13.54a.53.53,0,0,1,.33.64.09.09,0,0,0,0,.05h0a.5.5,0,0,1-.5.45.52.52,0,0,1-.34-.59h0v0C15.24,13.73,15.47,13.5,15.71,13.54Z"/><path class="cls-9" d="M15.69,13.64a.52.52,0,0,1,.34.59h0a.5.5,0,0,1-.5.45.52.52,0,0,1-.34-.59h0C15.26,13.8,15.47,13.61,15.69,13.64Z"/><path class="cls-10" d="M15.28,14.32a1.29,1.29,0,0,0,.15.17.75.75,0,0,0,.2.09.25.25,0,0,1-.12,0,.23.23,0,0,1-.12-.06A.23.23,0,0,1,15.28,14.32Z"/><path class="cls-11" d="M19.28,18.57a.64.64,0,0,1,.4.23.9.9,0,0,1,.25.33,6.21,6.21,0,0,0-2.12,2.45.39.39,0,0,1-.38-.07.58.58,0,0,1-.27-.49A6.27,6.27,0,0,0,19.28,18.57Z"/><path class="cls-12" d="M19.33,18.47a.57.57,0,0,1,.29.13,2.27,2.27,0,0,1,.31.53,6.21,6.21,0,0,0-2.12,2.45.39.39,0,0,1-.38-.07.57.57,0,0,1-.16-.4A6.7,6.7,0,0,0,19.33,18.47Z"/><path class="cls-13" d="M16.92,21.07a.51.51,0,0,1,.71.05l0,0h0a.44.44,0,1,1-.56.65h0l0,0A.51.51,0,0,1,16.92,21.07Z"/><path class="cls-14" d="M17,21.14a.51.51,0,0,1,.68,0h0a.44.44,0,1,1-.56.65h0A.5.5,0,0,1,17,21.14Z"/><path class="cls-15" d="M17.35,21.83a.69.69,0,0,0,.22,0,1,1,0,0,0,.19-.12.22.22,0,0,1-.05.11.28.28,0,0,1-.11.08A.28.28,0,0,1,17.35,21.83Z"/><path class="cls-16" d="M23.14,20.84a.66.66,0,0,1,.41-.23,1,1,0,0,1,.41,0,6.15,6.15,0,0,0,1,3.08.4.4,0,0,1-.25.29.6.6,0,0,1-.57,0A6.25,6.25,0,0,0,23.14,20.84Z"/><path class="cls-17" d="M23.08,20.74a.64.64,0,0,1,.27-.18,2.06,2.06,0,0,1,.61,0,6.15,6.15,0,0,0,1,3.08.4.4,0,0,1-.25.29.57.57,0,0,1-.43-.07A6.73,6.73,0,0,0,23.08,20.74Z"/><path class="cls-18" d="M24.06,24.15a.51.51,0,0,1,.42-.58l0,0h0a.44.44,0,1,1,.27.81h0l0,0A.51.51,0,0,1,24.06,24.15Z"/><path class="cls-19" d="M24.16,24.12a.5.5,0,0,1,.36-.57h0a.44.44,0,1,1,.27.81h0A.49.49,0,0,1,24.16,24.12Z"/><path class="cls-20" d="M24.94,24.17A.6.6,0,0,0,25,24a.54.54,0,0,0,0-.22.41.41,0,0,1,.07.11.53.53,0,0,1,0,.13A.26.26,0,0,1,24.94,24.17Z"/><path class="cls-21" d="M26.93,16a.76.76,0,0,1-.21-.42,1.18,1.18,0,0,1,0-.41,6.25,6.25,0,0,0,3.12-.88.39.39,0,0,1,.27.26.57.57,0,0,1,0,.57A6.25,6.25,0,0,0,26.93,16Z"/><path class="cls-22" d="M26.84,16a.64.64,0,0,1-.17-.28,2,2,0,0,1,0-.61,6.25,6.25,0,0,0,3.12-.88.39.39,0,0,1,.27.26.52.52,0,0,1-.08.43A6.57,6.57,0,0,0,26.84,16Z"/><path class="cls-23" d="M30.28,15.16c-.22.06-.48-.13-.57-.44,0,0,0,0,0,0v0c-.06-.29.05-.56.27-.61s.45.1.55.38h0l0,.05C30.62,14.79,30.51,15.1,30.28,15.16Z"/><path class="cls-24" d="M30.25,15.06a.5.5,0,0,1-.55-.38v0c-.06-.29.05-.56.27-.61s.45.1.55.38h0A.5.5,0,0,1,30.25,15.06Z"/><path class="cls-25" d="M30.34,14.28a.64.64,0,0,0-.21-.09.54.54,0,0,0-.22,0,.26.26,0,0,1,.11-.07h.13A.26.26,0,0,1,30.34,14.28Z"/><path class="cls-4" d="M28.7,16.26A5.76,5.76,0,0,1,22.94,22h-.23a5.76,5.76,0,0,1,0-11.52h.23A5.76,5.76,0,0,1,28.7,16.26Z"/><path class="cls-26" d="M28.23,16.26A5.77,5.77,0,0,1,22.71,22a5.76,5.76,0,0,1,0-11.52A5.77,5.77,0,0,1,28.23,16.26Z"/><path class="cls-4" d="M24.43,11.46a1.34,1.34,0,0,1-.81.17,2,2,0,0,1-.71-.17,9.34,9.34,0,0,0,0-5.29.7.7,0,0,1,.58-.34,1.05,1.05,0,0,1,.94.34A9.34,9.34,0,0,0,24.43,11.46Z"/><path class="cls-27" d="M24.5,11.74a1.08,1.08,0,0,1-.55.17,4.13,4.13,0,0,1-1-.45,9.34,9.34,0,0,0,0-5.29.7.7,0,0,1,.58-.34,1,1,0,0,1,.68.34A10.48,10.48,0,0,0,24.5,11.74Z"/><path class="cls-4" d="M24.69,5.82c0,.42-.46.76-1,.76h-.1c-.52,0-.92-.36-.92-.75a.88.88,0,0,1,.92-.74h.1C24.23,5.07,24.69,5.41,24.69,5.82Z"/><path class="cls-28" d="M24.51,5.82c0,.39-.4.71-.92.75h0c-.52,0-.92-.36-.92-.75a.88.88,0,0,1,.92-.74h0A.88.88,0,0,1,24.51,5.82Z"/><path class="cls-29" d="M23.23,5.31a1,1,0,0,0-.25.3,1.31,1.31,0,0,0-.12.38.42.42,0,0,1-.05-.22.44.44,0,0,1,.05-.22A.47.47,0,0,1,23.23,5.31Z"/><path class="cls-4" d="M22.16,12.4a1.31,1.31,0,0,1-.58.59,1.88,1.88,0,0,1-.68.26,5.9,5.9,0,0,0-2.25-3.51.65.65,0,0,1,.29-.6,1,1,0,0,1,1-.24A6,6,0,0,0,22.16,12.4Z"/><path class="cls-30" d="M22.31,12.53a1,1,0,0,1-.37.44,3.68,3.68,0,0,1-1,.28,5.9,5.9,0,0,0-2.25-3.51.65.65,0,0,1,.29-.6,1,1,0,0,1,.75-.1A6.4,6.4,0,0,0,22.31,12.53Z"/><path class="cls-4" d="M19.93,8.46a.93.93,0,0,1-.43,1.2l-.06,0h0a.89.89,0,0,1-1.18-.11.89.89,0,0,1,.34-1.13l0,0,.07,0A.91.91,0,0,1,19.93,8.46Z"/><path class="cls-31" d="M19.78,8.57a.89.89,0,0,1-.34,1.13h0a.89.89,0,0,1-1.18-.11.89.89,0,0,1,.34-1.13l0,0A.89.89,0,0,1,19.78,8.57Z"/><path class="cls-32" d="M18.43,8.85a1.4,1.4,0,0,0,0,.39,1.47,1.47,0,0,0,.11.38.46.46,0,0,1-.16-.15.42.42,0,0,1-.08-.22A.47.47,0,0,1,18.43,8.85Z"/><path class="cls-4" d="M19.33,12.68a1.3,1.3,0,0,1-.26.78,2,2,0,0,1-.49.53,4.67,4.67,0,0,0-3.16-1.87.69.69,0,0,1,0-.67,1.05,1.05,0,0,1,.77-.64A4.62,4.62,0,0,0,19.33,12.68Z"/><path class="cls-33" d="M19.5,12.75a1.08,1.08,0,0,1-.13.55,3.75,3.75,0,0,1-.79.69,4.67,4.67,0,0,0-3.16-1.87.69.69,0,0,1,0-.67,1,1,0,0,1,.64-.41C17.32,12.36,17.72,12.3,19.5,12.75Z"/><path class="cls-4" d="M16,10.41a.92.92,0,0,1,.14,1.26l0,.07v0a.9.9,0,0,1-1.11.42A.9.9,0,0,1,14.8,11v0a.43.43,0,0,1,0-.07A.91.91,0,0,1,16,10.41Z"/><path class="cls-34" d="M15.92,10.57a.89.89,0,0,1,.19,1.17v0a.9.9,0,0,1-1.11.42A.9.9,0,0,1,14.8,11v0A.89.89,0,0,1,15.92,10.57Z"/><path class="cls-35" d="M14.83,11.42a1.35,1.35,0,0,0,.14.37.89.89,0,0,0,.27.28A.42.42,0,0,1,15,12a.49.49,0,0,1-.16-.16A.46.46,0,0,1,14.83,11.42Z"/><path class="cls-4" d="M18.35,15.1a1.27,1.27,0,0,1,.16.81,1.68,1.68,0,0,1-.16.7,9.55,9.55,0,0,0-5.3,0,.67.67,0,0,1-.34-.57,1.08,1.08,0,0,1,.34-.94A9.55,9.55,0,0,0,18.35,15.1Z"/><path class="cls-36" d="M18.56,15a1,1,0,0,1,.16.55,3.63,3.63,0,0,1-.37,1,9.55,9.55,0,0,0-5.3,0,.67.67,0,0,1-.34-.57,1,1,0,0,1,.34-.68A10.27,10.27,0,0,0,18.56,15Z"/><path class="cls-4" d="M12.71,14.84c.41,0,.75.45.75,1V16c0,.52-.36.92-.75.92S12,16.48,12,16v-.1C12,15.29,12.3,14.84,12.71,14.84Z"/><path class="cls-37" d="M12.71,15c.39,0,.71.4.75.91v0c0,.52-.36.92-.75.92S12,16.48,12,16v0C12,15.42,12.32,15,12.71,15Z"/><path class="cls-38" d="M12.2,16.3a1.14,1.14,0,0,0,.3.25,1,1,0,0,0,.37.11.39.39,0,0,1-.21.06.59.59,0,0,1-.23,0A.46.46,0,0,1,12.2,16.3Z"/><path class="cls-39" d="M18.51,17a1.28,1.28,0,0,1,.45.69,1.76,1.76,0,0,1,.12.71,4.15,4.15,0,0,0-3.22,1.29.69.69,0,0,1-.53-.41,1.05,1.05,0,0,1,0-1A4.17,4.17,0,0,0,18.51,17Z"/><path class="cls-40" d="M18.64,16.91a1.15,1.15,0,0,1,.35.44,3.58,3.58,0,0,1,.09,1,4.15,4.15,0,0,0-3.22,1.29.69.69,0,0,1-.53-.41,1,1,0,0,1,.06-.75C17.22,18.33,17.19,18,18.64,16.91Z"/><path class="cls-41" d="M14.88,18.17a.92.92,0,0,1,1.08.66.24.24,0,0,1,0,.08v0a.89.89,0,0,1-.35,1.13c-.36.15-.8-.1-1-.57v0a.25.25,0,0,1,0-.07A.93.93,0,0,1,14.88,18.17Z"/><path class="cls-42" d="M15,18.34a.86.86,0,0,1,1,.57v0a.89.89,0,0,1-.35,1.13c-.36.15-.8-.1-1-.57v0A.89.89,0,0,1,15,18.34Z"/><path class="cls-43" d="M15,19.72a1.14,1.14,0,0,0,.37.12,1.06,1.06,0,0,0,.39,0,.39.39,0,0,1-.17.14.45.45,0,0,1-.23,0A.44.44,0,0,1,15,19.72Z"/><path class="cls-44" d="M20.94,18.69a1.3,1.3,0,0,1,.78.26,2,2,0,0,1,.53.49A9.52,9.52,0,0,0,19.6,24a.69.69,0,0,1-.67,0,1.05,1.05,0,0,1-.64-.77A9.44,9.44,0,0,0,20.94,18.69Z"/><path class="cls-45" d="M20.94,18.69a2.24,2.24,0,0,1,.78.26,2,2,0,0,1,.53.49A9.52,9.52,0,0,0,19.6,24a.69.69,0,0,1-.67,0,1,1,0,0,1-.41-.63A9.54,9.54,0,0,0,20.94,18.69Z"/><path class="cls-46" d="M17.89,23.44a.92.92,0,0,1,1.26-.14l.07,0h0a.89.89,0,0,1,.42,1.11.89.89,0,0,1-1.17.19h0l-.07,0A.92.92,0,0,1,17.89,23.44Z"/><path class="cls-47" d="M18.05,23.53a.89.89,0,0,1,1.17-.19h0a.89.89,0,0,1,.42,1.11.89.89,0,0,1-1.17.19h0A.89.89,0,0,1,18.05,23.53Z"/><path class="cls-48" d="M18.9,24.62a1.24,1.24,0,0,0,.37-.14,1,1,0,0,0,.29-.27.55.55,0,0,1-.06.22.49.49,0,0,1-.16.16A.46.46,0,0,1,18.9,24.62Z"/><path class="cls-49" d="M22.1,19.77a1.3,1.3,0,0,1,.83,0,1.93,1.93,0,0,1,.66.3,9.44,9.44,0,0,0-1,5.19.66.66,0,0,1-.63.22,1,1,0,0,1-.85-.51A9.46,9.46,0,0,0,22.1,19.77Z"/><path class="cls-50" d="M22.13,19.57a1,1,0,0,1,.57-.05,3.65,3.65,0,0,1,.89.55,9.44,9.44,0,0,0-1,5.19.66.66,0,0,1-.63.22,1,1,0,0,1-.6-.46A10.22,10.22,0,0,0,22.13,19.57Z"/><path class="cls-51" d="M20.74,25.25c.08-.4.6-.64,1.15-.54l.08,0h0c.5.14.83.53.75.91a.88.88,0,0,1-1,.56h-.1C21,26.08,20.66,25.66,20.74,25.25Z"/><path class="cls-52" d="M20.92,25.29a.9.9,0,0,1,1-.56h0c.5.14.83.53.75.91a.88.88,0,0,1-1,.56h0A.9.9,0,0,1,20.92,25.29Z"/><path class="cls-53" d="M22.08,26a1.5,1.5,0,0,0,.3-.24,1.45,1.45,0,0,0,.19-.35.47.47,0,0,1-.09.43A.43.43,0,0,1,22.08,26Z"/><path class="cls-54" d="M24,19.39a1.36,1.36,0,0,1,.62-.55,2,2,0,0,1,.69-.21A9.52,9.52,0,0,0,28,23.22a.65.65,0,0,1-.33.58,1,1,0,0,1-1,.18A9.44,9.44,0,0,0,24,19.39Z"/><path class="cls-55" d="M23.85,19.19c.06-.15.58-.34.76-.47a1.85,1.85,0,0,1,.74-.09A9.52,9.52,0,0,0,28,23.22a.65.65,0,0,1-.33.58,1,1,0,0,1-.75.05A10.44,10.44,0,0,0,23.85,19.19Z"/><path class="cls-56" d="M26.64,24.41a.92.92,0,0,1,.5-1.16l.07,0h0A.76.76,0,1,1,28,24.49h0l-.07.05A.92.92,0,0,1,26.64,24.41Z"/><path class="cls-57" d="M26.79,24.31a.89.89,0,0,1,.42-1.1h0A.76.76,0,1,1,28,24.49h0A.88.88,0,0,1,26.79,24.31Z"/><path class="cls-58" d="M28.16,24.12a1.4,1.4,0,0,0,.07-.39,1.16,1.16,0,0,0-.09-.38.39.39,0,0,1,.15.16.41.41,0,0,1,.07.22A.45.45,0,0,1,28.16,24.12Z"/><path class="cls-59" d="M26,19.45a1.24,1.24,0,0,1,.29-.77,1.76,1.76,0,0,1,.51-.51c1.23,1.36,1.2,1.4,3,1.9a.67.67,0,0,1,0,.67,1.11,1.11,0,0,1-.79.62A4.28,4.28,0,0,0,26,19.45Z"/><path class="cls-60" d="M25.72,19.35a1.06,1.06,0,0,1,.16-.55,3.64,3.64,0,0,1,.91-.63c1.23,1.36,1.2,1.4,3,1.9a.67.67,0,0,1,0,.67,1,1,0,0,1-.65.39C27.86,19.77,27.49,19.86,25.72,19.35Z"/><path class="cls-61" d="M29.1,21.76A.91.91,0,0,1,29,20.5a.25.25,0,0,1,0-.07v0a.77.77,0,1,1,1.27.8v0a.43.43,0,0,0,0,.07A.92.92,0,0,1,29.1,21.76Z"/><path class="cls-62" d="M29.2,21.61a.89.89,0,0,1-.15-1.18v0a.77.77,0,1,1,1.27.8v0A.9.9,0,0,1,29.2,21.61Z"/><path class="cls-63" d="M30.31,20.79a1.34,1.34,0,0,0-.12-.37,1.16,1.16,0,0,0-.26-.29.43.43,0,0,1,.22.06.52.52,0,0,1,.16.17A.44.44,0,0,1,30.31,20.79Z"/><path class="cls-64" d="M25.18,17.27a1.27,1.27,0,0,1-.16-.81,1.77,1.77,0,0,1,.16-.71,9.34,9.34,0,0,0,5.29,0,.65.65,0,0,1,.34.58,1,1,0,0,1-.34.94A9.34,9.34,0,0,0,25.18,17.27Z"/><path class="cls-65" d="M25,17.32c-.1-.12,0-.64,0-.86a1.77,1.77,0,0,1,.16-.71,9.34,9.34,0,0,0,5.29,0,.65.65,0,0,1,.34.58.94.94,0,0,1-.34.68A10,10,0,0,0,25,17.32Z"/><path class="cls-66" d="M30.82,17.53c-.42,0-.75-.46-.75-1v-.1c0-.52.36-.92.75-.92s.71.4.75.92v.1C31.57,17.07,31.23,17.53,30.82,17.53Z"/><path class="cls-67" d="M30.82,17.35c-.39,0-.71-.4-.75-.92v0c0-.52.36-.92.75-.92s.71.4.75.92v0C31.53,17,31.21,17.35,30.82,17.35Z"/><path class="cls-68" d="M31.33,16.07a1,1,0,0,0-.3-.25,1.07,1.07,0,0,0-.37-.12.36.36,0,0,1,.21,0,.42.42,0,0,1,.22,0A.45.45,0,0,1,31.33,16.07Z"/><path class="cls-69" d="M27.32,14.68a1.36,1.36,0,0,1-.55-.62,2,2,0,0,1-.21-.69,9.52,9.52,0,0,0,4.59-2.65.67.67,0,0,1,.58.33,1,1,0,0,1,.18,1A9.52,9.52,0,0,0,27.32,14.68Z"/><path class="cls-70" d="M27.17,14.78a1,1,0,0,1-.41-.39,3.4,3.4,0,0,1-.2-1,9.52,9.52,0,0,0,4.59-2.65.67.67,0,0,1,.58.33,1,1,0,0,1,.05.75A10.16,10.16,0,0,0,27.17,14.78Z"/><path class="cls-71" d="M32.34,12.09a.93.93,0,0,1-1.17-.51l0-.07v0a.88.88,0,0,1,.19-1.17.88.88,0,0,1,1.1.42v0l0,.07A.93.93,0,0,1,32.34,12.09Z"/><path class="cls-72" d="M32.24,11.93a.88.88,0,0,1-1.1-.42v0a.88.88,0,0,1,.19-1.17.88.88,0,0,1,1.1.42v0A.88.88,0,0,1,32.24,11.93Z"/><path class="cls-73" d="M32.05,10.56a1.12,1.12,0,0,0-.39-.06,1.16,1.16,0,0,0-.38.09.35.35,0,0,1,.16-.16.52.52,0,0,1,.22-.07A.47.47,0,0,1,32.05,10.56Z"/><path class="cls-74" d="M26.1,12.54a1.36,1.36,0,0,1-.79-.27,2.12,2.12,0,0,1-.53-.49A6.32,6.32,0,0,0,27,8.09a.69.69,0,0,1,.67,0,1.05,1.05,0,0,1,.64.76A6.28,6.28,0,0,0,26.1,12.54Z"/><path class="cls-75" d="M26,12.67a1,1,0,0,1-.56-.13,3.75,3.75,0,0,1-.7-.76A6.32,6.32,0,0,0,27,8.09a.69.69,0,0,1,.67,0,.93.93,0,0,1,.41.63A6.7,6.7,0,0,0,26,12.67Z"/><path class="cls-76" d="M28.69,8.68a.92.92,0,0,1-1.26.14l-.06,0h0a.89.89,0,0,1-.41-1.11.88.88,0,0,1,1.16-.19h0l.07,0A.91.91,0,0,1,28.69,8.68Z"/><path class="cls-77" d="M28.53,8.59a.89.89,0,0,1-1.16.19h0a.89.89,0,0,1-.41-1.11.88.88,0,0,1,1.16-.19h0A.88.88,0,0,1,28.53,8.59Z"/><path class="cls-78" d="M27.68,7.5a1.35,1.35,0,0,0-.37.14,1,1,0,0,0-.28.27.42.42,0,0,1,0-.22.49.49,0,0,1,.16-.16A.46.46,0,0,1,27.68,7.5Z"/><path class="cls-4" d="M21.58,14.77a.89.89,0,1,1-.88-.88A.89.89,0,0,1,21.58,14.77Z"/><path class="cls-4" d="M25,12.87a.89.89,0,1,1-.88-.88A.88.88,0,0,1,25,12.87Z"/><path class="cls-4" d="M22.17,18.66a.89.89,0,1,1-.88-.88A.89.89,0,0,1,22.17,18.66Z"/><path class="cls-4" d="M26.16,17.42a.89.89,0,1,1-.88-.88A.88.88,0,0,1,26.16,17.42Z"/><path class="cls-79" d="M23.66,15.35a.52.52,0,1,1-.52-.51A.52.52,0,0,1,23.66,15.35Z"/><path class="cls-4" d="M23.46,17.78a.52.52,0,1,1-1,0,.52.52,0,1,1,1,0Z"/><path class="cls-4" d="M32.26,29.45a.92.92,0,0,1-.55.11,1.31,1.31,0,0,1-.48-.11,7.39,7.39,0,0,0,0-3.85.44.44,0,0,1,.39-.23.74.74,0,0,1,.63.23A7.29,7.29,0,0,0,32.26,29.45Z"/><path class="cls-80" d="M32.29,29.58a.68.68,0,0,1-.37.11,2.67,2.67,0,0,1-.69-.24,7.39,7.39,0,0,0,0-3.85.44.44,0,0,1,.39-.23.64.64,0,0,1,.45.23A8,8,0,0,0,32.29,29.58Z"/><path class="cls-4" d="M32.46,25.37c0,.28-.31.51-.69.51H31.7a.59.59,0,0,1-.62-.5c0-.27.27-.48.62-.51h.07C32.15,24.86,32.46,25.09,32.46,25.37Z"/><path class="cls-81" d="M32.33,25.37a.59.59,0,0,1-.62.5h0a.59.59,0,0,1-.62-.5c0-.27.27-.48.62-.51h0C32.07,24.89,32.34,25.11,32.33,25.37Z"/><path class="cls-82" d="M31.47,25a1,1,0,0,0-.17.2,1,1,0,0,0-.08.26.3.3,0,0,1,0-.3A.3.3,0,0,1,31.47,25Z"/><path class="cls-4" d="M27,31.48a.84.84,0,0,1-.15.54,1.19,1.19,0,0,1-.31.37,7.45,7.45,0,0,0-3.43-1.75.43.43,0,0,1,0-.44.72.72,0,0,1,.49-.47A7.26,7.26,0,0,0,27,31.48Z"/><path class="cls-83" d="M27.11,31.51a.69.69,0,0,1-.07.38,2.42,2.42,0,0,1-.52.5,7.45,7.45,0,0,0-3.43-1.75.43.43,0,0,1,0-.44.65.65,0,0,1,.41-.31A7.87,7.87,0,0,0,27.11,31.51Z"/><path class="cls-4" d="M23.43,29.47a.62.62,0,0,1,.14.84l0,.05v0a.52.52,0,1,1-.9-.46v0s0,0,0,0A.63.63,0,0,1,23.43,29.47Z"/><path class="cls-84" d="M23.37,29.58a.61.61,0,0,1,.17.78v0a.52.52,0,1,1-.9-.46v0A.59.59,0,0,1,23.37,29.58Z"/><path class="cls-85" d="M22.67,30.19a.62.62,0,0,0,.29.43.32.32,0,0,1-.14,0,.29.29,0,0,1-.12-.1A.32.32,0,0,1,22.67,30.19Z"/><path class="cls-86" d="M25.65,36.44a1,1,0,0,1,.38.41,1.07,1.07,0,0,1,.15.46,7.5,7.5,0,0,0-3.28,2,.45.45,0,0,1-.4-.21.7.7,0,0,1-.13-.66A7.32,7.32,0,0,0,25.65,36.44Z"/><path class="cls-87" d="M25.74,36.35a.69.69,0,0,1,.29.26,2.15,2.15,0,0,1,.15.7,7.5,7.5,0,0,0-3.28,2,.45.45,0,0,1-.4-.21.66.66,0,0,1,0-.51A7.92,7.92,0,0,0,25.74,36.35Z"/><path class="cls-88" d="M22.08,38.42c.23-.15.59,0,.79.32,0,0,0,0,0,0h0a.51.51,0,1,1-.86.53v0l0,0A.62.62,0,0,1,22.08,38.42Z"/><path class="cls-89" d="M22.14,38.52a.6.6,0,0,1,.75.27h0a.51.51,0,1,1-.86.53v0A.6.6,0,0,1,22.14,38.52Z"/><path class="cls-90" d="M22.3,39.44a.59.59,0,0,0,.26,0,.63.63,0,0,0,.25-.07.22.22,0,0,1-.1.11.27.27,0,0,1-.15,0A.29.29,0,0,1,22.3,39.44Z"/><path class="cls-91" d="M29.2,40.4a.89.89,0,0,1,.54-.11,1.21,1.21,0,0,1,.48.11,7.39,7.39,0,0,0,0,3.85.47.47,0,0,1-.39.23.69.69,0,0,1-.63-.23A7.39,7.39,0,0,0,29.2,40.4Z"/><path class="cls-92" d="M29.16,40.28a.7.7,0,0,1,.37-.11,2.15,2.15,0,0,1,.69.23,7.39,7.39,0,0,0,0,3.85.47.47,0,0,1-.39.23.64.64,0,0,1-.45-.23A7.9,7.9,0,0,0,29.16,40.28Z"/><path class="cls-93" d="M29,44.49c0-.28.31-.51.69-.52h.07a.59.59,0,0,1,.62.5.6.6,0,0,1-.61.51h-.08C29.35,45,29.05,44.77,29,44.49Z"/><path class="cls-94" d="M29.17,44.49a.58.58,0,0,1,.61-.51h0a.59.59,0,0,1,.62.5.6.6,0,0,1-.61.51h0C29.44,45,29.17,44.75,29.17,44.49Z"/><path class="cls-95" d="M30,44.83a.83.83,0,0,0,.17-.21.82.82,0,0,0,.08-.25.33.33,0,0,1,0,.14.42.42,0,0,1,0,.16A.33.33,0,0,1,30,44.83Z"/><path class="cls-96" d="M35.26,36.25a.87.87,0,0,1-.09-.55,1.2,1.2,0,0,1,.12-.48,7.4,7.4,0,0,0,3.85.14.44.44,0,0,1,.21.39.72.72,0,0,1-.25.63A7.36,7.36,0,0,0,35.26,36.25Z"/><path class="cls-97" d="M35.13,36.28a.81.81,0,0,1-.1-.38,2.84,2.84,0,0,1,.26-.68,7.4,7.4,0,0,0,3.85.14.44.44,0,0,1,.21.39.61.61,0,0,1-.24.45A7.79,7.79,0,0,0,35.13,36.28Z"/><path class="cls-98" d="M39.33,36.56a.61.61,0,0,1-.48-.7V35.8h0c0-.35.26-.61.53-.6s.47.28.48.63v.07C39.85,36.27,39.61,36.57,39.33,36.56Z"/><path class="cls-99" d="M39.33,36.44a.6.6,0,0,1-.48-.64h0c0-.35.26-.61.53-.6s.47.28.48.63v0C39.82,36.18,39.6,36.45,39.33,36.44Z"/><path class="cls-100" d="M39.71,35.59a.63.63,0,0,0-.45-.26.28.28,0,0,1,.15,0,.42.42,0,0,1,.15,0A.32.32,0,0,1,39.71,35.59Z"/><path class="cls-4" d="M37.15,37.24a6.84,6.84,0,0,1-8.6,4.43,1.14,1.14,0,0,1-.26-.09,6.84,6.84,0,0,1,4.15-13l.27.08A6.84,6.84,0,0,1,37.15,37.24Z"/><path class="cls-101" d="M36.61,37.07a6.83,6.83,0,0,1-8.32,4.51,6.84,6.84,0,0,1,4.15-13A6.85,6.85,0,0,1,36.61,37.07Z"/><path class="cls-4" d="M34,30.27a1.56,1.56,0,0,1-1-.11,2,2,0,0,1-.74-.44,11.22,11.22,0,0,0,1.91-6,.82.82,0,0,1,.77-.18,1.24,1.24,0,0,1,.94.73A11.3,11.3,0,0,0,34,30.27Z"/><path class="cls-102" d="M34,30.61a1.27,1.27,0,0,1-.67,0,4.5,4.5,0,0,1-1-.88,11.22,11.22,0,0,0,1.91-6,.82.82,0,0,1,.77-.18,1.15,1.15,0,0,1,.65.63A12.52,12.52,0,0,0,34,30.61Z"/><path class="cls-4" d="M36.37,24a1.07,1.07,0,0,1-1.42.48.16.16,0,0,1-.09,0h0a1,1,0,0,1-.76-1.17,1.05,1.05,0,0,1,1.3-.52h0l.09,0C36.13,23,36.52,23.51,36.37,24Z"/><path class="cls-103" d="M36.17,23.92a1,1,0,0,1-1.31.51h0a1,1,0,0,1-.76-1.17,1.05,1.05,0,0,1,1.3-.52h0A1.06,1.06,0,0,1,36.17,23.92Z"/><path class="cls-104" d="M34.9,22.87a1.87,1.87,0,0,0-.39.25,1.26,1.26,0,0,0-.26.39.5.5,0,0,1,0-.27.54.54,0,0,1,.64-.37Z"/><path class="cls-4" d="M31.14,30.51a1.57,1.57,0,0,1-.87.45,2.17,2.17,0,0,1-.86.05,7.05,7.05,0,0,0-1.29-4.78.82.82,0,0,1,.55-.58,1.23,1.23,0,0,1,1.18.08A7.05,7.05,0,0,0,31.14,30.51Z"/><path class="cls-105" d="M31.26,30.71a1.33,1.33,0,0,1-.57.36A4.4,4.4,0,0,1,29.41,31a7.05,7.05,0,0,0-1.29-4.78.82.82,0,0,1,.55-.58,1.15,1.15,0,0,1,.88.17C29.56,28,30.1,28.86,31.26,30.71Z"/><path class="cls-4" d="M30,25.25c.13.47-.28,1-.92,1.19l-.09,0h0a1.05,1.05,0,0,1-1.29-.56,1,1,0,0,1,.8-1.15h0l.09,0A1.09,1.09,0,0,1,30,25.25Z"/><path class="cls-106" d="M29.83,25.31c.13.44-.22.94-.8,1.16h0a1.05,1.05,0,0,1-1.29-.56,1,1,0,0,1,.8-1.15h0A1,1,0,0,1,29.83,25.31Z"/><path class="cls-107" d="M28.2,25.15a1.41,1.41,0,0,0-.19.42A1.48,1.48,0,0,0,28,26a.53.53,0,0,1-.15-.5A.52.52,0,0,1,28.2,25.15Z"/><path class="cls-4" d="M27.84,29.8a1.54,1.54,0,0,1-.58.79,2.05,2.05,0,0,1-.75.42c-1-2-1-2.1-2.9-3.25a.8.8,0,0,1,.24-.76,1.24,1.24,0,0,1,1.09-.45C25.91,28.5,26,28.65,27.84,29.8Z"/><path class="cls-108" d="M28,29.94a1.21,1.21,0,0,1-.35.58,3.92,3.92,0,0,1-1.14.49c-1-2-1-2.1-2.9-3.25a.8.8,0,0,1,.24-.76,1.12,1.12,0,0,1,.86-.24C25.68,28.71,26.15,28.8,28,29.94Z"/><path class="cls-4" d="M24.9,26a1.09,1.09,0,0,1-.29,1.47l-.08.06,0,0a.91.91,0,1,1-1.2-1.31l0,0,.06-.07A1.09,1.09,0,0,1,24.9,26Z"/><path class="cls-109" d="M24.74,26.18a1,1,0,0,1-.21,1.39l0,0a.91.91,0,1,1-1.2-1.31l0,0A1,1,0,0,1,24.74,26.18Z"/><path class="cls-110" d="M23.2,26.75a1.17,1.17,0,0,0,.22.89.52.52,0,0,1-.22-.14.7.7,0,0,1-.13-.24A.58.58,0,0,1,23.2,26.75Z"/><path class="cls-4" d="M25.85,32.19a1.55,1.55,0,0,1-.1,1,2.33,2.33,0,0,1-.44.74,11.19,11.19,0,0,0-6-1.91.83.83,0,0,1-.17-.78,1.26,1.26,0,0,1,.72-.94A11.28,11.28,0,0,0,25.85,32.19Z"/><path class="cls-111" d="M26.12,32.17a1.31,1.31,0,0,1,0,.68,5,5,0,0,1-.8,1,11.19,11.19,0,0,0-6-1.91.83.83,0,0,1-.17-.78,1.13,1.13,0,0,1,.63-.64A12.18,12.18,0,0,0,26.12,32.17Z"/><path class="cls-4" d="M19.57,29.85a1.1,1.1,0,0,1,.48,1.43l0,.08v0a1.06,1.06,0,0,1-1.18.77,1,1,0,0,1-.51-1.31v0a.29.29,0,0,1,0-.09C18.55,30.1,19.1,29.7,19.57,29.85Z"/><path class="cls-112" d="M19.5,30.06a1.05,1.05,0,0,1,.52,1.3v0a1.06,1.06,0,0,1-1.18.77,1,1,0,0,1-.51-1.31v0A1,1,0,0,1,19.5,30.06Z"/><path class="cls-113" d="M18.46,31.32a1.25,1.25,0,0,0,.25.39,1.61,1.61,0,0,0,.38.27.57.57,0,0,1-.26,0,.51.51,0,0,1-.23-.15A.52.52,0,0,1,18.46,31.32Z"/><path class="cls-114" d="M25.35,34.39a1.48,1.48,0,0,1,.26.94,2.08,2.08,0,0,1-.13.85c-2.13-.44-2.05-.46-4.1.3a.83.83,0,0,1-.45-.65,1.24,1.24,0,0,1,.32-1.14C23.38,35.13,23.3,35.15,25.35,34.39Z"/><path class="cls-115" d="M25.52,34.34a1.1,1.1,0,0,1,.24.63,4.14,4.14,0,0,1-.28,1.21c-2.13-.44-2.05-.46-4.1.3a.83.83,0,0,1-.45-.65,1.13,1.13,0,0,1,.34-.83C23.41,35.44,23.48,35.09,25.52,34.34Z"/><path class="cls-116" d="M20.82,34.41c.49,0,.93.47,1,1.14v.12A1.05,1.05,0,0,1,21,36.82c-.46,0-.87-.41-1-1v0a.28.28,0,0,1,0-.09A1.09,1.09,0,0,1,20.82,34.41Z"/><path class="cls-117" d="M20.83,34.62c.46,0,.88.41,1,1v0A1.05,1.05,0,0,1,21,36.82c-.46,0-.87-.41-1-1v0A1.05,1.05,0,0,1,20.83,34.62Z"/><path class="cls-118" d="M20.34,36.19a1.78,1.78,0,0,0,.38.27,1.49,1.49,0,0,0,.45.1.49.49,0,0,1-.24.08.59.59,0,0,1-.27,0A.55.55,0,0,1,20.34,36.19Z"/><path class="cls-119" d="M27.49,37.18a1.53,1.53,0,0,1,.79.58,2.3,2.3,0,0,1,.42.75,11.18,11.18,0,0,0-4.65,4.23.82.82,0,0,1-.76-.23,1.25,1.25,0,0,1-.45-1.1A11.23,11.23,0,0,0,27.49,37.18Z"/><path class="cls-120" d="M27.49,37.18a2.79,2.79,0,0,1,.79.58,2.3,2.3,0,0,1,.42.75,11.18,11.18,0,0,0-4.65,4.23.82.82,0,0,1-.76-.23,1.15,1.15,0,0,1-.24-.87A11.34,11.34,0,0,0,27.49,37.18Z"/><path class="cls-121" d="M22.32,41.46a1.1,1.1,0,0,1,1.48.29l.06.07,0,0A1,1,0,0,1,24,43.25,1,1,0,0,1,22.57,43l0,0L22.48,43A1.09,1.09,0,0,1,22.32,41.46Z"/><path class="cls-122" d="M22.47,41.62a1.05,1.05,0,0,1,1.39.2l0,0A1,1,0,0,1,24,43.25,1,1,0,0,1,22.57,43l0,0A1.06,1.06,0,0,1,22.47,41.62Z"/><path class="cls-123" d="M23,43.15a1.43,1.43,0,0,0,.47,0,1.45,1.45,0,0,0,.42-.2.54.54,0,0,1-.15.22.44.44,0,0,1-.24.13A.51.51,0,0,1,23,43.15Z"/><path class="cls-124" d="M28.41,38.83a1.57,1.57,0,0,1,.93.29,2.17,2.17,0,0,1,.64.58,11.2,11.2,0,0,0-3,5.5.79.79,0,0,1-.79,0,1.22,1.22,0,0,1-.78-.89A11.28,11.28,0,0,0,28.41,38.83Z"/><path class="cls-125" d="M28.52,38.61a1.25,1.25,0,0,1,.66.15,4,4,0,0,1,.8.94,11.2,11.2,0,0,0-3,5.5.79.79,0,0,1-.79,0,1.08,1.08,0,0,1-.51-.74A12.21,12.21,0,0,0,28.52,38.61Z"/><path class="cls-126" d="M24.89,44.54a1.1,1.1,0,0,1,1.5-.2l.08,0,0,0a1,1,0,0,1,.52,1.3,1,1,0,0,1-1.38.25l0,0-.08,0A1.09,1.09,0,0,1,24.89,44.54Z"/><path class="cls-127" d="M25.08,44.64a1.06,1.06,0,0,1,1.39-.25l0,0a1,1,0,0,1,.52,1.3,1,1,0,0,1-1.38.25l0,0A1,1,0,0,1,25.08,44.64Z"/><path class="cls-128" d="M26.12,45.91a1.29,1.29,0,0,0,.43-.17,1.44,1.44,0,0,0,.34-.32.43.43,0,0,1-.07.25.5.5,0,0,1-.18.2A.54.54,0,0,1,26.12,45.91Z"/><path class="cls-129" d="M30.75,39.09a1.53,1.53,0,0,1,.89-.39,2.22,2.22,0,0,1,.86,0,11.24,11.24,0,0,0,1.34,6.15.78.78,0,0,1-.58.53,1.23,1.23,0,0,1-1.17-.15A11.33,11.33,0,0,0,30.75,39.09Z"/><path class="cls-130" d="M30.6,38.8c.12-.15.78-.18,1-.25a1.91,1.91,0,0,1,.87.16,11.24,11.24,0,0,0,1.34,6.15.78.78,0,0,1-.58.53,1.12,1.12,0,0,1-.87-.22A12.45,12.45,0,0,0,30.6,38.8Z"/><path class="cls-131" d="M31.87,45.71c-.11-.49.34-1,1-1.14H33a1.06,1.06,0,0,1,1.25.64c.1.45-.28.92-.87,1.1h0l-.09,0A1.09,1.09,0,0,1,31.87,45.71Z"/><path class="cls-132" d="M32.08,45.66a1,1,0,0,1,.87-1.1h0a1.06,1.06,0,0,1,1.25.64c.1.45-.28.92-.87,1.1h0A1.06,1.06,0,0,1,32.08,45.66Z"/><path class="cls-133" d="M33.7,45.93a1.6,1.6,0,0,0,.21-.41,1.72,1.72,0,0,0,0-.47.68.68,0,0,1,.12.24.62.62,0,0,1,0,.27A.52.52,0,0,1,33.7,45.93Z"/><path class="cls-134" d="M32.92,39.86a1.56,1.56,0,0,1,.61-.76,2.24,2.24,0,0,1,.76-.4c.9,2,.86,2,2.67,3.23a.82.82,0,0,1-.26.75,1.26,1.26,0,0,1-1.11.41C34.69,41.1,34.73,41.08,32.92,39.86Z"/><path class="cls-135" d="M32.66,39.66a1.24,1.24,0,0,1,.37-.57,4.88,4.88,0,0,1,1.26-.39c.9,2,.86,2,2.67,3.23a.82.82,0,0,1-.26.75,1.16,1.16,0,0,1-.88.21C34.93,40.9,34.47,40.87,32.66,39.66Z"/><path class="cls-136" d="M35.61,43.6A1.1,1.1,0,0,1,36,42.14l.07-.06,0,0a.91.91,0,1,1,1.15,1.36l0,0-.07.06A1.09,1.09,0,0,1,35.61,43.6Z"/><path class="cls-137" d="M35.78,43.46A1.05,1.05,0,0,1,36,42.08l0,0a.91.91,0,1,1,1.15,1.36l0,0A1,1,0,0,1,35.78,43.46Z"/><path class="cls-138" d="M37.33,43a1.48,1.48,0,0,0,0-.47,1.58,1.58,0,0,0-.19-.43.66.66,0,0,1,.22.15.58.58,0,0,1,.12.25A.54.54,0,0,1,37.33,43Z"/><path class="cls-139" d="M32.8,37.1a1.48,1.48,0,0,1,.1-1,2.33,2.33,0,0,1,.44-.74,11.16,11.16,0,0,0,6,1.91.81.81,0,0,1,.18.78,1.26,1.26,0,0,1-.72.94A11.28,11.28,0,0,0,32.8,37.1Z"/><path class="cls-140" d="M32.59,37.11c-.06-.18.25-.73.31-1a2.33,2.33,0,0,1,.44-.74,11.16,11.16,0,0,0,6,1.91.81.81,0,0,1,.18.78,1.13,1.13,0,0,1-.63.64A11.88,11.88,0,0,0,32.59,37.11Z"/><path class="cls-141" d="M39.08,39.44A1.1,1.1,0,0,1,38.6,38l0-.09v0a.91.91,0,1,1,1.69.54v0a.3.3,0,0,1,0,.1C40.1,39.19,39.55,39.59,39.08,39.44Z"/><path class="cls-142" d="M39.15,39.23a1.06,1.06,0,0,1-.52-1.31v0a.91.91,0,1,1,1.69.54v0C40.09,39,39.59,39.37,39.15,39.23Z"/><path class="cls-143" d="M40.19,38a1.71,1.71,0,0,0-.25-.4,1.58,1.58,0,0,0-.38-.26.58.58,0,0,1,.26,0,.51.51,0,0,1,.23.15A.52.52,0,0,1,40.19,38Z"/><path class="cls-144" d="M36.15,35a1.57,1.57,0,0,1-.39-.9,2.22,2.22,0,0,1,0-.86,11.23,11.23,0,0,0,6.14-1.34.8.8,0,0,1,.54.58,1.28,1.28,0,0,1-.15,1.18A11.24,11.24,0,0,0,36.15,35Z"/><path class="cls-145" d="M35.94,35a1.23,1.23,0,0,1-.32-.59,4.23,4.23,0,0,1,.15-1.23,11.23,11.23,0,0,0,6.14-1.34.8.8,0,0,1,.54.58,1.12,1.12,0,0,1-.22.87A12.1,12.1,0,0,0,35.94,35Z"/><path class="cls-146" d="M42.76,33.82c-.48.11-1-.33-1.13-1,0,0,0-.06,0-.09v0a1,1,0,0,1,.64-1.25c.45-.1.92.28,1.1.87v0l0,.09A1.09,1.09,0,0,1,42.76,33.82Z"/><path class="cls-147" d="M42.72,33.61c-.46.1-.93-.28-1.1-.87v0a1,1,0,0,1,.64-1.25c.45-.1.92.28,1.1.87v0A1,1,0,0,1,42.72,33.61Z"/><path class="cls-148" d="M43,32a1.42,1.42,0,0,0-.42-.22,1.35,1.35,0,0,0-.46,0,.46.46,0,0,1,.24-.12.5.5,0,0,1,.27,0A.57.57,0,0,1,43,32Z"/><path class="cls-149" d="M35.54,32.08a1.53,1.53,0,0,1-.79-.58,2.3,2.3,0,0,1-.42-.75,7.47,7.47,0,0,0,3.82-3.38.8.8,0,0,1,.75.23,1.27,1.27,0,0,1,.46,1.1A7.48,7.48,0,0,0,35.54,32.08Z"/><path class="cls-150" d="M35.42,32.21a1.22,1.22,0,0,1-.58-.34,4.4,4.4,0,0,1-.51-1.12,7.47,7.47,0,0,0,3.82-3.38.8.8,0,0,1,.75.23,1.12,1.12,0,0,1,.25.87C37.19,29.44,36.57,30.36,35.42,32.21Z"/><path class="cls-151" d="M39.87,28.65a1.09,1.09,0,0,1-1.48-.29l-.06-.07,0,0a1.07,1.07,0,0,1-.07-1.41,1.06,1.06,0,0,1,1.39.21l0,0,.06.07A1.09,1.09,0,0,1,39.87,28.65Z"/><path class="cls-152" d="M39.72,28.49a1,1,0,0,1-1.39-.2l0,0a1.07,1.07,0,0,1-.07-1.41,1.06,1.06,0,0,1,1.39.21l0,0A1,1,0,0,1,39.72,28.49Z"/><path class="cls-153" d="M39.15,27a1.46,1.46,0,0,0-.47,0,1.4,1.4,0,0,0-.41.2.53.53,0,0,1,.38-.35A.53.53,0,0,1,39.15,27Z"/><path class="cls-4" d="M29.63,33a1.05,1.05,0,1,1-.69-1.32A1.06,1.06,0,0,1,29.63,33Z"/><path class="cls-4" d="M34.19,32.07a1,1,0,0,1-2-.64,1,1,0,1,1,2,.64Z"/><path class="cls-4" d="M28.89,37.6a1,1,0,1,1-.68-1.32A1.05,1.05,0,0,1,28.89,37.6Z"/><path class="cls-4" d="M33.85,37.63a1,1,0,1,1-.68-1.32A1.05,1.05,0,0,1,33.85,37.63Z"/><path class="cls-154" d="M31.76,34.39a.61.61,0,0,1-.77.4.62.62,0,1,1,.38-1.17A.6.6,0,0,1,31.76,34.39Z"/><path class="cls-4" d="M30.67,37.06a.63.63,0,0,1-.78.4.6.6,0,0,1-.39-.77.61.61,0,0,1,1.17.37Z"/><polygon class="cls-155" points="12.25 6.91 24.27 50.63 31.63 50.62 19.15 3.02 12.25 6.91"/><polygon class="cls-155" points="25.35 1.73 38.28 48.77 41.62 46.95 29.09 2.06 25.35 1.73"/><path class="cls-156" d="M48.73,10A26.37,26.37,0,1,0,44.5,47,26.37,26.37,0,0,0,48.73,10ZM42.6,44.63a23.33,23.33,0,1,1,3.75-32.78A23.32,23.32,0,0,1,42.6,44.63Z"/></g></g></svg>